CommissionerLoud-LightItalic.ufo
<glyph name="numbersign" format="2">
  <advance width="678.6947368421053"/>
  <unicode hex="0023"/>
  <outline>
    <contour>
      <point x="-0.6526315789473693" y="156.65263157894736" type="line"/>
      <point x="60.568421052631585" y="158.01052631578946"/>
      <point x="129.17894736842103" y="159.3684210526316"/>
      <point x="168.29473684210527" y="159.7263157894737" type="curve"/>
      <point x="415.43157894736845" y="159.7263157894737" type="line"/>
      <point x="454.18947368421055" y="159.3684210526316"/>
      <point x="522.8" y="158.01052631578946"/>
      <point x="583.6631578947367" y="156.65263157894736" type="curve"/>
      <point x="595.2105263157895" y="214.42105263157896" type="line"/>
      <point x="534.1684210526316" y="213.06315789473686"/>
      <point x="465.37894736842105" y="211.70526315789473"/>
      <point x="426.4421052631579" y="211.34736842105264" type="curve"/>
      <point x="179.30526315789476" y="211.34736842105264" type="line"/>
      <point x="140.3684210526316" y="211.70526315789473"/>
      <point x="71.93684210526315" y="213.06315789473686"/>
      <point x="10.894736842105262" y="214.42105263157896" type="curve"/>
    </contour>
    <contour>
      <point x="65.15789473684211" y="0.0" type="curve"/>
      <point x="131.3263157894737" y="0.0" type="line"/>
      <point x="158.07368421052632" y="67.3578947368421"/>
      <point x="181.17894736842106" y="126.61052631578947"/>
      <point x="214.56842105263158" y="210.78947368421052" type="curve"/>
      <point x="309.77894736842103" y="439.86315789473684" type="line"/>
      <point x="347.9578947368421" y="527.9368421052632"/>
      <point x="372.4210526315789" y="584.8631578947368"/>
      <point x="403.6000000000001" y="656.578947368421" type="curve"/>
      <point x="338.32631578947365" y="656.578947368421" type="line"/>
      <point x="311.0421052631579" y="586.7894736842105"/>
      <point x="287.65263157894736" y="528.0421052631579"/>
      <point x="252.62105263157895" y="439.86315789473684" type="curve"/>
      <point x="157.41052631578947" y="210.78947368421052" type="line"/>
      <point x="120.87368421052632" y="127.07368421052634"/>
      <point x="94.15789473684211" y="66.64210526315789"/>
    </contour>
    <contour>
      <point x="116.84210526315789" y="439.1578947368421" type="line"/>
      <point x="178.06315789473683" y="440.5157894736842"/>
      <point x="246.85263157894738" y="441.8736842105263"/>
      <point x="285.7894736842105" y="442.2315789473684" type="curve"/>
      <point x="532.9263157894736" y="442.2315789473684" type="line"/>
      <point x="571.8631578947368" y="441.8736842105263"/>
      <point x="640.2947368421053" y="440.5157894736842"/>
      <point x="701.1578947368421" y="439.1578947368421" type="curve"/>
      <point x="712.8842105263158" y="496.9263157894737" type="line"/>
      <point x="651.6631578947369" y="495.56842105263155"/>
      <point x="583.0526315789473" y="494.2105263157895"/>
      <point x="543.936842105263" y="493.85263157894735" type="curve"/>
      <point x="296.8" y="493.85263157894735" type="line"/>
      <point x="258.0421052631579" y="494.2105263157895"/>
      <point x="189.43157894736845" y="495.56842105263155"/>
      <point x="128.56842105263158" y="496.9263157894737" type="curve"/>
    </contour>
    <contour>
      <point x="300.52631578947376" y="0.0" type="curve"/>
      <point x="366.69473684210527" y="0.0" type="line"/>
      <point x="393.4421052631578" y="67.3578947368421"/>
      <point x="416.5473684210527" y="126.61052631578947"/>
      <point x="449.9368421052631" y="210.78947368421052" type="curve"/>
      <point x="545.1473684210526" y="439.86315789473684" type="line"/>
      <point x="583.3263157894736" y="527.9368421052632"/>
      <point x="607.7894736842105" y="584.8631578947368"/>
      <point x="638.9684210526315" y="656.578947368421" type="curve"/>
      <point x="573.6947368421053" y="656.578947368421" type="line"/>
      <point x="546.4105263157895" y="586.7894736842105"/>
      <point x="523.021052631579" y="528.0421052631579"/>
      <point x="487.98947368421057" y="439.86315789473684" type="curve"/>
      <point x="392.77894736842103" y="210.78947368421052" type="line"/>
      <point x="356.24210526315784" y="127.07368421052634"/>
      <point x="329.5263157894737" y="66.64210526315789"/>
    </contour>
  </outline>
</glyph>
<glyph name="ampersand" format="2">
  <advance width="727.1954022988506"/>
  <unicode hex="0026"/>
  <outline>
    <contour>
      <point x="570.6781609195402" y="0.0" type="curve"/>
      <point x="658.2758620689655" y="0.0" type="line"/>
      <point x="609.5862068965517" y="58.643678160919535"/>
      <point x="563.0689655172414" y="114.72413793103448"/>
      <point x="514.3333333333334" y="173.632183908046" type="curve"/>
      <point x="330.14942528735634" y="403.50574712643675" type="line" smooth="yes"/>
      <point x="280.62068965517244" y="465.42528735632186"/>
      <point x="263.13793103448273" y="516.9540229885057"/>
      <point x="275.9655172413793" y="576.7011494252873" type="curve" smooth="yes"/>
      <point x="289.4022988505747" y="636.8850574712644"/>
      <point x="332.367816091954" y="670.5057471264367"/>
      <point x="397.42528735632186" y="672.5057471264367" type="curve"/>
      <point x="456.5632183908046" y="670.1149425287356"/>
      <point x="497.04597701149424" y="627.3218390804598"/>
      <point x="484.0" y="561.9195402298851" type="curve" smooth="yes"/>
      <point x="472.9540229885057" y="508.2988505747126"/>
      <point x="393.94252873563215" y="465.68965517241384"/>
      <point x="313.71264367816093" y="416.98850574712645" type="curve"/>
      <point x="346.1724137931035" y="374.6206896551724" type="line"/>
      <point x="427.6551724137931" y="426.6206896551723"/>
      <point x="529.8735632183907" y="481.919540229885"/>
      <point x="544.0919540229885" y="552.7931034482758" type="curve" smooth="yes"/>
      <point x="563.8735632183907" y="649.919540229885"/>
      <point x="493.6666666666667" y="725.7816091954023"/>
      <point x="398.0344827586207" y="725.7816091954023" type="curve" smooth="yes"/>
      <point x="308.9540229885057" y="725.7816091954023"/>
      <point x="231.91954022988506" y="675.9080459770115"/>
      <point x="212.5287356321839" y="584.0459770114942" type="curve" smooth="yes"/>
      <point x="195.3103448275862" y="500.7816091954023"/>
      <point x="227.7471264367816" y="433.04597701149424"/>
      <point x="278.62068965517244" y="369.0" type="curve" smooth="yes"/>
      <point x="466.14942528735634" y="136.0" type="line"/>
      <point x="500.80459770114936" y="90.7816091954023"/>
      <point x="537.8505747126437" y="42.7816091954023"/>
    </contour>
    <contour>
      <point x="236.60919540229887" y="-9.781609195402298" type="curve" smooth="yes"/>
      <point x="306.0919540229885" y="-9.781609195402298"/>
      <point x="385.4367816091954" y="55.35632183908046"/>
      <point x="474.4022988505747" y="114.88505747126437" type="curve"/>
      <point x="487.183908045977" y="114.88505747126437" type="line"/>
      <point x="484.2298850574713" y="129.183908045977" type="line"/>
      <point x="450.0689655172414" y="166.72413793103448" type="line"/>
      <point x="366.4827586206896" y="105.66666666666666"/>
      <point x="288.01149425287355" y="47.79310344827586"/>
      <point x="242.86206896551724" y="47.79310344827586" type="curve"/>
      <point x="137.75862068965517" y="50.183908045977006"/>
      <point x="89.91954022988507" y="120.41379310344827"/>
      <point x="107.57471264367817" y="205.29885057471265" type="curve" smooth="yes"/>
      <point x="125.83908045977013" y="292.4022988505747"/>
      <point x="193.89655172413794" y="335.4942528735632"/>
      <point x="291.60919540229884" y="369.14942528735634" type="curve"/>
      <point x="268.7126436781609" y="414.1264367816092" type="line"/>
      <point x="167.8850574712644" y="381.735632183908"/>
      <point x="69.9655172413793" y="328.39080459770116"/>
      <point x="44.747126436781606" y="208.73563218390805" type="curve" smooth="yes"/>
      <point x="22.356321839080458" y="102.60919540229885"/>
      <point x="89.48275862068965" y="-9.781609195402298"/>
    </contour>
    <contour>
      <point x="521.632183908046" y="156.55172413793102" type="line"/>
      <point x="579.5862068965517" y="219.2068965517241"/>
      <point x="634.8850574712644" y="278.816091954023"/>
      <point x="692.2298850574713" y="340.86206896551727" type="curve"/>
      <point x="633.4827586206898" y="381.57471264367814" type="line"/>
      <point x="584.655172413793" y="320.35632183908046"/>
      <point x="537.8275862068965" y="262.1379310344828"/>
      <point x="486.0" y="196.91954022988506" type="curve"/>
    </contour>
  </outline>
</glyph>
<glyph name="quotesingle" format="2">
  <advance width="195.34736842105264"/>
  <unicode hex="0027"/>
  <outline>
    <contour>
      <point x="103.05263157894736" y="446.85263157894735" type="curve"/>
      <point x="153.85263157894738" y="447.85263157894735" type="line"/>
      <point x="177.25263157894736" y="547.4736842105264"/>
      <point x="204.93684210526317" y="646.5578947368421"/>
      <point x="233.26315789473685" y="744.1789473684211" type="curve"/>
      <point x="148.76842105263157" y="742.4631578947368" type="line"/>
      <point x="136.05263157894734" y="645.3789473684211"/>
      <point x="122.51578947368421" y="547.4736842105264"/>
    </contour>
  </outline>
</glyph>
<glyph name="parenleft" format="2">
  <advance width="377.77894736842103"/>
  <unicode hex="0028"/>
  <outline>
    <contour>
      <point x="207.24210526315792" y="-118.08421052631579" type="curve"/>
      <point x="267.93684210526317" y="-98.13684210526316" type="line"/>
      <point x="192.01052631578946" y="34.1578947368421"/>
      <point x="115.5578947368421" y="181.0"/>
      <point x="148.8421052631579" y="338.85263157894735" type="curve" smooth="yes"/>
      <point x="182.1263157894737" y="496.8842105263158"/>
      <point x="317.68421052631584" y="624.8736842105263"/>
      <point x="442.40000000000003" y="740.1368421052632" type="curve"/>
      <point x="384.2421052631579" y="765.7263157894737" type="line"/>
      <point x="265.2105263157895" y="654.336842105263"/>
      <point x="121.09473684210526" y="521.4842105263158"/>
      <point x="84.02105263157894" y="346.14736842105265" type="curve" smooth="yes"/>
      <point x="46.94736842105264" y="171.6315789473684"/>
      <point x="136.6736842105263" y="10.94736842105263"/>
    </contour>
  </outline>
</glyph>
<glyph name="asterisk" format="2">
  <advance width="467.8421052631579"/>
  <unicode hex="002A"/>
  <outline>
    <contour>
      <point x="436.178947368421" y="341.1263157894737" type="curve"/>
      <point x="474.24210526315795" y="381.80000000000007" type="line"/>
      <point x="417.4526315789474" y="430.7263157894737"/>
      <point x="359.4842105263158" y="480.2947368421053"/>
      <point x="302.6947368421052" y="529.2210526315789" type="curve"/>
      <point x="250.87368421052628" y="585.1157894736842"/>
      <point x="197.58947368421053" y="639.7263157894737"/>
      <point x="145.94736842105263" y="693.978947368421" type="curve"/>
      <point x="108.70526315789475" y="653.1263157894737" type="line"/>
      <point x="164.6736842105263" y="604.0210526315789"/>
      <point x="222.28421052631577" y="554.6315789473684"/>
      <point x="279.43157894736845" y="504.7052631578947" type="curve"/>
      <point x="331.89473684210526" y="450.4526315789473"/>
      <point x="384.53684210526313" y="395.2"/>
    </contour>
    <contour>
      <point x="87.36842105263158" y="415.69473684210527" type="line"/>
      <point x="156.72631578947366" y="444.12631578947367"/>
      <point x="226.72631578947366" y="472.55789473684206"/>
      <point x="296.9052631578947" y="501.81052631578945" type="curve"/>
      <point x="368.9789473684211" y="523.8421052631578"/>
      <point x="441.2315789473684" y="545.2315789473685"/>
      <point x="513.3052631578947" y="567.2631578947369" type="curve"/>
      <point x="494.57894736842104" y="619.4105263157895" type="line"/>
      <point x="425.4" y="590.9789473684211"/>
      <point x="355.4" y="562.5473684210527"/>
      <point x="286.0421052631579" y="534.1157894736842" type="curve"/>
      <point x="213.14736842105265" y="511.0842105263158"/>
      <point x="140.71578947368423" y="489.87368421052633"/>
      <point x="68.6421052631579" y="467.842105263158" type="curve"/>
    </contour>
    <contour>
      <point x="216.45263157894735" y="302.0" type="curve"/>
      <point x="270.9578947368421" y="289.88421052631577" type="line"/>
      <point x="283.52631578947376" y="364.7789473684211"/>
      <point x="295.7368421052632" y="439.4947368421052"/>
      <point x="307.4842105263158" y="515.2105263157895" type="curve"/>
      <point x="327.09473684210525" y="587.5684210526316"/>
      <point x="345.8842105263158" y="659.9263157894737"/>
      <point x="365.4947368421053" y="733.1052631578948" type="curve"/>
      <point x="311.1684210526316" y="745.042105263158" type="line"/>
      <point x="298.59999999999997" y="670.3263157894737"/>
      <point x="286.38947368421054" y="595.4315789473684"/>
      <point x="274.6421052631579" y="522.1789473684211" type="curve"/>
      <point x="255.03157894736842" y="448.178947368421"/>
      <point x="236.06315789473683" y="375.17894736842106"/>
    </contour>
  </outline>
</glyph>
<glyph name="plus" format="2">
  <advance width="585.3684210526316"/>
  <unicode hex="002B"/>
  <outline>
    <contour>
      <point x="219.68421052631578" y="61.242105263157896" type="curve"/>
      <point x="286.7157894736842" y="61.242105263157896" type="line"/>
      <point x="298.8947368421052" y="123.92631578947368"/>
      <point x="311.89473684210526" y="190.89473684210526"/>
      <point x="319.4315789473684" y="229.83157894736843" type="curve"/>
      <point x="348.35789473684207" y="365.17894736842106" type="line"/>
      <point x="357.61052631578946" y="404.4736842105263"/>
      <point x="373.32631578947365" y="472.7263157894737"/>
      <point x="387.4" y="533.7684210526315" type="curve"/>
      <point x="320.36842105263156" y="533.7684210526315" type="line"/>
      <point x="309.0105263157895" y="473.90526315789475"/>
      <point x="295.01052631578943" y="403.11578947368423"/>
      <point x="287.4736842105263" y="365.17894736842106" type="curve"/>
      <point x="258.5473684210526" y="229.83157894736843" type="line"/>
      <point x="250.29473684210527" y="191.7157894736842"/>
      <point x="234.578947368421" y="123.10526315789473"/>
    </contour>
    <contour>
      <point x="68.58947368421053" y="265.1157894736842" type="line"/>
      <point x="129.81052631578947" y="266.4736842105263"/>
      <point x="198.60000000000002" y="267.83157894736837"/>
      <point x="237.53684210526316" y="268.1894736842105" type="curve"/>
      <point x="356.46315789473687" y="268.1894736842105" type="line"/>
      <point x="395.40000000000003" y="267.83157894736837"/>
      <point x="463.8315789473684" y="266.4736842105263"/>
      <point x="524.6947368421052" y="265.1157894736842" type="curve"/>
      <point x="538.3157894736842" y="329.89473684210526" type="line"/>
      <point x="477.2736842105263" y="328.53684210526313"/>
      <point x="407.66315789473686" y="327.17894736842106"/>
      <point x="368.7263157894737" y="326.82105263157894" type="curve"/>
      <point x="249.79999999999998" y="326.82105263157894" type="line"/>
      <point x="210.86315789473684" y="327.17894736842106"/>
      <point x="143.25263157894736" y="328.53684210526313"/>
      <point x="82.21052631578948" y="329.89473684210526" type="curve"/>
    </contour>
  </outline>
</glyph>
<glyph name="comma" format="2">
  <advance width="224.9157894736842"/>
  <unicode hex="002C"/>
  <outline>
    <contour>
      <point x="-35.76842105263158" y="-157.0" type="curve"/>
      <point x="4.62105263157895" y="-155.82105263157894" type="line"/>
      <point x="46.978947368421046" y="-94.93684210526315"/>
      <point x="119.53684210526315" y="6.252631578947366"/>
      <point x="127.43157894736842" y="46.26315789473685" type="curve" smooth="yes"/>
      <point x="133.86315789473687" y="79.31578947368422"/>
      <point x="124.43157894736844" y="103.65263157894736"/>
      <point x="93.48421052631579" y="109.97894736842105" type="curve"/>
      <point x="52.2" y="107.54736842105262" type="line"/>
      <point x="48.20000000000001" y="78.0"/>
      <point x="44.842105263157904" y="48.45263157894737"/>
      <point x="40.66315789473684" y="19.978947368421053" type="curve"/>
      <point x="16.8421052631579" y="-38.09473684210526"/>
      <point x="-9.305263157894736" y="-98.17894736842105"/>
    </contour>
  </outline>
</glyph>
<glyph name="hyphen" format="2">
  <advance width="421.7894736842105"/>
  <unicode hex="002D"/>
  <outline>
    <contour>
      <point x="68.41052631578948" y="264.2210526315789" type="line"/>
      <point x="121.55789473684212" y="265.57894736842104"/>
      <point x="180.81052631578945" y="266.9368421052631"/>
      <point x="214.85263157894735" y="267.29473684210524" type="curve"/>
      <point x="248.89473684210526" y="266.9368421052631"/>
      <point x="307.7894736842105" y="265.57894736842104"/>
      <point x="360.9368421052631" y="264.2210526315789" type="curve"/>
      <point x="374.37894736842105" y="329.0" type="line"/>
      <point x="321.0526315789474" y="327.6421052631579"/>
      <point x="261.15789473684214" y="326.2842105263158"/>
      <point x="226.93684210526317" y="325.9263157894737" type="curve"/>
      <point x="193.07368421052632" y="326.2842105263158"/>
      <point x="134.82105263157897" y="327.6421052631579"/>
      <point x="81.85263157894737" y="329.0" type="curve"/>
    </contour>
  </outline>
</glyph>
<glyph name="period" format="2">
  <advance width="228.49473684210525"/>
  <unicode hex="002E"/>
  <outline>
    <contour>
      <point x="67.58947368421053" y="-10.25263157894737" type="curve" smooth="yes"/>
      <point x="103.53684210526315" y="-10.25263157894737"/>
      <point x="123.01052631578946" y="5.4"/>
      <point x="131.26315789473685" y="45.02105263157894" type="curve" smooth="yes"/>
      <point x="137.51578947368418" y="80.28421052631579"/>
      <point x="116.47368421052632" y="105.69473684210527"/>
      <point x="76.73684210526316" y="105.69473684210527" type="curve" smooth="yes"/>
      <point x="39.82105263157895" y="105.69473684210527"/>
      <point x="21.31578947368421" y="91.0421052631579"/>
      <point x="15.242105263157894" y="59.67368421052631" type="curve" smooth="yes"/>
      <point x="6.810526315789473" y="19.8"/>
      <point x="27.56842105263158" y="-10.25263157894737"/>
    </contour>
  </outline>
</glyph>
<glyph name="slash" format="2">
  <advance width="446.41052631578947"/>
  <unicode hex="002F"/>
  <outline>
    <contour>
      <point x="-21.694736842105264" y="0.0" type="curve"/>
      <point x="56.6" y="0.0" type="line"/>
      <point x="102.45263157894736" y="74.0"/>
      <point x="141.30526315789473" y="136.0"/>
      <point x="198.44210526315788" y="228.0" type="curve"/>
      <point x="356.2526315789474" y="474.0" type="line"/>
      <point x="418.17894736842106" y="568.8210526315789"/>
      <point x="460.46315789473687" y="632.8210526315789"/>
      <point x="513.7473684210527" y="713.0" type="curve"/>
      <point x="435.6315789473685" y="713.0" type="line"/>
      <point x="387.9578947368421" y="636.8210526315789"/>
      <point x="348.10526315789474" y="572.0"/>
      <point x="288.14736842105265" y="476.17894736842106" type="curve"/>
      <point x="129.1578947368421" y="228.0" type="line"/>
      <point x="68.23157894736843" y="136.53684210526316"/>
      <point x="26.947368421052637" y="73.53684210526316"/>
    </contour>
  </outline>
</glyph>
<glyph name="zero" format="2">
  <advance width="649.2631578947369"/>
  <unicode hex="0030"/>
  <outline>
    <contour>
      <point x="302.11578947368423" y="-10.073684210526316" type="curve" smooth="yes"/>
      <point x="462.34736842105264" y="-10.073684210526316"/>
      <point x="558.8842105263158" y="98.53684210526316"/>
      <point x="603.8842105263158" y="309.2526315789474" type="curve" smooth="yes"/>
      <point x="650.3473684210526" y="528.0"/>
      <point x="575.4526315789474" y="697.7894736842105"/>
      <point x="395.17894736842106" y="697.7894736842105" type="curve" smooth="yes"/>
      <point x="228.12631578947367" y="697.7894736842105"/>
      <point x="128.37894736842105" y="582.178947368421"/>
      <point x="86.19999999999999" y="379.7473684210526" type="curve" smooth="yes"/>
      <point x="41.09473684210526" y="165.61052631578949"/>
      <point x="109.73684210526316" y="-10.073684210526316"/>
    </contour>
    <contour>
      <point x="303.5473684210527" y="49.66315789473684" type="curve"/>
      <point x="158.41052631578947" y="53.37894736842105"/>
      <point x="115.64210526315789" y="192.6"/>
      <point x="153.70526315789476" y="371.06315789473683" type="curve" smooth="yes"/>
      <point x="188.02105263157895" y="532.8947368421052"/>
      <point x="257.43157894736845" y="634.1578947368421"/>
      <point x="394.2842105263158" y="637.8736842105263" type="curve"/>
      <point x="527.0315789473684" y="634.1578947368421"/>
      <point x="575.9789473684211" y="502.50526315789466"/>
      <point x="536.7368421052632" y="316.93684210526317" type="curve" smooth="yes"/>
      <point x="502.42105263157896" y="155.82105263157894"/>
      <point x="438.11578947368423" y="53.37894736842105"/>
    </contour>
  </outline>
</glyph>
<glyph name="one" format="2">
  <advance width="422.6736842105263"/>
  <unicode hex="0031"/>
  <outline>
    <contour>
      <point x="105.9578947368421" y="494.2631578947368" type="line"/>
      <point x="188.67368421052632" y="536.3684210526316"/>
      <point x="269.7473684210526" y="577.6526315789473"/>
      <point x="352.821052631579" y="619.9368421052632" type="curve"/>
      <point x="367.87368421052633" y="687.7894736842105" type="line"/>
      <point x="278.2210526315789" y="645.3263157894737"/>
      <point x="189.1052631578947" y="603.8631578947368"/>
      <point x="99.63157894736842" y="561.4" type="curve"/>
    </contour>
    <contour>
      <point x="183.86315789473684" y="0.0" type="curve"/>
      <point x="260.2" y="0.0" type="line"/>
      <point x="274.12631578947367" y="73.92631578947369"/>
      <point x="286.87368421052633" y="138.03157894736842"/>
      <point x="301.9789473684211" y="219.56842105263158" type="curve"/>
      <point x="350.33684210526314" y="447.3578947368421" type="line"/>
      <point x="369.87368421052633" y="531.2842105263157"/>
      <point x="388.7684210526316" y="611.1052631578947"/>
      <point x="406.0210526315789" y="685.0736842105263" type="curve"/>
      <point x="367.87368421052633" y="687.7894736842105" type="line"/>
      <point x="325.2526315789474" y="655.2947368421053" type="line"/>
      <point x="310.9684210526316" y="582.7263157894737"/>
      <point x="295.22105263157897" y="502.12631578947367"/>
      <point x="282.57894736842104" y="438.58947368421053" type="curve"/>
      <point x="236.18947368421053" y="219.56842105263158" type="line"/>
      <point x="216.1157894736842" y="138.03157894736842"/>
      <point x="201.5789473684211" y="73.92631578947369"/>
    </contour>
  </outline>
</glyph>
<glyph name="two" format="2">
  <advance width="550.5157894736842"/>
  <unicode hex="0032"/>
  <outline>
    <contour>
      <point x="-1.863157894736844" y="0.0" type="line"/>
      <point x="442.9894736842105" y="0.0" type="line"/>
      <point x="456.9684210526316" y="65.74736842105264" type="line"/>
      <point x="378.90526315789475" y="63.67368421052632"/>
      <point x="300.37894736842105" y="61.6"/>
      <point x="220.77894736842106" y="59.347368421052636" type="curve"/>
      <point x="77.47368421052632" y="59.347368421052636" type="line"/>
      <point x="87.1578947368421" y="41.72631578947368" type="line"/>
      <point x="221.9263157894737" y="140.13684210526316" type="line"/>
      <point x="405.2631578947368" y="274.2210526315789"/>
      <point x="505.4947368421053" y="362.10526315789474"/>
      <point x="529.7789473684211" y="479.1684210526316" type="curve" smooth="yes"/>
      <point x="554.2105263157896" y="597.8947368421053"/>
      <point x="495.0526315789474" y="697.7894736842105"/>
      <point x="349.5368421052632" y="697.7894736842105" type="curve" smooth="yes"/>
      <point x="304.3578947368421" y="697.7894736842105"/>
      <point x="186.32631578947363" y="658.8315789473685"/>
      <point x="128.85263157894738" y="640.0105263157895" type="curve"/>
      <point x="123.2" y="566.3684210526316" type="line"/>
      <point x="212.1894736842105" y="602.1157894736842"/>
      <point x="314.30526315789473" y="637.5157894736842"/>
      <point x="338.8" y="637.5157894736842" type="curve"/>
      <point x="442.2736842105263" y="636.1578947368421"/>
      <point x="481.23157894736846" y="572.1052631578948"/>
      <point x="462.3789473684211" y="483.66315789473686" type="curve" smooth="yes"/>
      <point x="439.98947368421057" y="376.0736842105263"/>
      <point x="332.46315789473687" y="289.90526315789475"/>
      <point x="158.02105263157895" y="159.85263157894738" type="curve"/>
      <point x="108.88421052631578" y="124.89473684210526"/>
      <point x="58.46315789473684" y="89.29473684210527"/>
      <point x="9.326315789473682" y="54.33684210526316" type="curve"/>
    </contour>
  </outline>
</glyph>
<glyph name="four" format="2">
  <advance width="596.0344827586207"/>
  <unicode hex="0034"/>
  <outline>
    <contour>
      <point x="310.1954022988506" y="0.0" type="curve"/>
      <point x="386.6206896551724" y="0.0" type="line"/>
      <point x="398.2298850574713" y="62.5632183908046"/>
      <point x="407.44827586206895" y="112.51724137931035"/>
      <point x="421.0574712643678" y="185.86206896551727" type="curve"/>
      <point x="475.88505747126436" y="444.17241379310343" type="line"/>
      <point x="494.66666666666663" y="524.1724137931035"/>
      <point x="512.8390804597701" y="601.5632183908046"/>
      <point x="532.6206896551724" y="685.1724137931035" type="curve"/>
      <point x="454.1954022988506" y="685.1724137931035" type="line"/>
      <point x="414.14942528735634" y="639.3448275862069"/>
      <point x="373.49425287356314" y="593.2988505747127"/>
      <point x="333.8390804597701" y="547.8620689655172" type="curve"/>
      <point x="217.35632183908046" y="420.98850574712645" type="line"/>
      <point x="159.31034482758622" y="358.7241379310345"/>
      <point x="79.82758620689654" y="274.2413793103448"/>
      <point x="24.7816091954023" y="214.97701149425288" type="curve"/>
      <point x="14.310344827586205" y="161.9655172413793" type="line"/>
      <point x="382.1379310344828" y="161.9655172413793" type="line"/>
      <point x="432.2643678160919" y="161.183908045977"/>
      <point x="504.95402298850576" y="159.79310344827584"/>
      <point x="551.0804597701149" y="158.4022988505747" type="curve"/>
      <point x="565.1149425287357" y="225.22988505747128" type="line"/>
      <point x="518.5977011494253" y="223.83908045977014"/>
      <point x="444.90804597701145" y="222.05747126436782"/>
      <point x="394.0" y="221.27586206896552" type="curve"/>
      <point x="380.2183908045977" y="221.27586206896552" type="line"/>
      <point x="81.52873563218391" y="221.27586206896552" type="line"/>
      <point x="85.48275862068965" y="201.5402298850575" type="line"/>
      <point x="126.13793103448276" y="247.58620689655174"/>
      <point x="166.57471264367817" y="293.41379310344826"/>
      <point x="207.22988505747128" y="339.45977011494256" type="curve"/>
      <point x="366.1954022988506" y="512.4252873563219" type="line"/>
      <point x="414.2413793103448" y="564.2988505747127"/>
      <point x="462.50574712643675" y="616.7816091954023"/>
      <point x="511.55172413793093" y="669.0459770114943" type="curve"/>
      <point x="451.4137931034483" y="651.2758620689655" type="line"/>
      <point x="437.1954022988506" y="577.8390804597701"/>
      <point x="423.367816091954" y="508.6206896551724"/>
      <point x="409.54022988505744" y="435.18390804597703" type="curve"/>
      <point x="360.0574712643678" y="201.5977011494253" type="line"/>
      <point x="355.1034482758621" y="185.86206896551727" type="line"/>
      <point x="337.5402298850575" y="112.51724137931035"/>
      <point x="325.367816091954" y="62.95402298850575"/>
    </contour>
  </outline>
</glyph>
<glyph name="five" format="2">
  <advance width="572.6896551724138"/>
  <unicode hex="0035"/>
  <outline>
    <contour>
      <point x="235.5632183908046" y="-10.172413793103448" type="curve" smooth="yes"/>
      <point x="388.33333333333337" y="-10.172413793103448"/>
      <point x="478.55172413793105" y="58.172413793103445"/>
      <point x="507.9425287356322" y="196.90804597701148" type="curve" smooth="yes"/>
      <point x="539.551724137931" y="344.9080459770115"/>
      <point x="445.67816091954023" y="438.86206896551727"/>
      <point x="326.632183908046" y="438.86206896551727" type="curve" smooth="yes"/>
      <point x="283.0574712643678" y="438.86206896551727"/>
      <point x="234.74712643678163" y="420.98850574712645"/>
      <point x="194.65517241379314" y="404.55172413793105" type="curve"/>
      <point x="187.09195402298852" y="404.55172413793105" type="line"/>
      <point x="196.91954022988506" y="451.2988505747126" type="line"/>
      <point x="210.31034482758622" y="510.78160919540227"/>
      <point x="226.9655172413793" y="583.448275862069"/>
      <point x="241.57471264367814" y="650.0229885057471" type="curve"/>
      <point x="209.9425287356322" y="625.8620689655172" type="line"/>
      <point x="312.7701149425288" y="625.8620689655172" type="line"/>
      <point x="391.5977011494253" y="623.6896551724137"/>
      <point x="473.816091954023" y="621.5172413793103"/>
      <point x="554.2528735632184" y="619.3448275862069" type="curve"/>
      <point x="567.8965517241379" y="685.1724137931035" type="line"/>
      <point x="176.79310344827587" y="685.1724137931035" type="line"/>
      <point x="163.18390804597703" y="610.4367816091955"/>
      <point x="147.18390804597703" y="526.919540229885"/>
      <point x="130.18390804597703" y="438.4022988505747" type="curve"/>
      <point x="108.40229885057471" y="333.4942528735632" type="line"/>
      <point x="137.86206896551727" y="330.71264367816093" type="line"/>
      <point x="195.6551724137931" y="362.2413793103448"/>
      <point x="260.183908045977" y="380.67816091954023"/>
      <point x="300.2298850574713" y="380.67816091954023" type="curve"/>
      <point x="394.2413793103448" y="379.28735632183907"/>
      <point x="465.2988505747127" y="321.10344827586204"/>
      <point x="441.2068965517242" y="203.08045977011494" type="curve" smooth="yes"/>
      <point x="419.33333333333337" y="95.32183908045978"/>
      <point x="349.32183908045977" y="51.356321839080465"/>
      <point x="234.95402298850576" y="49.96551724137932" type="curve"/>
      <point x="192.20689655172413" y="49.96551724137932"/>
      <point x="109.00000000000001" y="83.70114942528735"/>
      <point x="26.90804597701149" y="121.35632183908046" type="curve"/>
      <point x="5.701149425287353" y="56.09195402298851" type="line"/>
      <point x="84.35632183908046" y="25.218390804597696"/>
      <point x="186.51724137931038" y="-10.172413793103448"/>
    </contour>
  </outline>
</glyph>
<glyph name="six" format="2">
  <advance width="604.4712643678162"/>
  <unicode hex="0036"/>
  <outline>
    <contour>
      <point x="289.51724137931035" y="-10.172413793103448" type="curve" smooth="yes"/>
      <point x="436.33333333333337" y="-10.172413793103448"/>
      <point x="518.9425287356322" y="84.73563218390804"/>
      <point x="542.9425287356322" y="200.17241379310346" type="curve" smooth="yes"/>
      <point x="570.1149425287357" y="329.08045977011494"/>
      <point x="497.9425287356322" y="440.86206896551727"/>
      <point x="359.45977011494256" y="440.86206896551727" type="curve" smooth="yes"/>
      <point x="305.54022988505744" y="440.86206896551727"/>
      <point x="208.04597701149424" y="391.7241379310345"/>
      <point x="157.82758620689654" y="358.5057471264368" type="curve"/>
      <point x="144.26436781609195" y="359.5057471264368" type="line"/>
      <point x="127.54022988505747" y="333.7816091954023"/>
      <point x="123.54022988505747" y="316.5632183908046"/>
      <point x="129.7471264367816" y="288.5287356321839" type="curve"/>
      <point x="195.58620689655172" y="340.712643678161"/>
      <point x="300.3908045977011" y="381.28735632183907"/>
      <point x="341.264367816092" y="383.0689655172414" type="curve"/>
      <point x="457.28735632183907" y="381.28735632183907"/>
      <point x="497.5977011494253" y="296.35632183908046"/>
      <point x="478.94252873563215" y="208.68965517241378" type="curve" smooth="yes"/>
      <point x="460.28735632183907" y="121.02298850574712"/>
      <point x="400.7126436781609" y="52.356321839080465"/>
      <point x="290.08045977011494" y="49.96551724137932" type="curve"/>
      <point x="159.79310344827587" y="53.52873563218392"/>
      <point x="105.87356321839081" y="160.89655172413794"/>
      <point x="144.52873563218392" y="342.17241379310343" type="curve" smooth="yes"/>
      <point x="188.6206896551724" y="549.5862068965517"/>
      <point x="268.02298850574715" y="635.0344827586207"/>
      <point x="404.9080459770115" y="637.4252873563219" type="curve"/>
      <point x="423.9540229885057" y="637.4252873563219"/>
      <point x="504.2528735632185" y="612.2528735632184"/>
      <point x="572.735632183908" y="583.2068965517241" type="curve"/>
      <point x="593.7241379310345" y="647.2988505747126" type="line"/>
      <point x="546.9885057471265" y="664.5172413793103"/>
      <point x="441.90804597701145" y="697.9540229885057"/>
      <point x="404.9080459770115" y="697.9540229885057" type="curve" smooth="yes"/>
      <point x="238.4712643678161" y="697.9540229885057"/>
      <point x="130.48275862068965" y="590.5057471264369"/>
      <point x="79.91954022988504" y="351.47126436781605" type="curve" smooth="yes"/>
      <point x="34.137931034482754" y="133.39080459770116"/>
      <point x="116.3103448275862" y="-10.172413793103448"/>
    </contour>
  </outline>
</glyph>
<glyph name="seven" format="2">
  <advance width="522.0947368421052"/>
  <unicode hex="0037"/>
  <outline>
    <contour>
      <point x="58.442105263157885" y="0.0" type="curve"/>
      <point x="145.17894736842106" y="0.0" type="line"/>
      <point x="198.42105263157893" y="83.3157894736842"/>
      <point x="251.1263157894737" y="167.09473684210525"/>
      <point x="303.5473684210526" y="248.7684210526316" type="curve"/>
      <point x="398.0736842105263" y="390.11578947368423" type="line"/>
      <point x="454.85263157894735" y="474.6421052631579"/>
      <point x="506.98947368421057" y="551.7052631578947"/>
      <point x="561.3052631578946" y="632.9473684210526" type="curve"/>
      <point x="572.6736842105263" y="685.0736842105263" type="line"/>
      <point x="117.0" y="685.0736842105263" type="line"/>
      <point x="103.02105263157895" y="618.7894736842105" type="line"/>
      <point x="188.79999999999998" y="621.042105263158"/>
      <point x="274.7578947368421" y="623.4736842105264"/>
      <point x="360.53684210526313" y="625.7263157894737" type="curve"/>
      <point x="503.81052631578945" y="625.7263157894737" type="line"/>
      <point x="486.32631578947365" y="641.6315789473684" type="line"/>
      <point x="452.01052631578943" y="589.6"/>
      <point x="419.1578947368421" y="538.2105263157895"/>
      <point x="386.4842105263158" y="486.17894736842106" type="curve"/>
      <point x="245.10526315789474" y="274.87368421052633" type="line"/>
      <point x="183.61052631578946" y="184.73684210526318"/>
      <point x="120.93684210526317" y="91.9578947368421"/>
    </contour>
  </outline>
</glyph>
<glyph name="less" format="2">
  <advance width="565.3684210526316"/>
  <unicode hex="003C"/>
  <outline>
    <contour>
      <point x="464.2315789473684" y="74.72631578947369" type="curve"/>
      <point x="478.8526315789474" y="141.86315789473687" type="line"/>
      <point x="412.5052631578947" y="171.9263157894737"/>
      <point x="338.94736842105266" y="205.2736842105263"/>
      <point x="270.95789473684215" y="236.1578947368421" type="curve"/>
      <point x="160.90526315789475" y="288.89473684210526" type="line"/>
      <point x="163.08421052631581" y="296.6842105263158" type="line"/>
      <point x="294.4526315789474" y="349.06315789473683" type="line"/>
      <point x="375.65263157894736" y="379.76842105263154"/>
      <point x="463.42105263157896" y="413.11578947368423"/>
      <point x="542.978947368421" y="443.00000000000006" type="curve"/>
      <point x="558.1368421052631" y="518.6421052631579" type="line"/>
      <point x="491.55789473684206" y="490.9263157894737"/>
      <point x="428.05263157894734" y="464.56842105263155"/>
      <point x="372.5473684210527" y="442.0315789473684" type="curve"/>
      <point x="264.978947368421" y="399.17894736842106" type="line"/>
      <point x="211.29473684210524" y="378.53684210526313"/>
      <point x="147.61052631578946" y="354.0736842105263"/>
      <point x="82.38947368421053" y="330.25263157894733" type="curve"/>
      <point x="67.76842105263158" y="263.11578947368423" type="line"/>
      <point x="122.98947368421052" y="239.29473684210524"/>
      <point x="176.85263157894738" y="214.83157894736843"/>
      <point x="220.89473684210526" y="194.18947368421053" type="curve"/>
      <point x="311.17894736842106" y="151.33684210526314" type="line"/>
      <point x="356.5052631578947" y="128.79999999999998"/>
      <point x="409.65263157894736" y="101.62105263157895"/>
    </contour>
  </outline>
</glyph>
<glyph name="equal" format="2">
  <advance width="565.3684210526316"/>
  <unicode hex="003D"/>
  <outline>
    <contour>
      <point x="47.48421052631579" y="155.64210526315787" type="line"/>
      <point x="108.70526315789473" y="156.99999999999997"/>
      <point x="177.49473684210528" y="158.3578947368421"/>
      <point x="216.43157894736842" y="158.7157894736842" type="curve"/>
      <point x="311.7789473684211" y="158.7157894736842" type="line"/>
      <point x="350.71578947368425" y="158.3578947368421"/>
      <point x="419.14736842105265" y="156.99999999999997"/>
      <point x="480.0105263157895" y="155.64210526315787" type="curve"/>
      <point x="493.63157894736844" y="220.42105263157896" type="line"/>
      <point x="432.58947368421053" y="219.06315789473686"/>
      <point x="362.9789473684211" y="217.70526315789473"/>
      <point x="324.0421052631579" y="217.34736842105264" type="curve"/>
      <point x="228.69473684210527" y="217.34736842105264" type="line"/>
      <point x="189.75789473684213" y="217.70526315789473"/>
      <point x="122.14736842105262" y="219.06315789473686"/>
      <point x="61.10526315789473" y="220.42105263157896" type="curve"/>
    </contour>
    <contour>
      <point x="92.63157894736842" y="374.58947368421053" type="line"/>
      <point x="153.85263157894735" y="375.94736842105266"/>
      <point x="222.6421052631579" y="377.30526315789473"/>
      <point x="261.57894736842104" y="377.66315789473686" type="curve"/>
      <point x="356.92631578947373" y="377.66315789473686" type="line"/>
      <point x="395.8631578947369" y="377.30526315789473"/>
      <point x="464.2947368421053" y="375.94736842105266"/>
      <point x="525.1578947368422" y="374.58947368421053" type="curve"/>
      <point x="538.7789473684212" y="439.36842105263156" type="line"/>
      <point x="477.7368421052632" y="438.01052631578943"/>
      <point x="408.1263157894737" y="436.65263157894736"/>
      <point x="369.18947368421055" y="436.29473684210524" type="curve"/>
      <point x="273.84210526315786" y="436.29473684210524" type="line"/>
      <point x="234.90526315789475" y="436.65263157894736"/>
      <point x="167.29473684210527" y="438.01052631578943"/>
      <point x="106.25263157894736" y="439.36842105263156" type="curve"/>
    </contour>
  </outline>
</glyph>
<glyph name="greater" format="2">
  <advance width="565.3684210526316"/>
  <unicode hex="003E"/>
  <outline>
    <contour>
      <point x="28.126315789473686" y="74.72631578947369" type="line"/>
      <point x="94.70526315789473" y="102.4421052631579"/>
      <point x="158.21052631578948" y="128.8"/>
      <point x="213.71578947368423" y="151.33684210526314" type="curve"/>
      <point x="321.2842105263158" y="194.18947368421053" type="line"/>
      <point x="374.9684210526316" y="214.83157894736843"/>
      <point x="438.6526315789473" y="239.29473684210524"/>
      <point x="503.87368421052633" y="263.11578947368423" type="curve"/>
      <point x="518.4947368421052" y="330.25263157894733" type="line"/>
      <point x="463.2736842105263" y="354.0736842105263"/>
      <point x="409.41052631578947" y="378.53684210526313"/>
      <point x="365.36842105263156" y="399.17894736842106" type="curve"/>
      <point x="275.0842105263158" y="442.0315789473684" type="line"/>
      <point x="229.7578947368421" y="464.56842105263155"/>
      <point x="176.61052631578949" y="491.7473684210526"/>
      <point x="122.03157894736842" y="518.6421052631579" type="curve"/>
      <point x="107.41052631578948" y="451.5052631578948" type="line"/>
      <point x="173.75789473684213" y="421.44210526315794"/>
      <point x="247.3157894736842" y="388.09473684210525"/>
      <point x="315.30526315789473" y="357.2105263157895" type="curve"/>
      <point x="425.3578947368421" y="304.4736842105263" type="line"/>
      <point x="423.17894736842106" y="296.6842105263158" type="line"/>
      <point x="291.8105263157895" y="244.30526315789476" type="line"/>
      <point x="210.61052631578946" y="213.60000000000002"/>
      <point x="122.8421052631579" y="180.25263157894736"/>
      <point x="43.28421052631579" y="150.3684210526316" type="curve"/>
    </contour>
  </outline>
</glyph>
<glyph name="at" format="2">
  <advance width="879.8315789473684"/>
  <unicode hex="0040"/>
  <outline>
    <contour>
      <point x="475.57894736842104" y="-128.26315789473685" type="curve" smooth="yes"/>
      <point x="539.9368421052632" y="-128.26315789473685"/>
      <point x="666.4000000000001" y="-84.51578947368421"/>
      <point x="757.9368421052632" y="-54.768421052631574" type="curve"/>
      <point x="757.9368421052632" y="0.6631578947368416" type="line"/>
      <point x="644.7894736842105" y="-42.231578947368426"/>
      <point x="523.7157894736843" y="-79.15789473684211"/>
      <point x="475.57894736842104" y="-81.33684210526316" type="curve"/>
      <point x="195.02105263157893" y="-77.97894736842106"/>
      <point x="69.52631578947367" y="117.3578947368421"/>
      <point x="115.2421052631579" y="333.89473684210526" type="curve" smooth="yes"/>
      <point x="157.09473684210525" y="532.0842105263158"/>
      <point x="294.7894736842105" y="619.9157894736842"/>
      <point x="470.57894736842104" y="623.2736842105263" type="curve"/>
      <point x="689.4947368421052" y="619.9157894736842"/>
      <point x="812.2736842105263" y="460.1894736842105"/>
      <point x="773.9894736842106" y="254.97894736842105" type="curve" smooth="yes"/>
      <point x="766.8842105263158" y="217.45263157894738"/>
      <point x="676.6526315789473" y="112.14736842105263"/>
      <point x="643.3684210526316" y="109.64210526315789" type="curve"/>
      <point x="591.4842105263158" y="112.82105263157894"/>
      <point x="570.1684210526315" y="140.56842105263158"/>
      <point x="584.0631578947368" y="209.14736842105262" type="curve"/>
      <point x="612.5894736842105" y="346.3157894736842" type="line"/>
      <point x="624.0210526315791" y="386.3578947368421"/>
      <point x="637.9157894736842" y="435.2526315789474"/>
      <point x="650.9894736842106" y="480.14736842105265" type="curve"/>
      <point x="594.2947368421052" y="476.2526315789474" type="line"/>
      <point x="578.7578947368421" y="421.2210526315789" type="line"/>
      <point x="572.3263157894737" y="421.2210526315789" type="line"/>
      <point x="537.5052631578947" y="451.65263157894736"/>
      <point x="479.62105263157895" y="485.9684210526316"/>
      <point x="438.37894736842105" y="485.9684210526316" type="curve" smooth="yes"/>
      <point x="344.7368421052632" y="485.9684210526316"/>
      <point x="273.06315789473683" y="413.9263157894737"/>
      <point x="249.9578947368421" y="302.5052631578947" type="curve" smooth="yes"/>
      <point x="224.77894736842106" y="182.17894736842106"/>
      <point x="272.9263157894737" y="71.92631578947369"/>
      <point x="391.42105263157896" y="71.92631578947369" type="curve" smooth="yes"/>
      <point x="422.9157894736842" y="71.92631578947369"/>
      <point x="477.8736842105263" y="102.67368421052632"/>
      <point x="523.4105263157895" y="141.42105263157896" type="curve"/>
      <point x="529.6631578947369" y="141.42105263157896" type="line"/>
      <point x="539.8842105263158" y="101.31578947368422"/>
      <point x="572.6842105263158" y="62.28421052631579"/>
      <point x="650.3684210526316" y="62.28421052631579" type="curve" smooth="yes"/>
      <point x="687.3368421052631" y="62.28421052631579"/>
      <point x="808.6315789473684" y="177.46315789473684"/>
      <point x="821.5263157894736" y="245.4" type="curve" smooth="yes"/>
      <point x="865.7789473684211" y="477.2315789473684"/>
      <point x="715.6631578947369" y="670.2"/>
      <point x="471.7578947368421" y="670.2" type="curve" smooth="yes"/>
      <point x="280.32631578947365" y="670.2"/>
      <point x="113.3157894736842" y="568.1263157894737"/>
      <point x="67.06315789473683" y="342.36842105263156" type="curve" smooth="yes"/>
      <point x="17.557894736842105" y="102.70526315789473"/>
      <point x="165.03157894736842" y="-128.26315789473685"/>
    </contour>
    <contour>
      <point x="404.5473684210526" y="123.57894736842105" type="curve"/>
      <point x="317.86315789473684" y="125.57894736842105"/>
      <point x="285.5157894736842" y="199.45263157894738"/>
      <point x="305.4736842105263" y="294.3157894736842" type="curve" smooth="yes"/>
      <point x="322.32631578947365" y="373.4736842105263"/>
      <point x="369.2421052631579" y="430.77894736842103"/>
      <point x="448.4315789473684" y="432.9578947368421" type="curve"/>
      <point x="481.7789473684211" y="431.6"/>
      <point x="529.8315789473685" y="405.4315789473684"/>
      <point x="563.5684210526316" y="377.2631578947369" type="curve"/>
      <point x="525.6842105263158" y="202.05263157894737" type="line"/>
      <point x="485.48421052631574" y="155.38947368421051"/>
      <point x="433.1473684210526" y="126.11578947368422"/>
    </contour>
  </outline>
</glyph>
<glyph name="A" format="2">
  <advance width="683.2105263157895"/>
  <unicode hex="0041"/>
  <anchor x="289.5157894736842" y="0.0" name="bottom"/>
  <anchor x="603.9368421052632" y="0.0" name="ogonek"/>
  <anchor x="439.1578947368421" y="713.0" name="top"/>
  <outline>
    <contour>
      <point x="-27.442105263157895" y="0.0" type="curve"/>
      <point x="62.652631578947364" y="0.0" type="line"/>
      <point x="109.74736842105261" y="86.52631578947368"/>
      <point x="159.84210526315792" y="177.9473684210526"/>
      <point x="206.1157894736842" y="262.8315789473684" type="curve"/>
      <point x="425.17894736842106" y="647.1157894736842" type="line"/>
      <point x="432.9684210526316" y="647.1157894736842" type="line"/>
      <point x="489.978947368421" y="261.65263157894736" type="line"/>
      <point x="500.40000000000003" y="178.58947368421053"/>
      <point x="512.2842105263159" y="83.24210526315788"/>
      <point x="522.7052631578947" y="0.0" type="curve"/>
      <point x="605.0105263157894" y="0.0" type="line"/>
      <point x="591.3684210526316" y="74.64210526315789"/>
      <point x="575.5473684210526" y="162.53684210526316"/>
      <point x="561.0842105263158" y="242.10526315789474" type="curve"/>
      <point x="523.021052631579" y="487.0" type="line"/>
      <point x="512.5263157894736" y="571.3578947368421"/>
      <point x="503.6736842105263" y="641.2842105263157"/>
      <point x="494.8210526315789" y="713.0" type="curve"/>
      <point x="386.4947368421053" y="713.0" type="line"/>
      <point x="345.6421052631578" y="639.0"/>
      <point x="308.6105263157895" y="571.8210526315789"/>
      <point x="262.1157894736843" y="487.82105263157894" type="curve"/>
      <point x="120.41052631578947" y="243.0" type="line"/>
      <point x="73.94736842105263" y="166.82105263157897"/>
      <point x="19.84210526315789" y="77.82105263157894"/>
    </contour>
    <contour>
      <point x="140.70526315789473" y="187.43157894736842" type="line"/>
      <point x="522.8210526315789" y="187.43157894736842" type="line"/>
      <point x="530.2526315789473" y="244.2736842105263" type="line"/>
      <point x="157.26315789473682" y="244.2736842105263" type="line"/>
    </contour>
  </outline>
</glyph>
<glyph name="B" format="2">
  <advance width="643.9885057471264"/>
  <unicode hex="0042"/>
  <outline>
    <contour>
      <point x="281.4712643678161" y="-2.5632183908045976" type="curve"/>
      <point x="496.2413793103448" y="-2.5632183908045976"/>
      <point x="562.6781609195402" y="69.2183908045977"/>
      <point x="584.8505747126437" y="174.12643678160921" type="curve" smooth="yes"/>
      <point x="607.4597701149426" y="283.17241379310343"/>
      <point x="545.8045977011495" y="340.735632183908"/>
      <point x="482.89655172413796" y="362.7356321839081" type="curve"/>
      <point x="484.89655172413796" y="370.6896551724138" type="line"/>
      <point x="561.0689655172414" y="392.7356321839081"/>
      <point x="616.632183908046" y="434.21839080459773"/>
      <point x="635.0229885057472" y="522.0" type="curve" smooth="yes"/>
      <point x="657.2413793103449" y="630.4827586206897"/>
      <point x="597.103448275862" y="715.1724137931035"/>
      <point x="435.3908045977012" y="715.1724137931035" type="curve"/>
      <point x="343.264367816092" y="715.1724137931035"/>
      <point x="266.2758620689656" y="713.0"/>
      <point x="192.3218390804598" y="713.0" type="curve"/>
      <point x="177.10344827586206" y="634.3908045977012"/>
      <point x="164.27586206896552" y="563.9540229885058"/>
      <point x="147.44827586206898" y="473.0" type="curve"/>
      <point x="97.05747126436782" y="236.4367816091954" type="line"/>
      <point x="76.49425287356323" y="148.6551724137931"/>
      <point x="61.10344827586208" y="81.4367816091954"/>
      <point x="42.321839080459775" y="0.0" type="curve"/>
      <point x="83.70114942528735" y="0.0"/>
      <point x="180.04597701149424" y="-2.5632183908045976"/>
    </contour>
    <contour>
      <point x="132.21839080459773" y="59.91954022988506" type="line"/>
      <point x="143.65517241379314" y="120.10344827586208"/>
      <point x="155.09195402298852" y="176.85057471264366"/>
      <point x="168.9195402298851" y="247.3793103448276" type="curve"/>
      <point x="214.62068965517244" y="463.6666666666667" type="line"/>
      <point x="230.83908045977014" y="534.1954022988506"/>
      <point x="243.6666666666667" y="590.9425287356322"/>
      <point x="257.8850574712644" y="653.0804597701149" type="curve"/>
      <point x="427.70114942528744" y="653.0804597701149" type="line" smooth="yes"/>
      <point x="532.6781609195402" y="653.0804597701149"/>
      <point x="580.2528735632184" y="604.8965517241379"/>
      <point x="562.3793103448276" y="519.3563218390805" type="curve" smooth="yes"/>
      <point x="546.7241379310345" y="445.5172413793103"/>
      <point x="486.58620689655174" y="390.5057471264368"/>
      <point x="365.7356321839081" y="390.5057471264368" type="curve" smooth="yes"/>
      <point x="183.5402298850575" y="390.5057471264368" type="line"/>
      <point x="171.0689655172414" y="332.7586206896552" type="line"/>
      <point x="359.26436781609203" y="332.7586206896552" type="line" smooth="yes"/>
      <point x="473.8045977011495" y="332.7586206896552"/>
      <point x="534.0344827586208" y="280.7931034482759"/>
      <point x="514.16091954023" y="184.5977011494253" type="curve" smooth="yes"/>
      <point x="496.50574712643686" y="98.49425287356323"/>
      <point x="434.10344827586204" y="59.91954022988506"/>
      <point x="285.7241379310345" y="59.91954022988506" type="curve" smooth="yes"/>
    </contour>
  </outline>
</glyph>
<glyph name="C" format="2">
  <advance width="685.1052631578947"/>
  <unicode hex="0043"/>
  <anchor x="347.38947368421054" y="0.0" name="bottom"/>
  <anchor x="489.17894736842106" y="713.0" name="top"/>
  <outline>
    <contour>
      <point x="381.89473684210526" y="-10.25263157894737" type="curve" smooth="yes"/>
      <point x="425.74736842105267" y="-10.25263157894737"/>
      <point x="524.863157894737" y="16.49473684210526"/>
      <point x="583.7894736842105" y="37.242105263157896" type="curve"/>
      <point x="592.2315789473685" y="113.34736842105262" type="line"/>
      <point x="519.4842105263159" y="79.60000000000001"/>
      <point x="420.6947368421052" y="52.27368421052631"/>
      <point x="389.1263157894737" y="52.27368421052631" type="curve"/>
      <point x="191.55789473684212" y="55.45263157894736"/>
      <point x="117.32631578947368" y="217.60000000000002"/>
      <point x="153.56842105263158" y="389.0631578947369" type="curve" smooth="yes"/>
      <point x="193.16842105263157" y="575.6736842105263"/>
      <point x="318.2526315789474" y="658.7578947368421"/>
      <point x="480.4526315789474" y="661.9368421052632" type="curve"/>
      <point x="506.66315789473686" y="661.9368421052632"/>
      <point x="605.7368421052632" y="634.2210526315789"/>
      <point x="700.3789473684211" y="599.684210526316" type="curve"/>
      <point x="721.8631578947369" y="669.5052631578948" type="line"/>
      <point x="657.3157894736842" y="689.578947368421"/>
      <point x="533.3157894736842" y="725.7157894736843"/>
      <point x="486.5684210526316" y="725.7157894736843" type="curve" smooth="yes"/>
      <point x="276.5157894736842" y="725.7157894736843"/>
      <point x="127.73684210526315" y="612.7157894736843"/>
      <point x="82.9157894736842" y="399.7157894736842" type="curve" smooth="yes"/>
      <point x="38.199999999999996" y="187.95789473684212"/>
      <point x="142.77894736842106" y="-10.25263157894737"/>
    </contour>
  </outline>
</glyph>
<glyph name="D" format="2">
  <advance width="738.2842105263159"/>
  <unicode hex="0044"/>
  <anchor x="298.7157894736842" y="0.0" name="bottom"/>
  <anchor x="392.871" y="357.0" name="center"/>
  <anchor x="448.7157894736842" y="713.0" name="top"/>
  <outline>
    <contour>
      <point x="42.221052631578935" y="0.0" type="curve"/>
      <point x="128.4" y="0.0"/>
      <point x="194.73684210526312" y="-2.431578947368421"/>
      <point x="288.6421052631579" y="-2.431578947368421" type="curve"/>
      <point x="554.6526315789474" y="-2.431578947368421"/>
      <point x="661.5473684210526" y="129.17894736842103"/>
      <point x="704.1894736842105" y="332.6421052631579" type="curve" smooth="yes"/>
      <point x="746.3684210526316" y="535.6105263157895"/>
      <point x="642.6526315789474" y="715.0736842105263"/>
      <point x="407.87368421052633" y="715.0736842105263" type="curve"/>
      <point x="336.2105263157895" y="715.0736842105263"/>
      <point x="272.5052631578947" y="713.0"/>
      <point x="192.22105263157894" y="713.0" type="curve"/>
      <point x="177.29473684210527" y="634.3578947368421"/>
      <point x="164.3684210526316" y="563.9684210526316"/>
      <point x="147.26315789473682" y="473.17894736842106" type="curve"/>
      <point x="96.90526315789472" y="236.38947368421051" type="line"/>
      <point x="76.47368421052632" y="148.49473684210525"/>
      <point x="60.93684210526315" y="81.38947368421053"/>
    </contour>
    <contour>
      <point x="132.99999999999997" y="59.98947368421052" type="line"/>
      <point x="144.38947368421051" y="120.47368421052632"/>
      <point x="156.13684210526316" y="178.10526315789477"/>
      <point x="169.70526315789473" y="248.2" type="curve"/>
      <point x="215.2315789473684" y="463.90526315789475" type="line"/>
      <point x="231.33684210526317" y="534.5368421052632"/>
      <point x="244.26315789473685" y="591.6315789473684"/>
      <point x="258.18947368421055" y="653.0105263157894" type="curve"/>
      <point x="390.9263157894737" y="653.0105263157894" type="line"/>
      <point x="597.9789473684211" y="649.4736842105262"/>
      <point x="668.4210526315791" y="507.40000000000003"/>
      <point x="632.821052631579" y="341.9684210526316" type="curve" smooth="yes"/>
      <point x="596.5789473684212" y="169.0421052631579"/>
      <point x="518.8842105263159" y="63.705263157894734"/>
      <point x="293.5789473684211" y="59.98947368421052" type="curve"/>
    </contour>
  </outline>
</glyph>
<glyph name="E" format="2">
  <advance width="593.344827586207"/>
  <unicode hex="0045"/>
  <anchor x="264.8735632183908" y="0.0" name="bottom"/>
  <anchor x="481.47126436781605" y="0.0" name="ogonek"/>
  <anchor x="414.8735632183908" y="713.0" name="top"/>
  <anchor x="135.0" y="713.0" name="topleft"/>
  <outline>
    <contour>
      <point x="42.321839080459775" y="0.0" type="curve"/>
      <point x="122.31034482758622" y="0.0" type="line"/>
      <point x="124.87356321839081" y="10.25287356321839" type="line"/>
      <point x="139.70114942528738" y="89.6896551724138"/>
      <point x="151.9195402298851" y="158.6896551724138"/>
      <point x="168.74712643678163" y="246.68965517241378" type="curve"/>
      <point x="215.01149425287358" y="465.35632183908046" type="line"/>
      <point x="235.57471264367817" y="554.528735632184"/>
      <point x="251.96551724137933" y="623.1379310344828"/>
      <point x="270.7471264367816" y="703.3563218390805" type="curve"/>
      <point x="272.3103448275862" y="713.0" type="line"/>
      <point x="192.3218390804598" y="713.0" type="line"/>
      <point x="177.10344827586206" y="634.3908045977012"/>
      <point x="164.27586206896552" y="563.9540229885058"/>
      <point x="147.44827586206898" y="473.0" type="curve"/>
      <point x="97.05747126436782" y="236.4367816091954" type="line"/>
      <point x="76.49425287356323" y="148.6551724137931"/>
      <point x="61.10344827586208" y="81.4367816091954"/>
    </contour>
    <contour>
      <point x="107.05747126436782" y="0.0" type="line"/>
      <point x="482.2528735632184" y="0.0" type="line"/>
      <point x="496.67816091954023" y="68.2183908045977" type="line"/>
      <point x="422.8045977011495" y="66.4367816091954"/>
      <point x="343.5402298850575" y="63.65517241379311"/>
      <point x="254.44827586206895" y="61.48275862068966" type="curve"/>
      <point x="120.3103448275862" y="61.48275862068966" type="line"/>
    </contour>
    <contour>
      <point x="171.06896551724137" y="331.7586206896552" type="line"/>
      <point x="311.1609195402299" y="331.7586206896552" type="line"/>
      <point x="402.42528735632186" y="330.97701149425285"/>
      <point x="463.86206896551727" y="329.5862068965517"/>
      <point x="530.5172413793103" y="329.1954022988506" type="curve"/>
      <point x="544.551724137931" y="396.2413793103448" type="line"/>
      <point x="481.11494252873564" y="394.8505747126437"/>
      <point x="417.6781609195403" y="393.45977011494256"/>
      <point x="325.02298850574715" y="391.67816091954023" type="curve"/>
      <point x="183.9310344827586" y="391.67816091954023" type="line"/>
    </contour>
    <contour>
      <point x="240.67816091954023" y="651.5172413793103" type="line"/>
      <point x="371.59770114942535" y="651.5172413793103" type="line"/>
      <point x="476.51724137931035" y="649.3448275862069"/>
      <point x="549.3908045977012" y="646.5632183908045"/>
      <point x="618.0459770114943" y="644.7816091954023" type="curve"/>
      <point x="632.080459770115" y="713.0" type="line"/>
      <point x="253.93103448275863" y="713.0" type="line"/>
    </contour>
  </outline>
</glyph>
<glyph name="F" format="2">
  <advance width="573.6842105263158"/>
  <unicode hex="0046"/>
  <outline>
    <contour>
      <point x="42.221052631578935" y="0.0" type="curve"/>
      <point x="122.34736842105265" y="0.0" type="line"/>
      <point x="137.27368421052634" y="79.74736842105263"/>
      <point x="149.20000000000002" y="146.21052631578948"/>
      <point x="166.1263157894737" y="236.38947368421051" type="curve"/>
      <point x="214.87368421052633" y="465.2" type="line"/>
      <point x="235.30526315789476" y="554.4526315789474"/>
      <point x="252.20000000000002" y="623.0947368421052"/>
      <point x="270.91578947368424" y="703.3789473684211" type="curve"/>
      <point x="272.34736842105264" y="713.0" type="line"/>
      <point x="192.22105263157894" y="713.0" type="line"/>
      <point x="177.29473684210527" y="634.3578947368421"/>
      <point x="164.3684210526316" y="563.9684210526316"/>
      <point x="147.26315789473682" y="473.17894736842106" type="curve"/>
      <point x="96.90526315789472" y="236.38947368421051" type="line"/>
      <point x="76.47368421052632" y="148.49473684210525"/>
      <point x="60.93684210526315" y="81.38947368421053"/>
    </contour>
    <contour>
      <point x="169.52631578947367" y="328.7473684210526" type="line"/>
      <point x="301.37894736842105" y="328.7473684210526" type="line"/>
      <point x="392.5157894736842" y="327.85263157894735"/>
      <point x="453.72631578947363" y="326.4947368421052"/>
      <point x="520.578947368421" y="325.9578947368421" type="curve"/>
      <point x="534.5578947368422" y="393.34736842105264" type="line"/>
      <point x="471.16842105263163" y="391.98947368421057"/>
      <point x="407.95789473684215" y="390.4526315789474"/>
      <point x="315.10526315789474" y="388.7368421052632" type="curve"/>
      <point x="182.43157894736842" y="388.7368421052632" type="line"/>
    </contour>
    <contour>
      <point x="239.8842105263158" y="651.4" type="line"/>
      <point x="362.4842105263158" y="651.4" type="line"/>
      <point x="467.8315789473684" y="649.1473684210526"/>
      <point x="540.4315789473684" y="646.6105263157893"/>
      <point x="608.9263157894736" y="644.8947368421052" type="curve"/>
      <point x="622.9052631578948" y="713.0" type="line"/>
      <point x="253.14736842105262" y="713.0" type="line"/>
    </contour>
  </outline>
</glyph>
<glyph name="G" format="2">
  <advance width="734.3157894736842"/>
  <unicode hex="0047"/>
  <anchor x="347.38947368421054" y="0.0" name="bottom"/>
  <anchor x="497.38947368421054" y="713.0" name="top"/>
  <outline>
    <contour>
      <point x="399.0736842105263" y="-10.073684210526316" type="curve" smooth="yes"/>
      <point x="450.3263157894736" y="-10.073684210526316"/>
      <point x="555.0421052631579" y="13.673684210526316"/>
      <point x="620.2947368421052" y="31.88421052631579" type="curve"/>
      <point x="619.5473684210525" y="102.91578947368421" type="line"/>
      <point x="542.3684210526317" y="74.34736842105261"/>
      <point x="436.0421052631579" y="51.37894736842105"/>
      <point x="402.7578947368421" y="51.37894736842105" type="curve"/>
      <point x="185.34736842105264" y="54.5578947368421"/>
      <point x="116.61052631578947" y="216.5263157894737"/>
      <point x="153.21052631578948" y="389.42105263157896" type="curve" smooth="yes"/>
      <point x="193.81052631578947" y="579.8526315789474"/>
      <point x="319.4736842105263" y="658.9368421052632"/>
      <point x="480.59999999999997" y="661.9368421052632" type="curve"/>
      <point x="508.63157894736844" y="661.9368421052632"/>
      <point x="613.7052631578946" y="630.1157894736842"/>
      <point x="713.7052631578947" y="589.6526315789474" type="curve"/>
      <point x="735.1894736842105" y="659.4736842105264" type="line"/>
      <point x="665.2105263157895" y="682.8315789473685"/>
      <point x="530.957894736842" y="725.7157894736843"/>
      <point x="480.85263157894735" y="725.7157894736843" type="curve" smooth="yes"/>
      <point x="271.5578947368421" y="725.7157894736843"/>
      <point x="128.09473684210525" y="612.5052631578948"/>
      <point x="82.9157894736842" y="399.7157894736842" type="curve" smooth="yes"/>
      <point x="37.73684210526315" y="186.2842105263158"/>
      <point x="137.81052631578947" y="-10.073684210526316"/>
    </contour>
    <contour>
      <point x="546.1789473684211" y="31.88421052631579" type="curve"/>
      <point x="620.2947368421052" y="31.88421052631579" type="line"/>
      <point x="633.1157894736842" y="99.67368421052632"/>
      <point x="641.9368421052632" y="149.46315789473684"/>
      <point x="651.9368421052632" y="201.25263157894736" type="curve"/>
      <point x="667.1894736842105" y="262.6842105263158"/>
      <point x="678.4421052631578" y="306.11578947368423"/>
      <point x="690.5157894736841" y="354.7263157894737" type="curve"/>
      <point x="610.7157894736843" y="354.7263157894737" type="line"/>
      <point x="602.4315789473685" y="306.11578947368423"/>
      <point x="594.9684210526317" y="262.6842105263158"/>
      <point x="584.6842105263158" y="201.25263157894736" type="curve"/>
      <point x="572.7894736842105" y="149.46315789473684"/>
      <point x="561.0736842105263" y="97.38947368421054"/>
    </contour>
  </outline>
</glyph>
<glyph name="H" format="2">
  <advance width="751.9684210526316"/>
  <unicode hex="0048"/>
  <anchor x="323.89473684210526" y="0.0" name="bottom"/>
  <anchor x="398.89473684210526" y="357.0" name="center"/>
  <anchor x="473.89473684210526" y="713.0" name="top"/>
  <anchor x="135.0736842105263" y="713.0" name="topleft"/>
  <outline>
    <contour>
      <point x="524.1894736842105" y="0.0" type="curve"/>
      <point x="605.3894736842105" y="0.0" type="line"/>
      <point x="620.1368421052632" y="79.38947368421053"/>
      <point x="632.2421052631579" y="145.85263157894735"/>
      <point x="649.1684210526316" y="236.38947368421051" type="curve"/>
      <point x="699.5263157894738" y="473.17894736842106" type="line"/>
      <point x="720.9578947368421" y="564.6105263157895"/>
      <point x="736.6736842105264" y="632.7157894736843"/>
      <point x="755.3894736842105" y="713.0" type="curve"/>
      <point x="674.1894736842105" y="713.0" type="line"/>
      <point x="659.2631578947368" y="634.3578947368421"/>
      <point x="646.3368421052633" y="563.9684210526316"/>
      <point x="629.2315789473685" y="473.17894736842106" type="curve"/>
      <point x="578.8736842105263" y="236.38947368421051" type="line"/>
      <point x="558.4421052631579" y="148.49473684210525"/>
      <point x="542.9052631578946" y="81.38947368421053"/>
    </contour>
    <contour>
      <point x="42.221052631578935" y="0.0" type="curve"/>
      <point x="123.42105263157895" y="0.0" type="line"/>
      <point x="138.16842105263157" y="79.38947368421053"/>
      <point x="150.27368421052634" y="145.85263157894735"/>
      <point x="167.2" y="236.38947368421051" type="curve"/>
      <point x="217.5578947368421" y="473.17894736842106" type="line"/>
      <point x="238.9894736842105" y="564.6105263157895"/>
      <point x="254.70526315789473" y="632.7157894736843"/>
      <point x="273.42105263157896" y="713.0" type="curve"/>
      <point x="192.22105263157894" y="713.0" type="line"/>
      <point x="177.29473684210527" y="634.3578947368421"/>
      <point x="164.3684210526316" y="563.9684210526316"/>
      <point x="147.26315789473682" y="473.17894736842106" type="curve"/>
      <point x="96.90526315789472" y="236.38947368421051" type="line"/>
      <point x="76.47368421052632" y="148.49473684210525"/>
      <point x="60.93684210526315" y="81.38947368421053"/>
    </contour>
    <contour>
      <point x="159.0" y="330.7157894736842" type="line"/>
      <point x="629.6315789473684" y="330.7157894736842" type="line"/>
      <point x="643.0736842105263" y="392.3157894736842" type="line"/>
      <point x="172.44210526315788" y="392.3157894736842" type="line"/>
    </contour>
  </outline>
</glyph>
<glyph name="I" format="2">
  <advance width="272.6842105263158"/>
  <unicode hex="0049"/>
  <anchor x="82.94736842105264" y="0.0" name="bottom"/>
  <anchor x="124.3157894736842" y="0.0" name="ogonek"/>
  <anchor x="232.94736842105263" y="713.0" name="top"/>
  <anchor x="133.7473684210526" y="713.0" name="topleft"/>
  <outline>
    <contour>
      <point x="43.11578947368421" y="0.0" type="curve"/>
      <point x="125.21052631578947" y="0.0" type="line"/>
      <point x="139.9578947368421" y="79.38947368421053"/>
      <point x="152.06315789473683" y="145.85263157894735"/>
      <point x="168.9894736842105" y="236.38947368421051" type="curve"/>
      <point x="219.3473684210526" y="473.17894736842106" type="line"/>
      <point x="240.77894736842103" y="564.6105263157895"/>
      <point x="256.4947368421053" y="632.7157894736843"/>
      <point x="275.2105263157895" y="713.0" type="curve"/>
      <point x="193.1157894736842" y="713.0" type="line"/>
      <point x="178.18947368421053" y="634.3578947368421"/>
      <point x="165.26315789473685" y="563.9684210526316"/>
      <point x="148.15789473684208" y="473.17894736842106" type="curve"/>
      <point x="97.8" y="236.38947368421051" type="line"/>
      <point x="77.36842105263159" y="148.49473684210525"/>
      <point x="61.83157894736843" y="81.38947368421053"/>
    </contour>
  </outline>
</glyph>
<glyph name="J" format="2">
  <advance width="286.38947368421054"/>
  <unicode hex="004A"/>
  <anchor x="96.54736842105262" y="0.0" name="bottom"/>
  <anchor x="246.54736842105262" y="713.0" name="top"/>
  <outline>
    <contour>
      <point x="-62.47368421052632" y="-158.56842105263158" type="curve"/>
      <point x="13.557894736842101" y="-158.56842105263158" type="line"/>
      <point x="51.27368421052631" y="-107.46315789473685"/>
      <point x="139.8421052631579" y="16.13684210526316"/>
      <point x="145.16842105263157" y="42.873684210526314" type="curve" smooth="yes"/>
      <point x="162.5263157894737" y="122.37894736842105"/>
      <point x="175.9157894736842" y="204.60000000000002"/>
      <point x="193.6315789473684" y="288.178947368421" type="curve"/>
      <point x="233.05263157894737" y="473.17894736842106" type="line"/>
      <point x="254.4842105263158" y="564.6105263157895"/>
      <point x="270.20000000000005" y="632.7157894736843"/>
      <point x="288.91578947368424" y="713.0" type="curve"/>
      <point x="207.7157894736842" y="713.0" type="line"/>
      <point x="192.78947368421052" y="634.3578947368421"/>
      <point x="179.86315789473684" y="563.9684210526316"/>
      <point x="162.7578947368421" y="473.17894736842106" type="curve"/>
      <point x="117.58947368421052" y="261.0842105263158" type="line"/>
      <point x="67.54736842105261" y="40.76842105263159" type="line"/>
      <point x="16.305263157894725" y="-37.12631578947368"/>
      <point x="-21.442105263157888" y="-95.8842105263158"/>
    </contour>
  </outline>
</glyph>
<glyph name="K" format="2">
  <advance width="664.2105263157894"/>
  <unicode hex="004B"/>
  <anchor x="287.69473684210527" y="0.0" name="bottom"/>
  <anchor x="437.69473684210527" y="713.0" name="top"/>
  <outline>
    <contour>
      <point x="489.0210526315789" y="0.0" type="curve"/>
      <point x="586.7263157894737" y="0.0" type="line"/>
      <point x="536.021052631579" y="60.61052631578947"/>
      <point x="455.6421052631579" y="156.65263157894736"/>
      <point x="395.83157894736837" y="228.26315789473685" type="curve"/>
      <point x="270.0" y="385.09473684210525" type="line"/>
      <point x="271.2842105263158" y="350.9894736842105" type="line"/>
      <point x="439.2631578947368" y="490.3157894736842" type="line"/>
      <point x="529.4315789473685" y="562.5684210526316"/>
      <point x="620.2421052631578" y="635.2842105263157"/>
      <point x="717.5157894736841" y="713.0" type="curve"/>
      <point x="609.5578947368422" y="713.0" type="line"/>
      <point x="518.978947368421" y="636.9368421052632"/>
      <point x="457.56842105263155" y="583.9052631578948"/>
      <point x="387.58947368421053" y="524.4105263157895" type="curve"/>
      <point x="233.45263157894738" y="398.0315789473684" type="line"/>
      <point x="191.98947368421054" y="398.0315789473684" type="line"/>
      <point x="179.26315789473685" y="338.7578947368421" type="line"/>
      <point x="220.62105263157895" y="338.7578947368421" type="line"/>
      <point x="341.57894736842104" y="188.8421052631579" type="line"/>
      <point x="386.34736842105264" y="130.98947368421054"/>
      <point x="433.40000000000003" y="71.3157894736842"/>
    </contour>
    <contour>
      <point x="42.221052631578935" y="0.0" type="curve"/>
      <point x="123.24210526315791" y="0.0" type="line"/>
      <point x="137.98947368421054" y="79.38947368421053"/>
      <point x="150.09473684210528" y="145.85263157894735"/>
      <point x="167.02105263157895" y="236.38947368421051" type="curve"/>
      <point x="217.37894736842105" y="473.17894736842106" type="line"/>
      <point x="238.81052631578947" y="564.6105263157895"/>
      <point x="254.5263157894737" y="632.7157894736843"/>
      <point x="273.2421052631579" y="713.0" type="curve"/>
      <point x="192.22105263157894" y="713.0" type="line"/>
      <point x="177.29473684210527" y="634.3578947368421"/>
      <point x="164.3684210526316" y="563.9684210526316"/>
      <point x="147.26315789473682" y="473.17894736842106" type="curve"/>
      <point x="96.90526315789472" y="236.38947368421051" type="line"/>
      <point x="76.47368421052632" y="148.49473684210525"/>
      <point x="60.93684210526315" y="81.38947368421053"/>
    </contour>
  </outline>
</glyph>
<glyph name="M" format="2">
  <advance width="954.578947368421"/>
  <unicode hex="004D"/>
  <anchor x="424.61052631578946" y="0.0" name="bottom"/>
  <anchor x="574.6105263157895" y="713.0" name="top"/>
  <outline>
    <contour>
      <point x="12.905263157894732" y="0.0" type="curve"/>
      <point x="93.06315789473686" y="0.0" type="line"/>
      <point x="133.97894736842107" y="129.75789473684213"/>
      <point x="173.25263157894736" y="254.5157894736842"/>
      <point x="206.42105263157896" y="359.3157894736842" type="curve"/>
      <point x="280.2631578947368" y="584.5894736842105" type="line"/>
      <point x="285.58947368421053" y="584.5894736842105" type="line"/>
      <point x="335.0736842105263" y="339.82105263157894" type="line"/>
      <point x="355.59999999999997" y="225.63157894736838"/>
      <point x="378.41052631578947" y="96.58947368421053"/>
      <point x="395.65263157894736" y="0.0" type="curve"/>
      <point x="456.3578947368421" y="0.0" type="line"/>
      <point x="516.9473684210526" y="100.51578947368421"/>
      <point x="590.8526315789475" y="223.63157894736838"/>
      <point x="661.6526315789474" y="341.46315789473687" type="curve"/>
      <point x="810.7894736842106" y="584.5894736842105" type="line"/>
      <point x="816.1157894736842" y="584.5894736842105" type="line"/>
      <point x="796.0842105263158" y="359.3157894736842" type="line"/>
      <point x="783.9052631578948" y="253.05263157894737"/>
      <point x="770.7263157894737" y="133.22105263157894"/>
      <point x="755.7263157894737" y="0.0" type="curve"/>
      <point x="836.4947368421052" y="0.0" type="line"/>
      <point x="842.2421052631579" y="79.56842105263158"/>
      <point x="847.1684210526315" y="150.21052631578948"/>
      <point x="852.9157894736842" y="236.38947368421051" type="curve"/>
      <point x="874.378947368421" y="472.82105263157894" type="line"/>
      <point x="884.0947368421052" y="560.4631578947368"/>
      <point x="891.8105263157895" y="631.7157894736843"/>
      <point x="900.3473684210526" y="713.0" type="curve"/>
      <point x="815.6842105263158" y="713.0" type="line"/>
      <point x="750.9157894736842" y="605.3052631578947"/>
      <point x="692.9684210526315" y="508.14736842105265"/>
      <point x="632.1999999999999" y="406.9894736842105" type="curve"/>
      <point x="450.0315789473684" y="112.62105263157895" type="line"/>
      <point x="444.06315789473683" y="112.62105263157895" type="line"/>
      <point x="386.11578947368423" y="406.9894736842105" type="line"/>
      <point x="368.5157894736842" y="507.32631578947365"/>
      <point x="351.0947368421053" y="605.8421052631579"/>
      <point x="332.6736842105263" y="713.0" type="curve"/>
      <point x="250.4421052631579" y="713.0" type="line"/>
      <point x="225.33684210526317" y="631.7157894736843"/>
      <point x="202.69473684210527" y="558.0"/>
      <point x="176.41052631578947" y="472.82105263157894" type="curve"/>
      <point x="97.87368421052632" y="236.38947368421051" type="line"/>
      <point x="66.97894736842106" y="149.74736842105264"/>
      <point x="41.084210526315786" y="79.21052631578948"/>
    </contour>
  </outline>
</glyph>
<glyph name="N" format="2">
  <advance width="760.1052631578947"/>
  <unicode hex="004E"/>
  <anchor x="326.82105263157894" y="0.0" name="bottom"/>
  <anchor x="476.82105263157894" y="713.0" name="top"/>
  <outline>
    <contour>
      <point x="42.221052631578935" y="0.0" type="curve"/>
      <point x="120.37894736842107" y="0.0" type="line"/>
      <point x="135.1263157894737" y="79.38947368421053"/>
      <point x="147.23157894736843" y="145.85263157894735"/>
      <point x="164.1578947368421" y="236.38947368421051" type="curve"/>
      <point x="240.81052631578947" y="600.6947368421053" type="line"/>
      <point x="246.95789473684206" y="600.6947368421053" type="line"/>
      <point x="362.82105263157894" y="364.2105263157894" type="line"/>
      <point x="429.9789473684211" y="223.06315789473683"/>
      <point x="484.9263157894736" y="107.05263157894737"/>
      <point x="535.1263157894737" y="0.0" type="curve"/>
      <point x="611.0631578947368" y="0.0" type="line"/>
      <point x="625.8105263157895" y="79.38947368421053"/>
      <point x="637.9157894736842" y="145.85263157894735"/>
      <point x="654.8421052631579" y="236.38947368421051" type="curve"/>
      <point x="705.2" y="473.17894736842106" type="line"/>
      <point x="726.6315789473684" y="564.6105263157895"/>
      <point x="742.3473684210527" y="632.7157894736843"/>
      <point x="761.0631578947368" y="713.0" type="curve"/>
      <point x="682.9052631578948" y="713.0" type="line"/>
      <point x="667.978947368421" y="634.3578947368421"/>
      <point x="655.0526315789475" y="563.9684210526316"/>
      <point x="637.9473684210527" y="473.17894736842106" type="curve"/>
      <point x="561.6526315789474" y="115.58947368421053" type="line"/>
      <point x="555.3263157894737" y="115.58947368421053" type="line"/>
      <point x="440.82105263157894" y="350.2526315789474" type="line"/>
      <point x="386.41052631578947" y="465.72631578947374"/>
      <point x="330.82105263157894" y="583.9157894736842"/>
      <point x="270.4105263157894" y="713.0" type="curve"/>
      <point x="192.22105263157894" y="713.0" type="line"/>
      <point x="177.29473684210527" y="634.3578947368421"/>
      <point x="164.3684210526316" y="563.9684210526316"/>
      <point x="147.26315789473682" y="473.17894736842106" type="curve"/>
      <point x="96.90526315789472" y="236.38947368421051" type="line"/>
      <point x="76.47368421052632" y="148.49473684210525"/>
      <point x="60.93684210526315" y="81.38947368421053"/>
    </contour>
  </outline>
</glyph>
<glyph name="O" format="2">
  <advance width="817.5684210526316"/>
  <unicode hex="004F"/>
  <anchor x="357.10526315789474" y="0.0" name="bottom"/>
  <anchor x="432.10526315789474" y="357.0" name="center"/>
  <anchor x="473.6631578947368" y="0.0" name="ogonek"/>
  <anchor x="507.10526315789474" y="713.0" name="top"/>
  <anchor x="125.10526315789474" y="713.0" name="topleft"/>
  <anchor x="791.357894736842" y="713.0" name="topright"/>
  <outline>
    <contour>
      <point x="402.46315789473687" y="-10.25263157894737" type="curve" smooth="yes"/>
      <point x="596.7263157894737" y="-10.25263157894737"/>
      <point x="738.4736842105262" y="120.64210526315789"/>
      <point x="778.8315789473684" y="310.07368421052627" type="curve" smooth="yes"/>
      <point x="826.0105263157894" y="530.6105263157895"/>
      <point x="701.5473684210526" y="725.7157894736843"/>
      <point x="466.67368421052635" y="725.7157894736843" type="curve" smooth="yes"/>
      <point x="269.12631578947367" y="725.7157894736843"/>
      <point x="125.73684210526315" y="598.0736842105263"/>
      <point x="82.09473684210526" y="394.7894736842106" type="curve" smooth="yes"/>
      <point x="36.094736842105256" y="177.61052631578949"/>
      <point x="162.51578947368424" y="-10.25263157894737"/>
    </contour>
    <contour>
      <point x="403.17894736842106" y="52.27368421052631" type="curve"/>
      <point x="219.7263157894737" y="57.705263157894734"/>
      <point x="112.86315789473684" y="194.0"/>
      <point x="152.92631578947368" y="384.4947368421052" type="curve" smooth="yes"/>
      <point x="188.5263157894737" y="548.1052631578947"/>
      <point x="292.61052631578946" y="658.1157894736841"/>
      <point x="466.13684210526316" y="663.1894736842105" type="curve"/>
      <point x="648.1999999999999" y="657.757894736842"/>
      <point x="748.3473684210527" y="512.5368421052631"/>
      <point x="707.642105263158" y="320.29473684210524" type="curve" smooth="yes"/>
      <point x="676.7894736842106" y="169.56842105263158"/>
      <point x="572.7052631578947" y="56.98947368421052"/>
    </contour>
  </outline>
</glyph>
<glyph name="P" format="2">
  <advance width="622.1149425287357"/>
  <unicode hex="0050"/>
  <outline>
    <contour>
      <point x="343.45977011494256" y="292.0229885057471" type="curve"/>
      <point x="542.5977011494253" y="292.0229885057471"/>
      <point x="603.4597701149426" y="365.1954022988505"/>
      <point x="630.2413793103449" y="493.0574712643678" type="curve" smooth="yes"/>
      <point x="658.5862068965517" y="628.5632183908045"/>
      <point x="587.2873563218391" y="715.1724137931035"/>
      <point x="427.816091954023" y="715.1724137931035" type="curve"/>
      <point x="323.0" y="714.3908045977012"/>
      <point x="251.01149425287358" y="713.3908045977012"/>
      <point x="192.3218390804598" y="713.0" type="curve"/>
      <point x="242.71264367816093" y="653.0804597701149" type="line"/>
      <point x="415.6091954022989" y="653.0804597701149" type="line" smooth="yes"/>
      <point x="491.62068965517244" y="653.0804597701149"/>
      <point x="586.6436781609195" y="627.2988505747127"/>
      <point x="558.9425287356322" y="498.44827586206895" type="curve" smooth="yes"/>
      <point x="535.4597701149426" y="385.2068965517241"/>
      <point x="479.0574712643678" y="352.7241379310345"/>
      <point x="342.16091954022994" y="352.7241379310345" type="curve" smooth="yes"/>
      <point x="182.01149425287358" y="352.7241379310345" type="line"/>
      <point x="169.14942528735634" y="293.41379310344826" type="line"/>
      <point x="209.14942528735634" y="293.41379310344826"/>
      <point x="292.8505747126437" y="292.41379310344826"/>
    </contour>
    <contour>
      <point x="42.321839080459775" y="0.0" type="curve"/>
      <point x="122.70114942528735" y="0.0" type="line"/>
      <point x="137.91954022988506" y="79.82758620689656"/>
      <point x="149.7471264367816" y="146.82758620689654"/>
      <point x="166.57471264367817" y="236.4367816091954" type="curve"/>
      <point x="215.4022988505747" y="465.35632183908046" type="line"/>
      <point x="235.96551724137933" y="554.528735632184"/>
      <point x="252.7471264367816" y="623.1379310344828"/>
      <point x="271.5287356321839" y="703.3563218390805" type="curve"/>
      <point x="192.3218390804598" y="713.0" type="line"/>
      <point x="177.10344827586206" y="634.3908045977012"/>
      <point x="164.27586206896552" y="563.9540229885058"/>
      <point x="147.44827586206898" y="473.0" type="curve"/>
      <point x="97.05747126436782" y="236.4367816091954" type="line"/>
      <point x="76.49425287356323" y="148.6551724137931"/>
      <point x="61.10344827586208" y="81.4367816091954"/>
    </contour>
  </outline>
</glyph>
<glyph name="R" format="2">
  <advance width="668.3333333333334"/>
  <unicode hex="0052"/>
  <anchor x="282.47126436781605" y="0.0" name="bottom"/>
  <anchor x="420.89655172413796" y="713.0" name="top"/>
  <outline>
    <contour>
      <point x="494.4252873563218" y="0.0" type="curve"/>
      <point x="586.9310344827586" y="0.0" type="line"/>
      <point x="550.0574712643678" y="56.0"/>
      <point x="495.9655172413794" y="138.17241379310346"/>
      <point x="453.0919540229886" y="202.95402298850576" type="curve"/>
      <point x="364.6896551724138" y="343.735632183908" type="line"/>
      <point x="341.9770114942529" y="312.05747126436785" type="line"/>
      <point x="535.7241379310345" y="310.448275862069"/>
      <point x="598.5862068965519" y="381.44827586206895"/>
      <point x="623.9770114942529" y="501.7931034482759" type="curve" smooth="yes"/>
      <point x="650.9310344827587" y="627.9540229885058"/>
      <point x="578.8505747126437" y="715.1724137931035"/>
      <point x="418.98850574712645" y="715.1724137931035" type="curve"/>
      <point x="320.4252873563219" y="714.7816091954023"/>
      <point x="252.96551724137927" y="713.3908045977012"/>
      <point x="192.3218390804598" y="713.0" type="curve"/>
      <point x="232.1609195402299" y="653.0804597701149" type="line"/>
      <point x="407.1724137931035" y="653.0804597701149" type="line" smooth="yes"/>
      <point x="483.1839080459771" y="653.0804597701149"/>
      <point x="577.2068965517242" y="628.2528735632184"/>
      <point x="551.1149425287357" y="505.2298850574713" type="curve" smooth="yes"/>
      <point x="526.8505747126437" y="390.9080459770115"/>
      <point x="468.2758620689656" y="359.5977011494253"/>
      <point x="332.9425287356322" y="359.5977011494253" type="curve" smooth="yes"/>
      <point x="178.8850574712644" y="359.5977011494253" type="line"/>
      <point x="166.02298850574715" y="300.28735632183907" type="line"/>
      <point x="333.36781609195407" y="300.28735632183907" type="line"/>
      <point x="295.1724137931035" y="334.7356321839081" type="line"/>
      <point x="392.74712643678157" y="172.9655172413793" type="line"/>
      <point x="425.71264367816093" y="117.0919540229885"/>
      <point x="459.06896551724134" y="60.82758620689655"/>
    </contour>
    <contour>
      <point x="42.321839080459775" y="0.0" type="curve"/>
      <point x="123.09195402298852" y="0.0" type="line"/>
      <point x="137.91954022988506" y="79.82758620689656"/>
      <point x="149.74712643678166" y="146.04597701149424"/>
      <point x="166.57471264367817" y="236.4367816091954" type="curve"/>
      <point x="215.40229885057474" y="465.35632183908046" type="line"/>
      <point x="235.96551724137933" y="554.528735632184"/>
      <point x="252.74712643678166" y="623.1379310344828"/>
      <point x="271.52873563218395" y="703.3563218390805" type="curve"/>
      <point x="192.3218390804598" y="713.0" type="line"/>
      <point x="177.10344827586206" y="634.3908045977012"/>
      <point x="164.27586206896552" y="563.9540229885058"/>
      <point x="147.44827586206898" y="473.0" type="curve"/>
      <point x="97.05747126436782" y="236.4367816091954" type="line"/>
      <point x="76.49425287356323" y="148.6551724137931"/>
      <point x="61.10344827586208" y="81.4367816091954"/>
    </contour>
  </outline>
</glyph>
<glyph name="S" format="2">
  <advance width="582.4252873563219"/>
  <unicode hex="0053"/>
  <anchor x="243.34482758620686" y="0.0" name="bottom"/>
  <anchor x="393.34482758620686" y="713.0" name="top"/>
  <outline>
    <contour>
      <point x="269.95402298850576" y="-10.172413793103448" type="curve" smooth="yes"/>
      <point x="422.55172413793105" y="-10.172413793103448"/>
      <point x="499.7241379310344" y="52.26436781609196"/>
      <point x="523.2873563218391" y="164.08045977011494" type="curve" smooth="yes"/>
      <point x="543.0689655172414" y="258.5977011494253"/>
      <point x="502.67816091954023" y="324.9425287356322"/>
      <point x="345.632183908046" y="391.3793103448276" type="curve" smooth="yes"/>
      <point x="219.31034482758622" y="445.1264367816092"/>
      <point x="178.0" y="482.1724137931035"/>
      <point x="194.6551724137931" y="560.2298850574713" type="curve" smooth="yes"/>
      <point x="212.13793103448273" y="642.816091954023"/>
      <point x="294.4597701149425" y="661.0804597701149"/>
      <point x="370.90804597701145" y="663.0804597701149" type="curve"/>
      <point x="392.735632183908" y="663.0804597701149"/>
      <point x="481.9080459770115" y="633.0804597701151"/>
      <point x="563.8620689655172" y="599.0804597701149" type="curve"/>
      <point x="583.8505747126437" y="666.5172413793103" type="line"/>
      <point x="524.5977011494253" y="686.1264367816091"/>
      <point x="412.2988505747127" y="725.7816091954023"/>
      <point x="366.60919540229884" y="725.7816091954023" type="curve" smooth="yes"/>
      <point x="226.79310344827584" y="725.7816091954023"/>
      <point x="144.57471264367817" y="669.4367816091954"/>
      <point x="123.40229885057472" y="568.1839080459771" type="curve" smooth="yes"/>
      <point x="100.01149425287358" y="458.44827586206895"/>
      <point x="157.79310344827587" y="399.4137931034483"/>
      <point x="297.5402298850575" y="340.54022988505744" type="curve" smooth="yes"/>
      <point x="408.7701149425288" y="293.8390804597701"/>
      <point x="468.6896551724138" y="252.52873563218392"/>
      <point x="452.0344827586207" y="171.25287356321837" type="curve" smooth="yes"/>
      <point x="431.3333333333333" y="72.01149425287356"/>
      <point x="349.183908045977" y="54.13793103448276"/>
      <point x="270.95402298850576" y="52.13793103448276" type="curve"/>
      <point x="225.81609195402302" y="52.13793103448276"/>
      <point x="141.12643678160921" y="85.13793103448276"/>
      <point x="47.56321839080459" y="127.35632183908046" type="curve"/>
      <point x="26.574712643678165" y="59.701149425287355" type="line"/>
      <point x="114.70114942528735" y="24.655172413793103"/>
      <point x="217.5632183908046" y="-10.172413793103448"/>
    </contour>
  </outline>
</glyph>
<glyph name="T" format="2">
  <advance width="639.5052631578948"/>
  <unicode hex="0054"/>
  <anchor x="269.0736842105263" y="0.0" name="bottom"/>
  <anchor x="341.74736842105267" y="346.62105263157895" name="center"/>
  <anchor x="419.0736842105263" y="713.0" name="top"/>
  <outline>
    <contour>
      <point x="228.70526315789473" y="0.0" type="curve"/>
      <point x="309.72631578947374" y="0.0" type="line"/>
      <point x="324.47368421052636" y="79.38947368421053"/>
      <point x="336.5789473684211" y="145.85263157894735"/>
      <point x="353.5052631578948" y="236.38947368421051" type="curve"/>
      <point x="402.43157894736845" y="465.2" type="line"/>
      <point x="422.4315789473685" y="556.0947368421052"/>
      <point x="438.5052631578948" y="623.0947368421052"/>
      <point x="458.47368421052636" y="703.3789473684211" type="curve"/>
      <point x="459.90526315789475" y="713.0" type="line"/>
      <point x="378.88421052631577" y="713.0" type="line"/>
      <point x="376.63157894736844" y="703.3789473684211" type="line"/>
      <point x="362.9578947368421" y="623.0947368421052"/>
      <point x="350.67368421052635" y="555.2736842105263"/>
      <point x="332.3157894736842" y="465.2" type="curve"/>
      <point x="283.38947368421054" y="236.38947368421051" type="line"/>
      <point x="262.9578947368421" y="148.49473684210525"/>
      <point x="247.42105263157896" y="81.38947368421053"/>
    </contour>
    <contour>
      <point x="116.44210526315791" y="641.8526315789474" type="line"/>
      <point x="173.83157894736843" y="643.9263157894737"/>
      <point x="234.7578947368421" y="647.0"/>
      <point x="316.89473684210526" y="649.6105263157895" type="curve"/>
      <point x="381.7473684210526" y="649.6105263157895" type="line"/>
      <point x="395.36842105263156" y="713.0" type="line"/>
      <point x="131.13684210526316" y="713.0" type="line"/>
    </contour>
    <contour>
      <point x="428.1578947368421" y="649.6105263157895" type="line"/>
      <point x="493.0105263157895" y="649.6105263157895" type="line"/>
      <point x="575.3263157894737" y="646.8210526315789"/>
      <point x="635.0" y="643.9263157894737"/>
      <point x="691.3157894736842" y="641.8526315789474" type="curve"/>
      <point x="706.0105263157894" y="713.0" type="line"/>
      <point x="441.77894736842103" y="713.0" type="line"/>
    </contour>
  </outline>
</glyph>
<glyph name="V" format="2">
  <advance width="680.8842105263159"/>
  <unicode hex="0056"/>
  <anchor x="289.2631578947369" y="0.0" name="bottom"/>
  <anchor x="439.2631578947369" y="713.0" name="top"/>
  <outline>
    <contour>
      <point x="236.9894736842105" y="0.0" type="curve"/>
      <point x="345.5684210526316" y="0.0" type="line"/>
      <point x="385.0631578947369" y="71.46315789473684"/>
      <point x="434.0210526315789" y="160.74736842105264"/>
      <point x="470.41052631578947" y="226.82105263157897" type="curve"/>
      <point x="598.7578947368421" y="450.0" type="line"/>
      <point x="645.221052631579" y="527.0"/>
      <point x="704.5052631578947" y="625.8210526315788"/>
      <point x="756.9684210526316" y="713.0" type="curve"/>
      <point x="662.6842105263157" y="713.0" type="line"/>
      <point x="604.5578947368421" y="606.2631578947369"/>
      <point x="537.863157894737" y="484.6"/>
      <point x="479.7368421052632" y="377.6842105263158" type="curve"/>
      <point x="307.77894736842103" y="73.7578947368421" type="line"/>
      <point x="299.9894736842105" y="73.7578947368421" type="line"/>
      <point x="253.1578947368421" y="375.86315789473684" type="line"/>
      <point x="237.9894736842105" y="482.4210526315789"/>
      <point x="220.3578947368421" y="606.2631578947369"/>
      <point x="205.18947368421053" y="713.0" type="curve"/>
      <point x="120.5578947368421" y="713.0" type="line"/>
      <point x="136.8421052631579" y="627.0"/>
      <point x="155.9473684210526" y="524.5368421052632"/>
      <point x="170.2315789473684" y="449.17894736842106" type="curve"/>
      <point x="205.86315789473684" y="226.82105263157894" type="line"/>
      <point x="215.53684210526316" y="158.82105263157894"/>
      <point x="227.49473684210525" y="71.3578947368421"/>
    </contour>
  </outline>
</glyph>
<glyph name="W" format="2">
  <advance width="1011.8842105263158"/>
  <unicode hex="0057"/>
  <anchor x="452.7263157894737" y="0.0" name="bottom"/>
  <anchor x="602.7263157894737" y="713.0" name="top"/>
  <outline>
    <contour>
      <point x="181.22105263157894" y="0.0" type="curve"/>
      <point x="285.13684210526316" y="0.0" type="line"/>
      <point x="332.33684210526314" y="101.05263157894736"/>
      <point x="388.2842105263158" y="223.13684210526313"/>
      <point x="435.30526315789473" y="323.4736842105263" type="curve"/>
      <point x="576.7684210526315" y="615.8105263157895" type="line"/>
      <point x="584.5578947368421" y="615.8105263157895" type="line"/>
      <point x="605.2947368421052" y="323.4736842105263" type="line"/>
      <point x="610.6105263157893" y="222.42105263157893"/>
      <point x="617.3894736842105" y="101.05263157894737"/>
      <point x="623.5263157894736" y="0.0" type="curve"/>
      <point x="730.4105263157894" y="0.0" type="line"/>
      <point x="762.3368421052633" y="67.0"/>
      <point x="802.9052631578948" y="152.82105263157894"/>
      <point x="837.6526315789474" y="225.82105263157894" type="curve"/>
      <point x="950.3263157894737" y="450.0" type="line"/>
      <point x="992.7894736842105" y="529.1052631578947"/>
      <point x="1044.326315789474" y="627.0"/>
      <point x="1090.326315789474" y="713.0" type="curve"/>
      <point x="996.9368421052632" y="713.0" type="line"/>
      <point x="947.0947368421051" y="608.6947368421053"/>
      <point x="888.6842105263157" y="484.3578947368421"/>
      <point x="839.4842105263158" y="381.15789473684214" type="curve"/>
      <point x="693.5578947368421" y="82.63157894736842" type="line"/>
      <point x="685.7684210526315" y="82.63157894736842" type="line"/>
      <point x="666.1052631578948" y="380.8" type="line"/>
      <point x="660.3263157894737" y="487.92631578947373"/>
      <point x="654.0842105263158" y="606.8736842105263"/>
      <point x="648.3052631578947" y="713.0" type="curve"/>
      <point x="553.0421052631579" y="713.0" type="line"/>
      <point x="504.30526315789473" y="609.1578947368421"/>
      <point x="446.0" y="483.6421052631579"/>
      <point x="399.08421052631576" y="381.9789473684211" type="curve"/>
      <point x="255.5473684210526" y="82.63157894736842" type="line"/>
      <point x="247.75789473684208" y="82.63157894736842" type="line"/>
      <point x="226.70526315789473" y="375.05263157894734" type="line"/>
      <point x="220.64210526315793" y="481.3578947368421"/>
      <point x="214.1157894736842" y="606.8736842105263"/>
      <point x="208.05263157894737" y="713.0" type="curve"/>
      <point x="119.2" y="713.0" type="line"/>
      <point x="128.37894736842108" y="628.8210526315789"/>
      <point x="140.55789473684212" y="526.3578947368421"/>
      <point x="149.5578947368421" y="445.89473684210526" type="curve"/>
      <point x="167.87368421052633" y="225.0" type="line"/>
      <point x="172.44210526315788" y="154.0"/>
      <point x="177.65263157894736" y="71.17894736842105"/>
    </contour>
  </outline>
</glyph>
<glyph name="X" format="2">
  <advance width="676.7157894736841"/>
  <unicode hex="0058"/>
  <outline>
    <contour>
      <point x="-17.694736842105264" y="0.0" type="curve"/>
      <point x="83.41052631578948" y="0.0" type="line"/>
      <point x="136.0" y="63.81052631578946"/>
      <point x="179.73684210526315" y="117.30526315789474"/>
      <point x="228.86315789473682" y="177.1157894736842" type="curve"/>
      <point x="343.4736842105263" y="312.09473684210525" type="line"/>
      <point x="351.2631578947368" y="312.09473684210525" type="line"/>
      <point x="416.6315789473684" y="177.93684210526317" type="line"/>
      <point x="442.2631578947369" y="123.41052631578948"/>
      <point x="468.7157894736842" y="65.34736842105262"/>
      <point x="498.27368421052626" y="0.0" type="curve"/>
      <point x="590.5894736842106" y="0.0" type="line"/>
      <point x="550.378947368421" y="76.0"/>
      <point x="513.9894736842106" y="143.1789473684211"/>
      <point x="473.77894736842103" y="219.17894736842106" type="curve"/>
      <point x="397.86315789473684" y="374.53684210526313" type="line"/>
      <point x="392.43157894736845" y="349.8421052631579" type="line"/>
      <point x="532.4210526315791" y="511.2421052631579" type="line"/>
      <point x="584.3473684210527" y="568.6"/>
      <point x="647.2736842105262" y="637.6736842105264"/>
      <point x="715.2736842105263" y="713.0" type="curve"/>
      <point x="613.1684210526316" y="713.0" type="line"/>
      <point x="560.6842105263157" y="648.578947368421"/>
      <point x="506.09473684210525" y="582.0526315789474"/>
      <point x="458.25263157894733" y="524.9894736842106" type="curve"/>
      <point x="362.77894736842103" y="413.3263157894737" type="line"/>
      <point x="354.9894736842105" y="413.3263157894737" type="line"/>
      <point x="303.7578947368421" y="523.3473684210527" type="line"/>
      <point x="278.94736842105266" y="580.0526315789473"/>
      <point x="251.03157894736844" y="645.9368421052632"/>
      <point x="222.93684210526317" y="713.0" type="curve"/>
      <point x="132.58947368421053" y="713.0" type="line"/>
      <point x="173.62105263157895" y="632.2842105263157"/>
      <point x="206.0105263157895" y="565.2842105263157"/>
      <point x="239.39999999999998" y="498.9263157894737" type="curve"/>
      <point x="307.4947368421053" y="353.2105263157895" type="line"/>
      <point x="312.2842105263158" y="377.01052631578943" type="line"/>
      <point x="162.54736842105262" y="201.86315789473684" type="line"/>
      <point x="98.15789473684211" y="130.14736842105265"/>
      <point x="40.768421052631574" y="65.78947368421052"/>
    </contour>
  </outline>
</glyph>
<glyph name="Y" format="2">
  <advance width="644.0315789473684"/>
  <unicode hex="0059"/>
  <anchor x="270.87368421052633" y="0.0" name="bottom"/>
  <anchor x="421.23157894736846" y="713.0" name="top"/>
  <anchor x="117.82105263157895" y="713.0" name="topleft"/>
  <outline>
    <contour>
      <point x="300.2631578947369" y="286.0421052631579" type="line"/>
      <point x="363.36842105263156" y="286.0421052631579" type="line"/>
      <point x="577.042105263158" y="545.4526315789474" type="line"/>
      <point x="623.2210526315789" y="598.7052631578947"/>
      <point x="671.578947368421" y="655.1368421052632"/>
      <point x="721.0105263157894" y="713.0" type="curve"/>
      <point x="621.3684210526316" y="713.0" type="line"/>
      <point x="546.3578947368421" y="615.6210526315789"/>
      <point x="506.79999999999995" y="565.3789473684211"/>
      <point x="444.6421052631579" y="484.7473684210526" type="curve"/>
      <point x="347.0631578947369" y="363.1578947368421" type="line"/>
      <point x="339.4526315789474" y="363.1578947368421" type="line"/>
      <point x="290.7578947368421" y="489.0315789473684" type="line"/>
      <point x="263.2" y="565.2"/>
      <point x="245.49473684210523" y="614.6210526315789"/>
      <point x="209.90526315789472" y="713.0" type="curve"/>
      <point x="121.66315789473686" y="713.0" type="line"/>
      <point x="151.20000000000002" y="646.6736842105263"/>
      <point x="171.73684210526318" y="600.0631578947368"/>
      <point x="196.09473684210525" y="545.4526315789474" type="curve"/>
    </contour>
    <contour>
      <point x="230.86315789473687" y="0.0" type="curve"/>
      <point x="312.2421052631579" y="0.0" type="line"/>
      <point x="326.98947368421045" y="79.38947368421053"/>
      <point x="339.0947368421053" y="145.85263157894735"/>
      <point x="356.0210526315789" y="236.38947368421051" type="curve"/>
      <point x="379.13684210526316" y="344.4315789473684" type="line"/>
      <point x="308.66315789473686" y="344.4315789473684" type="line"/>
      <point x="285.5473684210527" y="236.38947368421051" type="line"/>
      <point x="265.11578947368423" y="148.49473684210525"/>
      <point x="249.57894736842107" y="81.38947368421053"/>
    </contour>
  </outline>
</glyph>
<glyph name="Z" format="2">
  <advance width="667.0526315789474"/>
  <unicode hex="005A"/>
  <anchor x="281.7578947368421" y="0.0" name="bottom"/>
  <anchor x="356.7578947368421" y="357.0" name="center"/>
  <anchor x="431.7578947368421" y="713.0" name="top"/>
  <outline>
    <contour>
      <point x="-1.6526315789473678" y="0.0" type="line"/>
      <point x="560.2421052631579" y="0.0" type="line"/>
      <point x="575.4000000000001" y="70.17894736842105" type="line"/>
      <point x="491.0526315789474" y="68.10526315789474"/>
      <point x="356.4631578947369" y="64.49473684210525"/>
      <point x="263.6526315789474" y="61.421052631578945" type="curve"/>
      <point x="71.46315789473684" y="61.421052631578945" type="line"/>
      <point x="84.53684210526316" y="27.54736842105263" type="line"/>
      <point x="458.69473684210527" y="414.2736842105263" type="line"/>
      <point x="537.5052631578948" y="494.01052631578943"/>
      <point x="616.1368421052632" y="574.5684210526316"/>
      <point x="693.978947368421" y="653.5157894736842" type="curve"/>
      <point x="706.5263157894736" y="713.0" type="line"/>
      <point x="155.6" y="713.0" type="line"/>
      <point x="141.26315789473685" y="642.9263157894736" type="line"/>
      <point x="246.53684210526316" y="645.7157894736843"/>
      <point x="344.9894736842105" y="649.1473684210526"/>
      <point x="432.15789473684214" y="651.578947368421" type="curve"/>
      <point x="642.6315789473683" y="651.578947368421" type="line"/>
      <point x="619.6315789473684" y="678.8842105263158" type="line"/>
      <point x="266.82105263157894" y="312.4315789473684" type="line"/>
      <point x="187.29473684210527" y="231.97894736842105"/>
      <point x="78.37894736842108" y="121.49473684210527"/>
      <point x="9.821052631578949" y="51.83157894736842" type="curve"/>
    </contour>
  </outline>
</glyph>
<glyph name="bracketleft" format="2">
  <advance width="362.89473684210526"/>
  <unicode hex="005B"/>
  <outline>
    <contour>
      <point x="20.578947368421048" y="-115.22105263157894" type="curve"/>
      <point x="92.18947368421053" y="-115.22105263157894" type="line"/>
      <point x="93.62105263157895" y="-105.60000000000001" type="line"/>
      <point x="108.54736842105261" y="-25.852631578947367"/>
      <point x="121.29473684210525" y="43.89473684210526"/>
      <point x="137.4" y="131.61052631578949" type="curve"/>
      <point x="218.50526315789475" y="516.3157894736842" type="line"/>
      <point x="238.93684210526317" y="604.7473684210527"/>
      <point x="255.65263157894736" y="674.2105263157895"/>
      <point x="274.36842105263156" y="754.4947368421052" type="curve"/>
      <point x="276.79999999999995" y="764.1157894736842" type="line"/>
      <point x="205.1894736842105" y="764.1157894736842" type="line"/>
      <point x="189.90526315789472" y="683.4736842105262"/>
      <point x="175.97894736842105" y="614.9052631578948"/>
      <point x="159.69473684210524" y="525.9368421052632" type="curve"/>
      <point x="74.72631578947367" y="121.16842105263157" type="line"/>
      <point x="53.83157894736841" y="33.45263157894737"/>
      <point x="38.93684210526316" y="-35.83157894736842"/>
    </contour>
    <contour>
      <point x="76.74736842105264" y="-115.22105263157894" type="line"/>
      <point x="272.6" y="-115.22105263157894" type="line"/>
      <point x="284.5052631578947" y="-56.48421052631579" type="line"/>
      <point x="236.22105263157897" y="-57.20000000000001"/>
      <point x="184.83157894736843" y="-58.736842105263165"/>
      <point x="126.18947368421053" y="-59.631578947368425" type="curve"/>
      <point x="88.11578947368422" y="-59.631578947368425" type="line"/>
    </contour>
    <contour>
      <point x="246.94736842105263" y="708.5263157894736" type="line"/>
      <point x="283.27368421052637" y="708.5263157894736" type="line"/>
      <point x="352.0210526315789" y="707.6315789473683"/>
      <point x="400.1263157894737" y="706.0947368421052"/>
      <point x="444.41052631578947" y="705.378947368421" type="curve"/>
      <point x="457.13684210526316" y="764.1157894736842" type="line"/>
      <point x="258.4947368421053" y="764.1157894736842" type="line"/>
    </contour>
  </outline>
</glyph>
<glyph name="backslash" format="2">
  <advance width="446.41052631578947"/>
  <unicode hex="005C"/>
  <outline>
    <contour>
      <point x="294.21052631578954" y="0.0" type="curve"/>
      <point x="365.0" y="0.0" type="line"/>
      <point x="346.0" y="73.71578947368421"/>
      <point x="330.00000000000006" y="136.53684210526316"/>
      <point x="306.3578947368421" y="228.0" type="curve"/>
      <point x="249.11578947368417" y="475.17894736842106" type="line"/>
      <point x="228.80000000000004" y="570.8210526315789"/>
      <point x="214.76842105263162" y="637.4631578947368"/>
      <point x="198.73684210526315" y="713.0" type="curve"/>
      <point x="128.30526315789473" y="713.0" type="line"/>
      <point x="148.12631578947372" y="634.4631578947368"/>
      <point x="164.76842105263154" y="568.0"/>
      <point x="188.41052631578944" y="474.82105263157894" type="curve"/>
      <point x="245.4736842105263" y="228.0" type="line"/>
      <point x="264.9684210526316" y="136.0"/>
      <point x="278.35789473684207" y="74.0"/>
    </contour>
  </outline>
</glyph>
<glyph name="asciicircum" format="2">
  <advance width="602.1684210526316"/>
  <unicode hex="005E"/>
  <outline>
    <contour>
      <point x="508.6947368421052" y="384.1578947368421" type="curve"/>
      <point x="568.9263157894736" y="385.33684210526314" type="line"/>
      <point x="523.9684210526316" y="485.7368421052631"/>
      <point x="479.83157894736837" y="584.6736842105263"/>
      <point x="434.87368421052633" y="685.0736842105263" type="curve"/>
      <point x="339.3894736842105" y="685.0736842105263" type="line"/>
      <point x="256.96842105263164" y="585.6736842105263"/>
      <point x="174.3684210526316" y="486.7368421052631"/>
      <point x="91.94736842105262" y="387.33684210526314" type="curve"/>
      <point x="161.0421052631579" y="387.33684210526314" type="line"/>
      <point x="233.42105263157896" y="467.7894736842105"/>
      <point x="305.9052631578947" y="548.1684210526315"/>
      <point x="378.28421052631575" y="628.621052631579" type="curve"/>
      <point x="385.89473684210526" y="628.621052631579" type="line"/>
      <point x="426.4947368421052" y="547.5263157894736"/>
      <point x="468.09473684210525" y="465.25263157894733"/>
    </contour>
  </outline>
</glyph>
<glyph name="underscore" format="2">
  <advance width="394.31578947368416"/>
  <unicode hex="005F"/>
  <outline>
    <contour>
      <point x="-86.01052631578948" y="-112.54736842105262" type="line"/>
      <point x="-24.96842105263158" y="-111.18947368421053"/>
      <point x="44.6421052631579" y="-109.83157894736841"/>
      <point x="83.7578947368421" y="-109.47368421052632" type="curve"/>
      <point x="160.89473684210526" y="-109.47368421052632" type="line"/>
      <point x="199.65263157894734" y="-109.83157894736841"/>
      <point x="267.2631578947368" y="-111.18947368421053"/>
      <point x="328.30526315789473" y="-112.54736842105262" type="curve"/>
      <point x="341.38947368421054" y="-51.55789473684211" type="line"/>
      <point x="280.1684210526316" y="-52.915789473684214"/>
      <point x="210.5578947368421" y="-54.27368421052632"/>
      <point x="171.62105263157895" y="-54.631578947368425" type="curve"/>
      <point x="94.48421052631579" y="-54.631578947368425" type="line"/>
      <point x="55.54736842105263" y="-54.27368421052632"/>
      <point x="-12.063157894736843" y="-52.915789473684214"/>
      <point x="-72.92631578947369" y="-51.55789473684211" type="curve"/>
    </contour>
  </outline>
</glyph>
<glyph name="a" format="2">
  <advance width="522.6436781609195"/>
  <unicode hex="0061"/>
  <anchor x="210.00000000000003" y="0.0" name="bottom"/>
  <anchor x="388.2413793103448" y="0.0" name="ogonek"/>
  <anchor x="316.0" y="495.5632183908046" name="top"/>
  <outline>
    <contour>
      <point x="171.05747126436782" y="-9.781609195402298" type="curve" smooth="yes"/>
      <point x="215.41379310344828" y="-9.781609195402298"/>
      <point x="286.55172413793105" y="30.22988505747126"/>
      <point x="342.67816091954023" y="75.27586206896554" type="curve"/>
      <point x="350.2413793103448" y="75.27586206896554" type="line"/>
      <point x="354.8045977011494" y="0.0" type="line"/>
      <point x="419.2413793103448" y="0.0" type="line"/>
      <point x="417.4137931034483" y="50.298850574712645"/>
      <point x="416.1954022988506" y="88.77011494252875"/>
      <point x="415.9770114942529" y="133.11494252873567" type="curve"/>
      <point x="432.632183908046" y="211.0" type="line" smooth="yes"/>
      <point x="441.632183908046" y="254.04597701149427"/>
      <point x="450.632183908046" y="287.6551724137931"/>
      <point x="457.02298850574715" y="317.2183908045977" type="curve" smooth="yes"/>
      <point x="481.19540229885064" y="429.3448275862069"/>
      <point x="426.7701149425288" y="506.3448275862069"/>
      <point x="300.2183908045977" y="506.3448275862069" type="curve" smooth="yes"/>
      <point x="266.39080459770116" y="506.3448275862069"/>
      <point x="173.96551724137933" y="485.2988505747126"/>
      <point x="127.40229885057471" y="474.8620689655173" type="curve"/>
      <point x="116.93103448275862" y="406.3793103448276" type="line"/>
      <point x="192.80459770114942" y="428.59770114942523"/>
      <point x="266.44827586206895" y="448.55172413793105"/>
      <point x="286.4942528735632" y="448.55172413793105" type="curve" smooth="yes"/>
      <point x="371.2413793103448" y="448.55172413793105"/>
      <point x="414.7241379310345" y="407.85057471264366"/>
      <point x="392.5862068965517" y="315.51724137931035" type="curve"/>
      <point x="217.83908045977012" y="283.0344827586207" type="line" smooth="yes"/>
      <point x="135.0574712643678" y="267.81609195402297"/>
      <point x="55.79310344827586" y="245.6896551724138"/>
      <point x="35.183908045977006" y="152.6896551724138" type="curve" smooth="yes"/>
      <point x="14.57471264367816" y="61.08045977011494"/>
      <point x="72.44827586206897" y="-9.781609195402298"/>
    </contour>
    <contour>
      <point x="190.0344827586207" y="45.44827586206897" type="curve" smooth="yes"/>
      <point x="126.49425287356323" y="45.44827586206897"/>
      <point x="86.8735632183908" y="79.58620689655173"/>
      <point x="100.9655172413793" y="148.7816091954023" type="curve" smooth="yes"/>
      <point x="112.62068965517241" y="205.6206896551724"/>
      <point x="167.33333333333334" y="220.83908045977012"/>
      <point x="232.7816091954023" y="233.88505747126436" type="curve" smooth="yes"/>
      <point x="335.58620689655174" y="254.75862068965515"/>
      <point x="362.67816091954023" y="263.9770114942529"/>
      <point x="381.7241379310345" y="272.7586206896552" type="curve"/>
      <point x="354.8045977011495" y="145.64367816091954" type="line"/>
      <point x="287.93103448275855" y="79.1954022988506"/>
      <point x="221.87356321839079" y="45.44827586206897"/>
    </contour>
  </outline>
</glyph>
<glyph name="b" format="2">
  <advance width="591.4315789473684"/>
  <unicode hex="0062"/>
  <outline>
    <contour>
      <point x="293.06315789473683" y="-10.25263157894737" type="curve" smooth="yes"/>
      <point x="413.9894736842105" y="-10.25263157894737"/>
      <point x="501.4842105263158" y="78.68421052631578"/>
      <point x="531.4842105263158" y="222.14736842105262" type="curve" smooth="yes"/>
      <point x="562.6631578947369" y="372.5052631578947"/>
      <point x="504.2421052631579" y="506.5052631578947"/>
      <point x="355.3578947368421" y="506.5052631578947" type="curve" smooth="yes"/>
      <point x="315.04210526315785" y="506.5052631578947"/>
      <point x="242.66315789473686" y="465.2631578947368"/>
      <point x="204.58947368421053" y="435.8315789473684" type="curve"/>
      <point x="196.8" y="435.8315789473684" type="line"/>
      <point x="208.7263157894737" y="493.82105263157894" type="line"/>
      <point x="229.51578947368424" y="580.7894736842105"/>
      <point x="248.76842105263157" y="661.0421052631579"/>
      <point x="269.4842105263158" y="742.1473684210526" type="curve"/>
      <point x="183.99999999999997" y="729.5368421052632" type="line"/>
      <point x="171.78947368421052" y="655.5684210526316"/>
      <point x="158.57894736842104" y="577.7473684210527"/>
      <point x="144.36842105263156" y="493.82105263157894" type="curve"/>
      <point x="86.18947368421053" y="219.56842105263158" type="line"/>
      <point x="66.11578947368422" y="138.03157894736842"/>
      <point x="51.578947368421055" y="73.92631578947369"/>
      <point x="33.86315789473684" y="0.0" type="curve"/>
      <point x="91.6736842105263" y="0.0" type="line"/>
      <point x="115.89473684210526" y="78.34736842105265" type="line"/>
      <point x="123.14736842105265" y="78.34736842105265" type="line"/>
      <point x="172.50526315789475" y="31.705263157894734"/>
      <point x="242.74736842105264" y="-10.25263157894737"/>
    </contour>
    <contour>
      <point x="280.71578947368425" y="49.663157894736834" type="curve"/>
      <point x="241.08421052631581" y="51.84210526315788"/>
      <point x="174.07368421052635" y="85.93684210526315"/>
      <point x="132.58947368421056" y="134.98947368421054" type="curve"/>
      <point x="182.0421052631579" y="367.40000000000003" type="line"/>
      <point x="229.1684210526316" y="411.1368421052632"/>
      <point x="304.10526315789474" y="445.5894736842105"/>
      <point x="333.2421052631579" y="447.12631578947367" type="curve"/>
      <point x="449.63157894736844" y="444.12631578947367"/>
      <point x="490.3684210526316" y="346.57894736842104"/>
      <point x="465.94736842105266" y="228.29473684210527" type="curve" smooth="yes"/>
      <point x="444.63157894736844" y="126.17894736842103"/>
      <point x="386.14736842105265" y="52.84210526315788"/>
    </contour>
  </outline>
</glyph>
<glyph name="c" format="2">
  <advance width="496.9894736842105"/>
  <unicode hex="0063"/>
  <anchor x="234.9578947368421" y="0.0" name="bottom"/>
  <anchor x="331.9263157894737" y="495.4315789473684" name="top"/>
  <outline>
    <contour>
      <point x="279.32631578947365" y="-9.715789473684211" type="curve" smooth="yes"/>
      <point x="313.71578947368425" y="-9.715789473684211"/>
      <point x="375.64210526315793" y="9.494736842105263"/>
      <point x="402.64210526315793" y="19.957894736842107" type="curve"/>
      <point x="408.18947368421055" y="85.62105263157895" type="line"/>
      <point x="372.4421052631579" y="68.05263157894736"/>
      <point x="311.69473684210527" y="49.41052631578948"/>
      <point x="287.5578947368421" y="48.58947368421053" type="curve" smooth="yes"/>
      <point x="163.97894736842105" y="50.58947368421053"/>
      <point x="94.8842105263158" y="131.21052631578945"/>
      <point x="123.8421052631579" y="266.82105263157894" type="curve" smooth="yes"/>
      <point x="148.8" y="382.2526315789474"/>
      <point x="228.5263157894737" y="442.12631578947367"/>
      <point x="327.8210526315789" y="447.12631578947367" type="curve"/>
      <point x="344.3894736842106" y="447.12631578947367"/>
      <point x="410.13684210526316" y="426.66315789473686"/>
      <point x="472.1684210526316" y="400.7368421052632" type="curve"/>
      <point x="490.6842105263158" y="462.2947368421053" type="line"/>
      <point x="446.5684210526316" y="478.0105263157895"/>
      <point x="360.5684210526316" y="506.3263157894737"/>
      <point x="328.46315789473687" y="506.3263157894737" type="curve" smooth="yes"/>
      <point x="190.94736842105263" y="506.3263157894737"/>
      <point x="86.8421052631579" y="411.86315789473684"/>
      <point x="58.48421052631579" y="274.9684210526316" type="curve" smooth="yes"/>
      <point x="24.410526315789475" y="109.03157894736843"/>
      <point x="112.60000000000001" y="-9.715789473684211"/>
    </contour>
  </outline>
</glyph>
<glyph name="d" format="2">
  <advance width="575.9368421052632"/>
  <unicode hex="0064"/>
  <anchor x="256.6842105263158" y="0.0" name="bottom"/>
  <anchor x="290.2526315789474" y="247.7157894736842" name="center"/>
  <anchor x="409.0421052631579" y="724.7894736842105" name="top"/>
  <anchor x="602.9052631578948" y="495.4315789473684" name="topright"/>
  <outline>
    <contour>
      <point x="236.25263157894736" y="-10.25263157894737" type="curve" smooth="yes"/>
      <point x="279.4631578947368" y="-10.25263157894737"/>
      <point x="348.70526315789476" y="26.6"/>
      <point x="396.9578947368421" y="74.16842105263157" type="curve"/>
      <point x="404.2105263157895" y="74.16842105263157" type="line"/>
      <point x="389.61052631578946" y="0.0" type="line"/>
      <point x="450.7473684210526" y="0.0" type="line"/>
      <point x="464.6736842105263" y="73.92631578947369"/>
      <point x="476.59999999999997" y="138.03157894736842"/>
      <point x="491.7052631578947" y="219.56842105263158" type="curve"/>
      <point x="549.8842105263158" y="493.82105263157894" type="line"/>
      <point x="570.6736842105263" y="580.7894736842105"/>
      <point x="589.9263157894737" y="661.0421052631579"/>
      <point x="610.6421052631579" y="742.1473684210526" type="curve"/>
      <point x="525.1578947368422" y="729.5368421052632" type="line"/>
      <point x="512.9473684210527" y="655.5684210526316"/>
      <point x="499.7368421052632" y="577.7473684210527"/>
      <point x="485.5263157894737" y="493.82105263157894" type="curve"/>
      <point x="472.7789473684211" y="430.90526315789475" type="line"/>
      <point x="464.98947368421057" y="430.90526315789475" type="line"/>
      <point x="422.98947368421057" y="466.2631578947368"/>
      <point x="349.25263157894733" y="506.5052631578947"/>
      <point x="298.5473684210526" y="506.5052631578947" type="curve" smooth="yes"/>
      <point x="177.62105263157895" y="506.5052631578947"/>
      <point x="90.1263157894737" y="417.56842105263155"/>
      <point x="60.126315789473686" y="274.10526315789474" type="curve" smooth="yes"/>
      <point x="28.947368421052634" y="123.74736842105263"/>
      <point x="87.36842105263159" y="-10.25263157894737"/>
    </contour>
    <contour>
      <point x="258.36842105263156" y="49.12631578947368" type="curve"/>
      <point x="141.97894736842105" y="51.30526315789473"/>
      <point x="100.42105263157895" y="150.49473684210523"/>
      <point x="125.66315789473684" y="267.9578947368421" type="curve" smooth="yes"/>
      <point x="147.8" y="371.7157894736842"/>
      <point x="205.46315789473684" y="443.41052631578947"/>
      <point x="310.89473684210526" y="446.58947368421053" type="curve"/>
      <point x="352.98947368421057" y="445.2315789473684"/>
      <point x="417.53684210526313" y="411.13684210526316"/>
      <point x="459.8421052631579" y="376.04210526315796" type="curve"/>
      <point x="412.0315789473685" y="146.9157894736842" type="line"/>
      <point x="369.83157894736837" y="94.96842105263157"/>
      <point x="304.7473684210526" y="51.48421052631578"/>
    </contour>
  </outline>
</glyph>
<glyph name="e" format="2">
  <advance width="527.6091954022988"/>
  <unicode hex="0065"/>
  <anchor x="234.26436781609198" y="0.0" name="bottom"/>
  <anchor x="335.9885057471264" y="0.0" name="ogonek"/>
  <anchor x="330.2183908045977" y="495.5632183908046" name="top"/>
  <outline>
    <contour>
      <point x="273.7356321839081" y="-10.172413793103448" type="curve" smooth="yes"/>
      <point x="309.9080459770115" y="-10.172413793103448"/>
      <point x="376.6896551724137" y="5.045977011494256"/>
      <point x="424.47126436781605" y="21.045977011494255" type="curve"/>
      <point x="433.7701149425288" y="86.83908045977012" type="line"/>
      <point x="369.7701149425287" y="62.01149425287357"/>
      <point x="306.9425287356322" y="48.01149425287356"/>
      <point x="283.11494252873564" y="48.01149425287356" type="curve" smooth="yes"/>
      <point x="158.01149425287358" y="48.01149425287356"/>
      <point x="93.52873563218391" y="128.33333333333334"/>
      <point x="119.79310344827587" y="254.60919540229884" type="curve"/>
      <point x="121.35632183908046" y="263.47126436781605" type="line"/>
      <point x="149.22988505747128" y="390.54022988505744"/>
      <point x="227.50574712643677" y="447.28735632183907"/>
      <point x="314.264367816092" y="450.28735632183907" type="curve"/>
      <point x="403.63218390804593" y="447.28735632183907"/>
      <point x="446.0344827586207" y="386.1494252873563"/>
      <point x="426.7701149425287" y="294.17241379310343" type="curve" smooth="yes"/>
      <point x="424.7701149425287" y="284.5632183908046"/>
      <point x="421.7701149425287" y="273.95402298850576"/>
      <point x="418.7701149425287" y="264.9540229885057" type="curve"/>
      <point x="470.68965517241384" y="233.48275862068965" type="line"/>
      <point x="476.08045977011494" y="248.6551724137931"/>
      <point x="482.68965517241384" y="269.8735632183908"/>
      <point x="486.4712643678161" y="286.82758620689657" type="curve" smooth="yes"/>
      <point x="513.3793103448276" y="408.08045977011494"/>
      <point x="452.51724137931035" y="505.7356321839081"/>
      <point x="314.7011494252874" y="505.7356321839081" type="curve" smooth="yes"/>
      <point x="187.62068965517244" y="505.7356321839081"/>
      <point x="87.183908045977" y="414.17241379310343"/>
      <point x="57.18390804597701" y="271.39080459770116" type="curve" smooth="yes"/>
      <point x="21.183908045977013" y="102.65517241379311"/>
      <point x="110.0919540229885" y="-10.172413793103448"/>
    </contour>
    <contour>
      <point x="76.51724137931035" y="233.48275862068965" type="line"/>
      <point x="470.68965517241384" y="233.48275862068965" type="line"/>
      <point x="478.6436781609196" y="273.4712643678161" type="line"/>
      <point x="439.2758620689655" y="285.367816091954" type="line"/>
      <point x="84.47126436781609" y="283.41379310344826" type="line"/>
    </contour>
  </outline>
</glyph>
<glyph name="f" format="2">
  <advance width="390.5157894736842"/>
  <unicode hex="0066"/>
  <outline>
    <contour>
      <point x="65.18947368421053" y="0.0" type="curve"/>
      <point x="140.09473684210525" y="0.0" type="line"/>
      <point x="154.02105263157893" y="73.92631578947369"/>
      <point x="166.76842105263157" y="138.03157894736842"/>
      <point x="181.8736842105263" y="219.56842105263158" type="curve"/>
      <point x="236.69473684210527" y="478.2105263157895" type="line"/>
      <point x="240.7684210526316" y="495.4315789473684" type="line"/>
      <point x="241.62105263157895" y="507.89473684210526"/>
      <point x="245.86315789473684" y="545.5999999999999"/>
      <point x="250.96842105263158" y="568.8421052631578" type="curve" smooth="yes"/>
      <point x="267.2842105263158" y="645.3157894736842"/>
      <point x="303.77894736842103" y="686.5894736842105"/>
      <point x="384.2526315789474" y="686.5894736842105" type="curve" smooth="yes"/>
      <point x="392.9684210526315" y="686.5894736842105"/>
      <point x="432.3578947368421" y="676.9473684210527"/>
      <point x="467.5052631578947" y="667.2315789473685" type="curve"/>
      <point x="486.021052631579" y="727.8947368421052" type="line"/>
      <point x="449.51578947368426" y="735.8947368421053"/>
      <point x="396.40000000000003" y="744.8947368421053"/>
      <point x="382.46315789473687" y="744.8947368421053" type="curve" smooth="yes"/>
      <point x="289.59999999999997" y="744.8947368421053"/>
      <point x="217.26315789473682" y="702.0736842105263"/>
      <point x="190.65263157894736" y="576.1684210526316" type="curve" smooth="yes"/>
      <point x="164.5157894736842" y="451.58947368421053"/>
      <point x="146.8" y="361.9894736842105"/>
      <point x="127.69473684210527" y="269.5684210526316" type="curve"/>
      <point x="117.51578947368421" y="219.56842105263158" type="line"/>
      <point x="97.4421052631579" y="138.03157894736842"/>
      <point x="82.90526315789474" y="73.92631578947369"/>
    </contour>
    <contour>
      <point x="65.58947368421053" y="437.58947368421053" type="line"/>
      <point x="182.88421052631577" y="445.63157894736844" type="line"/>
      <point x="207.70526315789473" y="445.63157894736844" type="line"/>
      <point x="272.8421052631579" y="443.5578947368421"/>
      <point x="337.2631578947368" y="440.66315789473686"/>
      <point x="403.9368421052631" y="437.58947368421053" type="curve"/>
      <point x="416.4842105263158" y="495.4315789473684" type="line"/>
      <point x="78.13684210526316" y="495.4315789473684" type="line"/>
    </contour>
  </outline>
</glyph>
<glyph name="g" format="2">
  <advance width="540.6896551724138"/>
  <unicode hex="0067"/>
  <anchor x="184.55172413793105" y="-192.0" name="bottom"/>
  <anchor x="305.68965517241384" y="495.5632183908046" name="top"/>
  <outline>
    <contour>
      <point x="174.12643678160916" y="-201.7816091954023" type="curve" smooth="yes"/>
      <point x="287.0344827586207" y="-201.7816091954023"/>
      <point x="404.33333333333337" y="-157.5632183908046"/>
      <point x="424.89655172413796" y="-60.747126436781606" type="curve" smooth="yes"/>
      <point x="441.45977011494256" y="17.45977011494253"/>
      <point x="386.3333333333333" y="71.41379310344828"/>
      <point x="252.45977011494256" y="71.41379310344828" type="curve" smooth="yes"/>
      <point x="214.77011494252872" y="71.41379310344828" type="line" smooth="yes"/>
      <point x="150.52873563218392" y="71.41379310344828"/>
      <point x="129.66666666666669" y="94.25287356321839"/>
      <point x="134.88505747126436" y="120.1264367816092" type="curve" smooth="yes"/>
      <point x="140.93103448275863" y="148.09195402298852"/>
      <point x="178.5402298850575" y="159.48275862068965"/>
      <point x="255.55172413793105" y="169.91954022988506" type="curve" smooth="yes"/>
      <point x="351.42528735632186" y="183.13793103448276"/>
      <point x="429.5057471264368" y="221.9655172413793"/>
      <point x="449.5057471264368" y="320.21839080459773" type="curve" smooth="yes"/>
      <point x="460.72413793103453" y="376.6551724137931"/>
      <point x="444.11494252873564" y="429.1379310344828"/>
      <point x="386.97701149425285" y="469.35632183908046" type="curve"/>
      <point x="367.1609195402299" y="452.8045977011495" type="line"/>
      <point x="430.42528735632186" y="450.19540229885064"/>
      <point x="493.90804597701157" y="446.63218390804604"/>
      <point x="559.1724137931034" y="439.33333333333337" type="curve"/>
      <point x="571.2528735632184" y="495.95402298850576" type="line"/>
      <point x="398.72413793103453" y="495.95402298850576" type="line" smooth="yes"/>
      <point x="348.0344827586207" y="495.95402298850576"/>
      <point x="327.4712643678161" y="506.3448275862069"/>
      <point x="273.48275862068965" y="506.3448275862069" type="curve" smooth="yes"/>
      <point x="172.66666666666666" y="506.3448275862069"/>
      <point x="95.79310344827586" y="458.04597701149424"/>
      <point x="76.57471264367815" y="365.1724137931035" type="curve" smooth="yes"/>
      <point x="60.356321839080465" y="287.9080459770115"/>
      <point x="119.93103448275862" y="230.03448275862064"/>
      <point x="163.4022988505747" y="195.78160919540232" type="curve"/>
      <point x="163.4022988505747" y="189.2183908045977" type="line"/>
      <point x="115.13793103448275" y="178.04597701149424"/>
      <point x="82.01149425287356" y="156.82758620689654"/>
      <point x="73.01149425287356" y="117.26436781609196" type="curve" smooth="yes"/>
      <point x="63.01149425287356" y="71.48275862068965"/>
      <point x="95.40229885057471" y="46.701149425287355"/>
      <point x="109.83908045977012" y="39.310344827586206" type="curve"/>
      <point x="109.83908045977012" y="33.747126436781606" type="line"/>
      <point x="55.44827586206896" y="11.011494252873561"/>
      <point x="-1.471264367816089" y="-23.689655172413794"/>
      <point x="-10.080459770114938" y="-64.5632183908046" type="curve" smooth="yes"/>
      <point x="-29.471264367816087" y="-155.29885057471265"/>
      <point x="66.5632183908046" y="-201.7816091954023"/>
    </contour>
    <contour>
      <point x="179.98850574712645" y="-147.11494252873564" type="curve"/>
      <point x="114.63218390804597" y="-146.33333333333334"/>
      <point x="37.13793103448276" y="-124.67816091954023"/>
      <point x="50.62068965517241" y="-61.8735632183908" type="curve" smooth="yes"/>
      <point x="56.666666666666664" y="-34.08045977011494"/>
      <point x="111.5057471264368" y="-6.379310344827587"/>
      <point x="165.2068965517241" y="15.402298850574713" type="curve"/>
      <point x="231.04597701149422" y="15.402298850574713" type="line" smooth="yes"/>
      <point x="349.7586206896551" y="15.402298850574713"/>
      <point x="372.6781609195402" y="-19.080459770114942"/>
      <point x="363.632183908046" y="-60.264367816091955" type="curve" smooth="yes"/>
      <point x="354.367816091954" y="-101.32183908045977"/>
      <point x="296.1379310344828" y="-144.3793103448276"/>
    </contour>
    <contour>
      <point x="220.3793103448276" y="219.367816091954" type="curve"/>
      <point x="170.58620689655174" y="254.28735632183907"/>
      <point x="126.01149425287358" y="300.4252873563218"/>
      <point x="136.27586206896555" y="352.91954022988506" type="curve" smooth="yes"/>
      <point x="149.5402298850575" y="420.02298850574715"/>
      <point x="202.94252873563218" y="449.3333333333333"/>
      <point x="273.60919540229884" y="449.3333333333333" type="curve"/>
      <point x="346.4022988505747" y="449.3333333333333"/>
      <point x="404.0689655172414" y="397.367816091954"/>
      <point x="388.4137931034483" y="324.8735632183908" type="curve" smooth="yes"/>
      <point x="370.3218390804598" y="241.632183908046"/>
      <point x="294.21839080459773" y="226.80459770114945"/>
    </contour>
  </outline>
</glyph>
<glyph name="h" format="2">
  <advance width="573.3684210526317"/>
  <unicode hex="0068"/>
  <guideline x="110.94736842105263" y="733.1473684210526" angle="4.470799999999997"/>
  <anchor x="239.1473684210526" y="0.0" name="bottom"/>
  <anchor x="325.1473684210526" y="409.0" name="center"/>
  <anchor x="372.3578947368421" y="724.7894736842105" name="top"/>
  <outline>
    <contour>
      <point x="33.86315789473684" y="0.0" type="curve"/>
      <point x="108.76842105263158" y="0.0" type="line"/>
      <point x="122.69473684210527" y="73.92631578947369"/>
      <point x="134.4421052631579" y="138.03157894736842"/>
      <point x="150.0105263157895" y="217.2421052631579" type="curve"/>
      <point x="177.22105263157894" y="342.7263157894737" type="line"/>
      <point x="238.4842105263158" y="399.8842105263158"/>
      <point x="313.64210526315793" y="444.4421052631579"/>
      <point x="353.1263157894737" y="444.4421052631579" type="curve" smooth="yes"/>
      <point x="437.06315789473683" y="444.4421052631579"/>
      <point x="459.1263157894737" y="393.2736842105263"/>
      <point x="438.91578947368424" y="299.57894736842104" type="curve"/>
      <point x="422.06315789473683" y="217.2421052631579" type="line"/>
      <point x="402.8842105263158" y="138.03157894736842"/>
      <point x="388.34736842105264" y="73.92631578947369"/>
      <point x="370.81052631578945" y="0.0" type="curve"/>
      <point x="445.3578947368421" y="0.0" type="line"/>
      <point x="459.2842105263158" y="73.92631578947369"/>
      <point x="471.0315789473685" y="138.03157894736842"/>
      <point x="486.95789473684215" y="219.56842105263158" type="curve"/>
      <point x="494.95789473684215" y="257.74736842105267"/>
      <point x="502.5684210526316" y="286.32631578947365"/>
      <point x="508.5684210526316" y="313.6842105263158" type="curve" smooth="yes"/>
      <point x="535.0315789473684" y="434.25263157894733"/>
      <point x="488.8526315789474" y="506.5052631578947"/>
      <point x="378.9263157894737" y="506.5052631578947" type="curve" smooth="yes"/>
      <point x="324.47368421052636" y="506.5052631578947"/>
      <point x="245.66315789473686" y="452.5157894736842"/>
      <point x="199.30526315789476" y="413.33684210526314" type="curve"/>
      <point x="192.1578947368421" y="413.33684210526314" type="line"/>
      <point x="208.7263157894737" y="493.82105263157894" type="line"/>
      <point x="229.51578947368424" y="580.7894736842105"/>
      <point x="248.76842105263157" y="661.042105263158"/>
      <point x="269.48421052631585" y="742.1473684210526" type="curve"/>
      <point x="183.99999999999997" y="729.5368421052632" type="line"/>
      <point x="171.78947368421052" y="655.5684210526316"/>
      <point x="158.57894736842104" y="577.7473684210527"/>
      <point x="144.36842105263156" y="493.82105263157894" type="curve"/>
      <point x="86.18947368421053" y="219.56842105263158" type="line"/>
      <point x="66.11578947368422" y="138.03157894736842"/>
      <point x="51.578947368421055" y="73.92631578947369"/>
    </contour>
  </outline>
</glyph>
<glyph name="l" format="2">
  <advance width="249.45263157894735"/>
  <unicode hex="006C"/>
  <anchor x="71.72631578947367" y="0.0" name="bottom"/>
  <anchor x="159.62105263157895" y="409.0" name="center"/>
  <anchor x="224.29473684210527" y="724.7894736842105" name="top"/>
  <anchor x="260.85263157894735" y="495.4315789473684" name="topright"/>
  <outline>
    <contour>
      <point x="33.86315789473684" y="0.0" type="curve"/>
      <point x="108.76842105263158" y="0.0" type="line"/>
      <point x="122.69473684210527" y="73.92631578947369"/>
      <point x="135.4421052631579" y="138.03157894736842"/>
      <point x="150.54736842105265" y="219.56842105263158" type="curve"/>
      <point x="208.7263157894737" y="493.82105263157894" type="line"/>
      <point x="229.51578947368424" y="580.7894736842105"/>
      <point x="248.76842105263157" y="661.0421052631579"/>
      <point x="269.4842105263158" y="742.1473684210526" type="curve"/>
      <point x="183.99999999999997" y="729.5368421052632" type="line"/>
      <point x="171.78947368421052" y="655.5684210526316"/>
      <point x="158.57894736842104" y="577.7473684210527"/>
      <point x="144.36842105263156" y="493.82105263157894" type="curve"/>
      <point x="86.18947368421053" y="219.56842105263158" type="line"/>
      <point x="66.11578947368422" y="138.03157894736842"/>
      <point x="51.578947368421055" y="73.92631578947369"/>
    </contour>
  </outline>
</glyph>
<glyph name="m" format="2">
  <advance width="879.5052631578948"/>
  <unicode hex="006D"/>
  <anchor x="398.28421052631575" y="0.0" name="bottom"/>
  <anchor x="502.6421052631579" y="495.4315789473684" name="top"/>
  <outline>
    <contour>
      <point x="39.50526315789473" y="0.0" type="curve"/>
      <point x="114.41052631578948" y="0.0" type="line"/>
      <point x="128.33684210526312" y="73.92631578947369"/>
      <point x="140.26315789473682" y="138.03157894736842"/>
      <point x="155.65263157894736" y="217.2421052631579" type="curve"/>
      <point x="182.86315789473682" y="342.7263157894737" type="line"/>
      <point x="244.12631578947367" y="399.8842105263158"/>
      <point x="314.82105263157894" y="444.4421052631579"/>
      <point x="353.48421052631574" y="444.4421052631579" type="curve" smooth="yes"/>
      <point x="427.2105263157895" y="444.4421052631579"/>
      <point x="449.27368421052637" y="393.2736842105263"/>
      <point x="429.0631578947369" y="299.57894736842104" type="curve"/>
      <point x="412.2105263157895" y="217.2421052631579" type="line"/>
      <point x="393.0315789473685" y="138.03157894736842"/>
      <point x="378.4947368421053" y="73.92631578947369"/>
      <point x="360.95789473684215" y="0.0" type="curve"/>
      <point x="435.5052631578947" y="0.0" type="line"/>
      <point x="449.4315789473684" y="73.92631578947369"/>
      <point x="461.17894736842106" y="138.03157894736842"/>
      <point x="477.10526315789474" y="219.56842105263158" type="curve"/>
      <point x="485.10526315789474" y="257.74736842105267"/>
      <point x="492.7157894736842" y="286.3263157894737"/>
      <point x="498.7157894736842" y="313.6842105263158" type="curve" smooth="yes"/>
      <point x="504.07368421052627" y="339.11578947368423"/>
      <point x="506.7157894736842" y="362.36842105263156"/>
      <point x="505.99999999999994" y="382.4421052631579" type="curve"/>
      <point x="503.5684210526316" y="385.72631578947363" type="line"/>
      <point x="500.85263157894735" y="462.57894736842104"/>
      <point x="457.0315789473684" y="506.5052631578947"/>
      <point x="378.4631578947368" y="506.5052631578947" type="curve" smooth="yes"/>
      <point x="324.4" y="506.5052631578947"/>
      <point x="245.62105263157895" y="451.15789473684214"/>
      <point x="197.4736842105263" y="411.4421052631579" type="curve"/>
      <point x="190.32631578947365" y="411.4421052631579" type="line"/>
      <point x="203.0" y="499.6842105263158" type="line"/>
      <point x="137.78947368421052" y="495.4315789473684" type="line"/>
      <point x="129.78947368421055" y="438.7052631578947"/>
      <point x="122.96842105263157" y="381.41052631578947"/>
      <point x="115.14736842105263" y="327.86315789473684" type="curve"/>
      <point x="91.83157894736843" y="219.56842105263158" type="line"/>
      <point x="71.75789473684212" y="138.03157894736842"/>
      <point x="57.22105263157895" y="73.92631578947369"/>
    </contour>
    <contour>
      <point x="676.9473684210526" y="0.0" type="curve"/>
      <point x="751.4947368421052" y="0.0" type="line"/>
      <point x="765.4210526315788" y="73.92631578947369"/>
      <point x="777.1684210526315" y="138.03157894736842"/>
      <point x="793.0947368421052" y="219.56842105263158" type="curve"/>
      <point x="801.0947368421052" y="257.74736842105267"/>
      <point x="808.7052631578947" y="286.32631578947365"/>
      <point x="814.7052631578947" y="313.6842105263158" type="curve" smooth="yes"/>
      <point x="841.1684210526315" y="434.25263157894733"/>
      <point x="794.9894736842106" y="506.5052631578947"/>
      <point x="694.4526315789475" y="506.5052631578947" type="curve" smooth="yes"/>
      <point x="640.3894736842105" y="506.5052631578947"/>
      <point x="558.1473684210528" y="449.51578947368415"/>
      <point x="508.4631578947368" y="407.6210526315789" type="curve"/>
      <point x="499.85263157894735" y="407.6210526315789" type="line"/>
      <point x="498.8526315789473" y="342.7263157894737" type="line"/>
      <point x="560.1157894736842" y="399.8842105263158"/>
      <point x="630.8105263157895" y="444.4421052631579"/>
      <point x="669.4736842105264" y="444.4421052631579" type="curve" smooth="yes"/>
      <point x="743.2" y="444.4421052631579"/>
      <point x="765.2631578947369" y="393.2736842105263"/>
      <point x="745.0526315789473" y="299.57894736842104" type="curve"/>
      <point x="728.2" y="217.2421052631579" type="line"/>
      <point x="709.0210526315789" y="138.03157894736842"/>
      <point x="694.4842105263157" y="73.92631578947369"/>
    </contour>
  </outline>
</glyph>
<glyph name="n" format="2">
  <advance width="579.0105263157895"/>
  <unicode hex="006E"/>
  <anchor x="242.7157894736842" y="0.0" name="bottom"/>
  <anchor x="347.0736842105263" y="495.4315789473684" name="top"/>
  <outline>
    <contour>
      <point x="39.50526315789473" y="0.0" type="curve"/>
      <point x="114.41052631578948" y="0.0" type="line"/>
      <point x="128.33684210526312" y="73.92631578947369"/>
      <point x="140.26315789473682" y="138.03157894736842"/>
      <point x="155.65263157894736" y="217.2421052631579" type="curve"/>
      <point x="182.86315789473682" y="342.7263157894737" type="line"/>
      <point x="244.12631578947367" y="399.8842105263158"/>
      <point x="319.2842105263158" y="444.4421052631579"/>
      <point x="358.7684210526316" y="444.4421052631579" type="curve" smooth="yes"/>
      <point x="442.7052631578947" y="444.4421052631579"/>
      <point x="464.7684210526316" y="393.2736842105263"/>
      <point x="444.5578947368421" y="299.57894736842104" type="curve"/>
      <point x="427.7052631578947" y="217.2421052631579" type="line"/>
      <point x="408.5263157894737" y="138.03157894736842"/>
      <point x="393.9894736842105" y="73.92631578947369"/>
      <point x="376.4526315789474" y="0.0" type="curve"/>
      <point x="451.0" y="0.0" type="line"/>
      <point x="464.9263157894737" y="73.92631578947369"/>
      <point x="476.67368421052635" y="138.03157894736842"/>
      <point x="492.6" y="219.56842105263158" type="curve"/>
      <point x="500.6" y="257.74736842105267"/>
      <point x="508.2105263157895" y="286.32631578947365"/>
      <point x="514.2105263157895" y="313.6842105263158" type="curve" smooth="yes"/>
      <point x="540.6736842105263" y="434.25263157894733"/>
      <point x="494.4947368421053" y="506.5052631578947"/>
      <point x="384.56842105263155" y="506.5052631578947" type="curve" smooth="yes"/>
      <point x="328.8631578947369" y="506.5052631578947"/>
      <point x="245.44210526315788" y="451.15789473684214"/>
      <point x="197.29473684210524" y="411.4421052631579" type="curve"/>
      <point x="190.1473684210526" y="411.4421052631579" type="line"/>
      <point x="203.82105263157894" y="499.6842105263158" type="line"/>
      <point x="137.78947368421052" y="495.4315789473684" type="line"/>
      <point x="129.78947368421055" y="438.7052631578947"/>
      <point x="122.96842105263157" y="381.41052631578947"/>
      <point x="115.14736842105263" y="327.86315789473684" type="curve"/>
      <point x="91.83157894736843" y="219.56842105263158" type="line"/>
      <point x="71.75789473684212" y="138.03157894736842"/>
      <point x="57.22105263157895" y="73.92631578947369"/>
    </contour>
  </outline>
</glyph>
<glyph name="o" format="2">
  <advance width="597.1789473684211"/>
  <unicode hex="006F"/>
  <anchor x="246.0" y="0.0" name="bottom"/>
  <anchor x="298.17894736842106" y="247.7157894736842" name="center"/>
  <anchor x="343.69473684210527" y="0.0" name="ogonek"/>
  <anchor x="350.3578947368421" y="495.4315789473684" name="top"/>
  <anchor x="586.6" y="495.4315789473684" name="topright"/>
  <outline>
    <contour>
      <point x="273.2526315789474" y="-10.25263157894737" type="curve" smooth="yes"/>
      <point x="408.3368421052632" y="-10.25263157894737"/>
      <point x="510.15789473684214" y="83.85263157894737"/>
      <point x="539.6947368421053" y="222.3578947368421" type="curve" smooth="yes"/>
      <point x="571.6947368421053" y="371.53684210526313"/>
      <point x="491.90526315789475" y="506.5052631578947"/>
      <point x="324.74736842105267" y="506.5052631578947" type="curve" smooth="yes"/>
      <point x="199.33684210526314" y="506.5052631578947"/>
      <point x="88.66315789473686" y="421.6105263157895"/>
      <point x="58.305263157894736" y="274.0736842105263" type="curve" smooth="yes"/>
      <point x="28.126315789473686" y="128.17894736842106"/>
      <point x="101.5578947368421" y="-10.25263157894737"/>
    </contour>
    <contour>
      <point x="275.9684210526316" y="47.694736842105264" type="curve"/>
      <point x="146.26315789473685" y="51.05263157894736"/>
      <point x="99.70526315789473" y="150.70526315789473"/>
      <point x="123.66315789473686" y="265.5684210526316" type="curve" smooth="yes"/>
      <point x="145.1578947368421" y="370.4"/>
      <point x="216.13684210526313" y="445.2"/>
      <point x="324.2105263157895" y="448.5578947368421" type="curve"/>
      <point x="445.6" y="444.8421052631579"/>
      <point x="499.75789473684205" y="350.5789473684211"/>
      <point x="474.33684210526314" y="230.68421052631578" type="curve" smooth="yes"/>
      <point x="453.0210526315789" y="129.03157894736842"/>
      <point x="384.6842105263157" y="51.05263157894736"/>
    </contour>
  </outline>
</glyph>
<glyph name="p" format="2">
  <advance width="597.0736842105264"/>
  <unicode hex="0070"/>
  <outline>
    <contour>
      <point x="-2.315789473684211" y="-194.7157894736842" type="curve"/>
      <point x="74.48421052631579" y="-192.0" type="line"/>
      <point x="88.05263157894737" y="-118.07368421052631"/>
      <point x="99.62105263157896" y="-53.96842105263158"/>
      <point x="114.83157894736843" y="25.242105263157896" type="curve"/>
      <point x="125.93684210526317" y="75.48421052631579" type="line"/>
      <point x="132.83157894736843" y="75.48421052631579" type="line"/>
      <point x="180.93684210526314" y="30.63157894736841"/>
      <point x="249.28421052631575" y="-10.25263157894737"/>
      <point x="298.7052631578947" y="-10.25263157894737" type="curve" smooth="yes"/>
      <point x="419.6315789473684" y="-10.25263157894737"/>
      <point x="507.12631578947367" y="78.68421052631578"/>
      <point x="537.1263157894738" y="222.14736842105262" type="curve" smooth="yes"/>
      <point x="568.3052631578948" y="372.5052631578947"/>
      <point x="509.88421052631577" y="506.5052631578947"/>
      <point x="361.0" y="506.5052631578947" type="curve" smooth="yes"/>
      <point x="318.9684210526316" y="506.5052631578947"/>
      <point x="243.79999999999998" y="464.72631578947363"/>
      <point x="203.65263157894742" y="431.6842105263158" type="curve"/>
      <point x="195.50526315789475" y="431.6842105263158" type="line"/>
      <point x="202.96842105263158" y="499.6842105263158" type="line"/>
      <point x="137.78947368421052" y="495.4315789473684" type="line"/>
      <point x="129.78947368421055" y="438.7052631578947"/>
      <point x="122.96842105263157" y="381.41052631578947"/>
      <point x="115.14736842105263" y="327.86315789473684" type="curve"/>
      <point x="51.01052631578947" y="27.568421052631578" type="line"/>
      <point x="31.936842105263157" y="-53.96842105263158"/>
      <point x="15.221052631578946" y="-120.78947368421052"/>
    </contour>
    <contour>
      <point x="286.3578947368421" y="49.663157894736834" type="curve"/>
      <point x="246.7263157894737" y="51.84210526315788"/>
      <point x="179.71578947368425" y="85.93684210526315"/>
      <point x="138.23157894736843" y="134.98947368421054" type="curve"/>
      <point x="187.68421052631578" y="367.40000000000003" type="line"/>
      <point x="234.8105263157895" y="411.1368421052632"/>
      <point x="309.7473684210526" y="445.5894736842105"/>
      <point x="338.88421052631577" y="447.12631578947367" type="curve"/>
      <point x="455.2736842105263" y="444.12631578947367"/>
      <point x="496.0105263157895" y="346.57894736842104"/>
      <point x="471.58947368421053" y="228.29473684210527" type="curve" smooth="yes"/>
      <point x="450.2736842105263" y="126.17894736842103"/>
      <point x="391.7894736842105" y="52.84210526315788"/>
    </contour>
  </outline>
</glyph>
<glyph name="q" format="2">
  <advance width="586.7157894736841"/>
  <unicode hex="0071"/>
  <outline>
    <contour>
      <point x="334.8421052631579" y="-194.7157894736842" type="curve"/>
      <point x="410.56842105263155" y="-192.0" type="line"/>
      <point x="424.4947368421052" y="-118.07368421052631"/>
      <point x="436.42105263157896" y="-53.96842105263158"/>
      <point x="452.34736842105264" y="27.568421052631578" type="curve"/>
      <point x="515.8421052631578" y="327.86315789473684" type="line"/>
      <point x="529.9894736842105" y="382.7684210526316"/>
      <point x="547.778947368421" y="441.6"/>
      <point x="564.2842105263159" y="499.6842105263158" type="curve"/>
      <point x="497.82105263157894" y="495.4315789473684" type="line"/>
      <point x="478.28421052631575" y="425.93684210526317" type="line"/>
      <point x="470.4947368421052" y="425.93684210526317" type="line"/>
      <point x="426.59999999999997" y="463.72631578947363"/>
      <point x="350.7894736842105" y="506.5052631578947"/>
      <point x="298.5473684210526" y="506.5052631578947" type="curve" smooth="yes"/>
      <point x="177.62105263157895" y="506.5052631578947"/>
      <point x="90.1263157894737" y="417.56842105263155"/>
      <point x="60.126315789473686" y="274.10526315789474" type="curve" smooth="yes"/>
      <point x="28.947368421052634" y="123.74736842105263"/>
      <point x="87.36842105263159" y="-10.25263157894737"/>
      <point x="236.25263157894736" y="-10.25263157894737" type="curve" smooth="yes"/>
      <point x="277.3894736842106" y="-10.25263157894737"/>
      <point x="344.021052631579" y="24.06315789473684"/>
      <point x="389.3052631578948" y="68.55789473684212" type="curve"/>
      <point x="396.9157894736842" y="68.55789473684212" type="line"/>
      <point x="387.4526315789474" y="25.242105263157896" type="line"/>
      <point x="369.0947368421053" y="-53.96842105263158"/>
      <point x="352.37894736842105" y="-120.78947368421052"/>
    </contour>
    <contour>
      <point x="258.36842105263156" y="49.12631578947368" type="curve"/>
      <point x="141.97894736842105" y="51.30526315789473"/>
      <point x="100.42105263157895" y="150.49473684210523"/>
      <point x="125.66315789473684" y="267.9578947368421" type="curve" smooth="yes"/>
      <point x="147.8" y="371.7157894736842"/>
      <point x="205.46315789473684" y="443.41052631578947"/>
      <point x="310.89473684210526" y="446.58947368421053" type="curve"/>
      <point x="352.98947368421057" y="445.2315789473684"/>
      <point x="417.53684210526313" y="411.13684210526316"/>
      <point x="461.4842105263158" y="373.5789473684211" type="curve"/>
      <point x="412.8526315789474" y="146.9157894736842" type="line"/>
      <point x="369.83157894736837" y="94.96842105263157"/>
      <point x="304.7473684210526" y="51.48421052631578"/>
    </contour>
  </outline>
</glyph>
<glyph name="r" format="2">
  <advance width="401.87368421052633"/>
  <unicode hex="0072"/>
  <anchor x="72.47368421052632" y="0.0" name="bottom"/>
  <anchor x="285.0736842105263" y="495.4315789473684" name="top"/>
  <outline>
    <contour>
      <point x="39.50526315789473" y="0.0" type="curve"/>
      <point x="114.41052631578948" y="0.0" type="line"/>
      <point x="128.33684210526312" y="73.92631578947369"/>
      <point x="140.26315789473682" y="138.03157894736842"/>
      <point x="155.65263157894736" y="217.2421052631579" type="curve"/>
      <point x="179.50526315789475" y="324.40000000000003" type="line"/>
      <point x="254.5157894736842" y="399.8736842105264"/>
      <point x="316.57894736842104" y="440.3263157894737"/>
      <point x="344.64210526315793" y="440.3263157894737" type="curve" smooth="yes"/>
      <point x="352.8210526315789" y="440.3263157894737"/>
      <point x="380.6421052631579" y="433.32631578947365"/>
      <point x="407.43157894736845" y="426.6105263157895" type="curve"/>
      <point x="427.8105263157895" y="495.6842105263158" type="line"/>
      <point x="403.5263157894737" y="502.5052631578947"/>
      <point x="371.421052631579" y="506.5052631578947"/>
      <point x="361.13684210526316" y="506.5052631578947" type="curve" smooth="yes"/>
      <point x="321.421052631579" y="506.5052631578947"/>
      <point x="265.7894736842106" y="469.7263157894737"/>
      <point x="194.83157894736843" y="399.94736842105266" type="curve"/>
      <point x="187.68421052631578" y="399.94736842105266" type="line"/>
      <point x="203.0" y="499.6842105263158" type="line"/>
      <point x="137.78947368421052" y="495.4315789473684" type="line"/>
      <point x="129.78947368421055" y="438.7052631578947"/>
      <point x="122.96842105263157" y="381.41052631578947"/>
      <point x="115.14736842105263" y="327.86315789473684" type="curve"/>
      <point x="91.83157894736843" y="219.56842105263158" type="line"/>
      <point x="71.75789473684212" y="138.03157894736842"/>
      <point x="57.22105263157895" y="73.92631578947369"/>
    </contour>
  </outline>
</glyph>
<glyph name="t" format="2">
  <advance width="406.4421052631579"/>
  <unicode hex="0074"/>
  <anchor x="183.92631578947368" y="0.0" name="bottom"/>
  <anchor x="208.4" y="247.7157894736842" name="center"/>
  <anchor x="279.5473684210526" y="634.021052631579" name="top"/>
  <anchor x="283.6421052631579" y="495.4315789473684" name="topright"/>
  <outline>
    <contour>
      <point x="233.86315789473682" y="-10.25263157894737" type="curve" smooth="yes"/>
      <point x="255.7894736842105" y="-10.25263157894737"/>
      <point x="298.4421052631579" y="2.8526315789473684"/>
      <point x="327.23157894736846" y="13.03157894736842" type="curve"/>
      <point x="332.88421052631577" y="76.90526315789474" type="line"/>
      <point x="299.1368421052632" y="60.800000000000004"/>
      <point x="262.2105263157895" y="47.694736842105264"/>
      <point x="248.6421052631579" y="47.694736842105264" type="curve" smooth="yes"/>
      <point x="186.97894736842102" y="47.694736842105264"/>
      <point x="153.45263157894738" y="83.62105263157893"/>
      <point x="172.30526315789476" y="171.3157894736842" type="curve" smooth="yes"/>
      <point x="237.0105263157895" y="474.63157894736844" type="line"/>
      <point x="253.0842105263158" y="550.0"/>
      <point x="264.23157894736846" y="598.8315789473685"/>
      <point x="281.73684210526324" y="671.8000000000001" type="curve"/>
      <point x="208.4" y="655.6105263157895" type="line"/>
      <point x="197.01052631578946" y="594.0"/>
      <point x="186.90526315789472" y="540.5684210526316"/>
      <point x="173.18947368421053" y="474.63157894736844" type="curve"/>
      <point x="155.43157894736842" y="390.9157894736842"/>
      <point x="131.4" y="286.90526315789475"/>
      <point x="105.4421052631579" y="164.57894736842104" type="curve" smooth="yes"/>
      <point x="81.36842105263159" y="51.67368421052632"/>
      <point x="135.70526315789473" y="-10.25263157894737"/>
    </contour>
    <contour>
      <point x="65.58947368421053" y="437.58947368421053" type="line"/>
      <point x="182.8842105263158" y="445.63157894736844" type="line"/>
      <point x="207.70526315789476" y="445.63157894736844" type="line"/>
      <point x="272.84210526315786" y="443.7368421052632"/>
      <point x="343.1578947368421" y="440.66315789473686"/>
      <point x="409.83157894736837" y="437.58947368421053" type="curve"/>
      <point x="422.37894736842105" y="495.4315789473684" type="line"/>
      <point x="78.13684210526316" y="495.4315789473684" type="line"/>
    </contour>
  </outline>
</glyph>
<glyph name="u" format="2">
  <advance width="557.2315789473685"/>
  <unicode hex="0075"/>
  <anchor x="226.57894736842104" y="0.0" name="bottom"/>
  <anchor x="427.4315789473684" y="0.0" name="ogonek"/>
  <anchor x="330.7578947368421" y="495.4315789473684" name="top"/>
  <anchor x="580.3789473684211" y="495.4315789473684" name="topright"/>
  <outline>
    <contour>
      <point x="194.1894736842105" y="-10.25263157894737" type="curve" smooth="yes"/>
      <point x="244.9684210526316" y="-10.25263157894737"/>
      <point x="328.3894736842105" y="45.09473684210527"/>
      <point x="376.5368421052632" y="84.81052631578947" type="curve"/>
      <point x="383.68421052631584" y="84.81052631578947" type="line"/>
      <point x="366.72631578947363" y="0.0" type="line"/>
      <point x="428.5052631578947" y="0.0" type="line"/>
      <point x="442.4315789473684" y="73.92631578947369"/>
      <point x="454.1789473684211" y="138.03157894736842"/>
      <point x="469.2842105263158" y="219.56842105263158" type="curve"/>
      <point x="480.64210526315793" y="271.3578947368421" type="line"/>
      <point x="500.43157894736845" y="355.7578947368421"/>
      <point x="516.6105263157896" y="421.5052631578947"/>
      <point x="534.1473684210526" y="495.4315789473684" type="curve"/>
      <point x="458.9578947368421" y="495.4315789473684" type="line"/>
      <point x="445.2105263157894" y="421.5052631578947"/>
      <point x="432.2842105263158" y="355.7578947368421"/>
      <point x="417.3578947368421" y="276.5473684210526" type="curve"/>
      <point x="390.7894736842106" y="152.63157894736844" type="line"/>
      <point x="329.52631578947376" y="95.47368421052632"/>
      <point x="254.36842105263156" y="50.915789473684214"/>
      <point x="219.81052631578947" y="50.915789473684214" type="curve" smooth="yes"/>
      <point x="135.8736842105263" y="50.915789473684214"/>
      <point x="113.63157894736842" y="102.08421052631579"/>
      <point x="133.84210526315786" y="195.77894736842106" type="curve"/>
      <point x="150.23157894736843" y="276.5473684210526" type="line"/>
      <point x="168.5894736842105" y="355.7578947368421"/>
      <point x="185.94736842105266" y="424.22105263157897"/>
      <point x="203.4842105263158" y="498.14736842105265" type="curve"/>
      <point x="126.7578947368421" y="495.4315789473684" type="line"/>
      <point x="113.01052631578948" y="421.5052631578947"/>
      <point x="100.08421052631579" y="355.7578947368421"/>
      <point x="84.8" y="271.3578947368421" type="curve"/>
      <point x="76.8" y="235.6421052631579"/>
      <point x="71.08421052631579" y="209.9263157894737"/>
      <point x="65.08421052631579" y="182.56842105263158" type="curve" smooth="yes"/>
      <point x="38.621052631578955" y="61.99999999999999"/>
      <point x="84.26315789473684" y="-10.25263157894737"/>
    </contour>
  </outline>
</glyph>
<glyph name="v" format="2">
  <advance width="511.5684210526316"/>
  <unicode hex="0076"/>
  <outline>
    <contour>
      <point x="163.90526315789475" y="0.0" type="curve"/>
      <point x="245.48421052631582" y="0.0" type="line"/>
      <point x="281.4105263157894" y="62.17894736842105"/>
      <point x="316.3368421052632" y="123.35789473684211"/>
      <point x="351.4421052631579" y="185.53684210526313" type="curve"/>
      <point x="403.7263157894737" y="273.89473684210526" type="line"/>
      <point x="447.90526315789475" y="347.2526315789474"/>
      <point x="493.54736842105257" y="422.2526315789474"/>
      <point x="538.3684210526316" y="495.4315789473684" type="curve"/>
      <point x="456.0315789473684" y="495.4315789473684" type="line"/>
      <point x="408.7263157894737" y="409.8421052631579"/>
      <point x="363.3473684210526" y="326.7473684210526"/>
      <point x="314.6842105263158" y="237.7263157894737" type="curve"/>
      <point x="220.5684210526316" y="71.32631578947368" type="line"/>
      <point x="212.77894736842106" y="71.32631578947368" type="line"/>
      <point x="188.22105263157894" y="237.7263157894737" type="line"/>
      <point x="176.33684210526314" y="325.7473684210526"/>
      <point x="165.27368421052628" y="410.8421052631579"/>
      <point x="153.21052631578945" y="498.14736842105265" type="curve"/>
      <point x="79.2" y="495.4315789473684" type="line"/>
      <point x="93.02105263157894" y="423.6105263157895"/>
      <point x="107.02105263157894" y="348.0736842105263"/>
      <point x="120.84210526315789" y="275.7157894736842" type="curve"/>
      <point x="135.30526315789476" y="187.53684210526316" type="line"/>
      <point x="144.2315789473684" y="127.82105263157895"/>
      <point x="154.97894736842107" y="60.53684210526315"/>
    </contour>
  </outline>
</glyph>
<glyph name="w" format="2">
  <advance width="799.3157894736843"/>
  <unicode hex="0077"/>
  <anchor x="347.7263157894737" y="0.0" name="bottom"/>
  <anchor x="451.90526315789475" y="495.4315789473684" name="top"/>
  <outline>
    <contour>
      <point x="138.90526315789472" y="0.0" type="curve"/>
      <point x="219.87368421052628" y="0.0" type="line"/>
      <point x="260.61052631578946" y="81.41052631578947"/>
      <point x="304.8105263157895" y="168.10526315789474"/>
      <point x="345.5473684210527" y="248.69473684210524" type="curve"/>
      <point x="425.45263157894743" y="403.58947368421053" type="line"/>
      <point x="432.8842105263158" y="403.58947368421053" type="line"/>
      <point x="448.7684210526316" y="251.23157894736843" type="line"/>
      <point x="455.2631578947368" y="174.38947368421051"/>
      <point x="464.2210526315789" y="77.30526315789473"/>
      <point x="470.89473684210526" y="0.0" type="curve"/>
      <point x="558.6210526315789" y="0.0" type="line"/>
      <point x="589.9052631578949" y="60.3578947368421"/>
      <point x="622.0105263157894" y="123.53684210526315"/>
      <point x="656.1157894736841" y="189.53684210526316" type="curve"/>
      <point x="702.7578947368421" y="276.53684210526313" type="line"/>
      <point x="743.2947368421053" y="349.2526315789474"/>
      <point x="783.4736842105264" y="421.2526315789474"/>
      <point x="825.6526315789473" y="495.4315789473684" type="curve"/>
      <point x="743.1368421052632" y="495.4315789473684" type="line"/>
      <point x="704.6842105263157" y="418.5157894736842"/>
      <point x="656.4842105263157" y="321.85263157894735"/>
      <point x="614.3894736842104" y="237.29473684210527" type="curve"/>
      <point x="528.4842105263158" y="70.17894736842106" type="line"/>
      <point x="521.6947368421053" y="70.17894736842106" type="line"/>
      <point x="505.70526315789476" y="236.1157894736842" type="line"/>
      <point x="498.74736842105267" y="320.8526315789473"/>
      <point x="491.1473684210527" y="412.69473684210527"/>
      <point x="484.18947368421055" y="495.4315789473684" type="curve"/>
      <point x="412.0842105263158" y="495.4315789473684" type="line"/>
      <point x="368.3473684210526" y="407.41052631578947"/>
      <point x="325.61052631578946" y="321.2105263157895"/>
      <point x="282.51578947368426" y="234.4736842105263" type="curve"/>
      <point x="199.0736842105263" y="70.17894736842106" type="line"/>
      <point x="192.28421052631577" y="70.17894736842106" type="line"/>
      <point x="175.47368421052633" y="231.18947368421053" type="line"/>
      <point x="168.5157894736842" y="315.9263157894737"/>
      <point x="160.09473684210525" y="411.7684210526316"/>
      <point x="152.3157894736842" y="498.14736842105265" type="curve"/>
      <point x="77.30526315789474" y="495.4315789473684" type="line"/>
      <point x="88.30526315789474" y="420.43157894736845"/>
      <point x="98.48421052631578" y="349.89473684210526"/>
      <point x="108.66315789473684" y="276.53684210526313" type="curve"/>
      <point x="119.76842105263157" y="187.71578947368423" type="line"/>
      <point x="126.69473684210526" y="122.89473684210527"/>
      <point x="132.8" y="62.17894736842105"/>
    </contour>
  </outline>
</glyph>
<glyph name="x" format="2">
  <advance width="528.4315789473684"/>
  <unicode hex="0078"/>
  <outline>
    <contour>
      <point x="-23.442105263157895" y="0.0" type="curve"/>
      <point x="66.96842105263157" y="0.0" type="line"/>
      <point x="106.34736842105264" y="45.95789473684211"/>
      <point x="135.33684210526314" y="79.45263157894738"/>
      <point x="173.89473684210526" y="124.94736842105263" type="curve"/>
      <point x="252.0842105263158" y="212.68421052631578" type="line"/>
      <point x="258.5157894736842" y="212.68421052631578" type="line"/>
      <point x="305.2105263157895" y="122.41052631578948" type="line"/>
      <point x="327.19999999999993" y="77.45263157894738"/>
      <point x="342.6210526315789" y="44.6"/>
      <point x="364.61052631578946" y="0.0" type="curve"/>
      <point x="446.58947368421053" y="0.0" type="line"/>
      <point x="410.8421052631579" y="62.252631578947366"/>
      <point x="387.7368421052631" y="102.96842105263157"/>
      <point x="359.9894736842105" y="151.14736842105262" type="curve"/>
      <point x="298.56842105263155" y="264.29473684210524" type="line"/>
      <point x="297.4631578947368" y="245.10526315789474" type="line"/>
      <point x="395.9578947368421" y="351.0" type="line"/>
      <point x="442.8842105263158" y="400.178947368421"/>
      <point x="471.8842105263158" y="430.89473684210526"/>
      <point x="533.6315789473686" y="495.4315789473684" type="curve"/>
      <point x="443.04210526315785" y="495.4315789473684" type="line"/>
      <point x="403.3052631578948" y="449.47368421052636"/>
      <point x="374.77894736842103" y="415.62105263157895"/>
      <point x="338.32631578947365" y="372.58947368421053" type="curve"/>
      <point x="264.70526315789476" y="289.77894736842103" type="line"/>
      <point x="258.7368421052632" y="289.77894736842103" type="line"/>
      <point x="218.25263157894736" y="372.7684210526316" type="line"/>
      <point x="200.18947368421053" y="413.3368421052632"/>
      <point x="182.94736842105263" y="452.01052631578943"/>
      <point x="161.6" y="498.14736842105265" type="curve"/>
      <point x="84.30526315789473" y="495.4315789473684" type="line"/>
      <point x="116.69473684210527" y="434.89473684210526"/>
      <point x="135.97894736842105" y="398.35789473684207"/>
      <point x="163.3684210526316" y="347.53684210526313" type="curve"/>
      <point x="216.61052631578949" y="241.82105263157894" type="line"/>
      <point x="219.86315789473684" y="262.65263157894736" type="line"/>
      <point x="118.97894736842106" y="151.68421052631578" type="line"/>
      <point x="71.2315789473684" y="100.78947368421052"/>
      <point x="38.76842105263159" y="65.89473684210527"/>
    </contour>
  </outline>
</glyph>
<glyph name="y" format="2">
  <advance width="514.8526315789475"/>
  <unicode hex="0079"/>
  <anchor x="327.4526315789474" y="0.0" name="bottom"/>
  <anchor x="310.3368421052632" y="495.4315789473684" name="top"/>
  <outline>
    <contour>
      <point x="42.96842105263157" y="-194.7157894736842" type="curve"/>
      <point x="125.66315789473684" y="-192.0" type="line"/>
      <point x="167.58947368421053" y="-120.82105263157895"/>
      <point x="215.8736842105263" y="-38.28421052631579"/>
      <point x="290.90526315789475" y="88.71578947368421" type="curve"/>
      <point x="375.36842105263156" y="228.07368421052632" type="line"/>
      <point x="451.8315789473684" y="353.0736842105263"/>
      <point x="489.01052631578955" y="413.61052631578946"/>
      <point x="539.4736842105262" y="495.4315789473684" type="curve"/>
      <point x="457.67368421052635" y="495.4315789473684" type="line"/>
      <point x="409.83157894736837" y="409.05263157894734"/>
      <point x="362.9894736842105" y="325.6736842105263"/>
      <point x="313.5052631578947" y="236.83157894736843" type="curve"/>
      <point x="216.5684210526316" y="69.89473684210526" type="line"/>
      <point x="208.77894736842106" y="69.89473684210526" type="line"/>
      <point x="185.86315789473687" y="236.18947368421053" type="line"/>
      <point x="174.8" y="325.38947368421054"/>
      <point x="163.73684210526312" y="408.94736842105266"/>
      <point x="152.6736842105263" y="498.14736842105265" type="curve"/>
      <point x="78.66315789473684" y="495.4315789473684" type="line"/>
      <point x="91.66315789473684" y="424.2526315789474"/>
      <point x="105.48421052631579" y="348.2526315789474"/>
      <point x="118.48421052631579" y="277.0736842105263" type="curve"/>
      <point x="132.7684210526316" y="187.07368421052632" type="line"/>
      <point x="142.51578947368424" y="118.89473684210526"/>
      <point x="152.44210526315788" y="49.89473684210526"/>
      <point x="162.1894736842105" y="-18.28421052631579" type="curve"/>
      <point x="167.05263157894737" y="2.0842105263157897" type="line"/>
      <point x="126.26315789473685" y="-62.70526315789474"/>
      <point x="83.75789473684212" y="-129.9263157894737"/>
    </contour>
  </outline>
</glyph>
<glyph name="braceleft" format="2">
  <advance width="393.11578947368423"/>
  <unicode hex="007B"/>
  <outline>
    <contour>
      <point x="225.73684210526318" y="-115.22105263157894" type="curve" smooth="yes"/>
      <point x="303.6421052631579" y="-115.22105263157894" type="line"/>
      <point x="315.1894736842105" y="-57.915789473684214" type="line"/>
      <point x="282.0105263157894" y="-59.09473684210528"/>
      <point x="254.83157894736846" y="-59.452631578947376"/>
      <point x="237.83157894736846" y="-59.631578947368425" type="curve"/>
      <point x="171.34736842105266" y="-58.915789473684214"/>
      <point x="147.7473684210526" y="-18.957894736842107"/>
      <point x="158.67368421052632" y="38.56842105263158" type="curve" smooth="yes"/>
      <point x="199.02105263157895" y="244.49473684210525" type="line" smooth="yes"/>
      <point x="200.37894736842105" y="252.46315789473684"/>
      <point x="166.05263157894734" y="297.2105263157894"/>
      <point x="140.47368421052633" y="318.178947368421" type="curve"/>
      <point x="141.83157894736843" y="325.7894736842105" type="line"/>
      <point x="174.76842105263157" y="346.1157894736842"/>
      <point x="231.73684210526315" y="398.5052631578948"/>
      <point x="233.45263157894738" y="407.0105263157895" type="curve" smooth="yes"/>
      <point x="282.05263157894734" y="625.2526315789474" type="line" smooth="yes"/>
      <point x="295.33684210526314" y="685.2421052631579"/>
      <point x="329.57894736842104" y="707.8105263157894"/>
      <point x="392.13684210526316" y="708.5263157894736" type="curve"/>
      <point x="411.59999999999997" y="708.3473684210526"/>
      <point x="449.09473684210525" y="707.1684210526315"/>
      <point x="474.81052631578945" y="706.8105263157894" type="curve"/>
      <point x="487.35789473684207" y="764.1157894736842" type="line"/>
      <point x="391.1684210526316" y="764.1157894736842" type="line" smooth="yes"/>
      <point x="297.4" y="764.1157894736842"/>
      <point x="236.24210526315792" y="726.4315789473684"/>
      <point x="219.5263157894737" y="639.0947368421052" type="curve"/>
      <point x="217.70526315789476" y="629.8105263157894"/>
      <point x="184.74736842105264" y="461.1894736842105"/>
      <point x="182.9263157894737" y="452.0842105263158" type="curve"/>
      <point x="169.6421052631579" y="385.66315789473686"/>
      <point x="105.33684210526314" y="349.63157894736844"/>
      <point x="72.54736842105264" y="349.63157894736844" type="curve" smooth="yes"/>
      <point x="33.11578947368421" y="349.63157894736844" type="line"/>
      <point x="22.46315789473684" y="298.4421052631579" type="line"/>
      <point x="61.89473684210527" y="298.4421052631579" type="line" smooth="yes"/>
      <point x="94.68421052631578" y="298.4421052631579"/>
      <point x="144.5263157894737" y="270.62105263157895"/>
      <point x="128.77894736842106" y="195.98947368421054" type="curve"/>
      <point x="126.95789473684212" y="186.8842105263158"/>
      <point x="95.56842105263159" y="45.873684210526314"/>
      <point x="93.74736842105264" y="36.768421052631574" type="curve"/>
      <point x="76.31578947368422" y="-47.92631578947368"/>
      <point x="124.57894736842104" y="-115.22105263157894"/>
    </contour>
  </outline>
</glyph>
<glyph name="bar" format="2">
  <advance width="259.30526315789473"/>
  <unicode hex="007C"/>
  <outline>
    <contour>
      <point x="11.010526315789475" y="-155.78947368421052" type="curve"/>
      <point x="77.22105263157894" y="-155.78947368421052" type="line"/>
      <point x="105.32631578947368" y="-18.147368421052633"/>
      <point x="135.61052631578949" y="135.03157894736842"/>
      <point x="143.43157894736842" y="173.21052631578948" type="curve"/>
      <point x="203.43157894736842" y="455.2105263157895" type="line"/>
      <point x="211.78947368421055" y="493.5684210526316"/>
      <point x="246.50526315789475" y="645.5684210526316"/>
      <point x="277.22105263157897" y="784.2105263157895" type="curve"/>
      <point x="211.01052631578946" y="784.2105263157895" type="line"/>
      <point x="182.90526315789472" y="645.5684210526316"/>
      <point x="152.62105263157892" y="493.38947368421054"/>
      <point x="144.79999999999998" y="455.2105263157895" type="curve"/>
      <point x="84.8" y="173.21052631578948" type="line"/>
      <point x="76.62105263157896" y="135.38947368421054"/>
      <point x="41.726315789473695" y="-17.96842105263158"/>
    </contour>
  </outline>
</glyph>
<glyph name="asciitilde" format="2">
  <advance width="565.3684210526316"/>
  <unicode hex="007E"/>
  <outline>
    <contour>
      <point x="405.3263157894737" y="225.1263157894737" type="curve" smooth="yes"/>
      <point x="465.87368421052633" y="225.1263157894737"/>
      <point x="506.5578947368421" y="271.5368421052632"/>
      <point x="524.0631578947368" y="355.8105263157895" type="curve"/>
      <point x="477.8842105263158" y="355.8105263157895" type="line"/>
      <point x="461.77894736842103" y="306.61052631578946"/>
      <point x="444.5684210526316" y="286.40000000000003"/>
      <point x="406.04210526315785" y="284.22105263157897" type="curve"/>
      <point x="336.79999999999995" y="287.11578947368423"/>
      <point x="264.11578947368423" y="370.42105263157896"/>
      <point x="184.83157894736843" y="370.42105263157896" type="curve" smooth="yes"/>
      <point x="123.21052631578948" y="370.42105263157896"/>
      <point x="81.34736842105264" y="323.0105263157895"/>
      <point x="63.021052631578954" y="239.73684210526315" type="curve"/>
      <point x="109.2" y="239.73684210526315" type="line"/>
      <point x="125.30526315789474" y="288.93684210526317"/>
      <point x="144.69473684210527" y="309.14736842105265"/>
      <point x="182.7578947368421" y="311.3263157894737" type="curve"/>
      <point x="251.9263157894737" y="308.43157894736845"/>
      <point x="325.32631578947365" y="225.1263157894737"/>
    </contour>
  </outline>
</glyph>
<glyph name="cent" format="2">
  <advance width="496.9894736842105"/>
  <unicode hex="00A2"/>
  <anchor x="234.9578947368421" y="0.0" name="bottom"/>
  <anchor x="331.9263157894737" y="495.4315789473684" name="top"/>
  <outline>
    <contour>
      <point x="168.8" y="-137.0" type="curve"/>
      <point x="227.03157894736842" y="-137.0" type="line"/>
      <point x="254.42105263157896" y="-3.115789473684211"/>
      <point x="283.2736842105263" y="141.4736842105263"/>
      <point x="293.2421052631579" y="192.17894736842106" type="curve"/>
      <point x="315.2421052631579" y="294.7157894736842" type="line"/>
      <point x="326.64210526315793" y="345.42105263157896"/>
      <point x="359.2105263157895" y="488.83157894736837"/>
      <point x="389.0315789473684" y="623.8947368421053" type="curve"/>
      <point x="330.8" y="623.8947368421053" type="line"/>
      <point x="303.23157894736846" y="488.4736842105263"/>
      <point x="274.5578947368421" y="345.2421052631579"/>
      <point x="264.58947368421053" y="294.7157894736842" type="curve"/>
      <point x="242.58947368421053" y="192.17894736842106" type="line"/>
      <point x="231.36842105263156" y="142.1894736842105"/>
      <point x="198.62105263157895" y="-2.757894736842105"/>
    </contour>
    <contour>
      <point x="279.32631578947365" y="-9.715789473684211" type="curve" smooth="yes"/>
      <point x="313.71578947368425" y="-9.715789473684211"/>
      <point x="375.64210526315793" y="9.494736842105263"/>
      <point x="402.64210526315793" y="19.957894736842107" type="curve"/>
      <point x="408.18947368421055" y="85.62105263157895" type="line"/>
      <point x="372.4421052631579" y="68.05263157894736"/>
      <point x="311.69473684210527" y="49.41052631578948"/>
      <point x="287.5578947368421" y="48.58947368421053" type="curve" smooth="yes"/>
      <point x="163.97894736842105" y="50.58947368421053"/>
      <point x="94.8842105263158" y="131.21052631578945"/>
      <point x="123.8421052631579" y="266.82105263157894" type="curve" smooth="yes"/>
      <point x="148.8" y="382.2526315789474"/>
      <point x="228.5263157894737" y="442.12631578947367"/>
      <point x="327.8210526315789" y="447.12631578947367" type="curve"/>
      <point x="344.3894736842106" y="447.12631578947367"/>
      <point x="410.13684210526316" y="426.66315789473686"/>
      <point x="472.1684210526316" y="400.7368421052632" type="curve"/>
      <point x="490.6842105263158" y="462.2947368421053" type="line"/>
      <point x="446.5684210526316" y="478.0105263157895"/>
      <point x="360.5684210526316" y="506.3263157894737"/>
      <point x="328.46315789473687" y="506.3263157894737" type="curve" smooth="yes"/>
      <point x="190.94736842105263" y="506.3263157894737"/>
      <point x="86.8421052631579" y="411.86315789473684"/>
      <point x="58.48421052631579" y="274.9684210526316" type="curve" smooth="yes"/>
      <point x="24.410526315789475" y="109.03157894736843"/>
      <point x="112.60000000000001" y="-9.715789473684211"/>
    </contour>
  </outline>
</glyph>
<glyph name="sterling" format="2">
  <advance width="586.8736842105263"/>
  <unicode hex="00A3"/>
  <outline>
    <contour>
      <point x="15.663157894736838" y="0.0" type="line"/>
      <point x="500.5894736842105" y="0.0" type="line"/>
      <point x="514.7473684210527" y="66.64210526315789" type="line"/>
      <point x="435.82105263157894" y="64.74736842105263"/>
      <point x="309.83157894736837" y="62.49473684210526"/>
      <point x="220.18947368421053" y="60.421052631578945" type="curve"/>
      <point x="75.94736842105263" y="60.421052631578945" type="line"/>
      <point x="91.43157894736841" y="39.45263157894737" type="line"/>
      <point x="181.38947368421054" y="160.18947368421055"/>
      <point x="202.67368421052632" y="195.57894736842107"/>
      <point x="210.31578947368422" y="232.78947368421052" type="curve" smooth="yes"/>
      <point x="260.05263157894734" y="465.05263157894734" type="line" smooth="yes"/>
      <point x="285.1894736842105" y="582.1684210526315"/>
      <point x="340.0736842105263" y="635.4421052631578"/>
      <point x="436.69473684210527" y="636.978947368421" type="curve"/>
      <point x="454.08421052631576" y="636.978947368421"/>
      <point x="521.8315789473684" y="616.5157894736842"/>
      <point x="585.8631578947369" y="590.4105263157895" type="curve"/>
      <point x="606.9894736842105" y="654.2947368421053" type="line"/>
      <point x="558.7263157894736" y="669.6526315789474"/>
      <point x="466.6842105263158" y="697.7894736842105"/>
      <point x="432.6842105263158" y="697.7894736842105" type="curve" smooth="yes"/>
      <point x="311.41052631578947" y="697.7894736842105"/>
      <point x="223.54736842105262" y="626.3157894736843"/>
      <point x="192.18947368421053" y="475.9894736842105" type="curve" smooth="yes"/>
      <point x="175.26315789473682" y="399.1052631578947"/>
      <point x="156.41052631578947" y="298.6842105263158"/>
      <point x="139.76842105263157" y="219.29473684210527" type="curve"/>
      <point x="133.9473684210526" y="192.08421052631581"/>
      <point x="112.02105263157895" y="154.76842105263157"/>
      <point x="25.06315789473684" y="43.642105263157895" type="curve"/>
    </contour>
    <contour>
      <point x="83.30526315789474" y="350.35789473684207" type="line"/>
      <point x="144.52631578947367" y="351.7157894736842"/>
      <point x="213.9578947368421" y="353.07368421052627"/>
      <point x="253.07368421052635" y="353.4315789473684" type="curve"/>
      <point x="285.5789473684211" y="353.4315789473684" type="line"/>
      <point x="324.3368421052632" y="353.07368421052627"/>
      <point x="392.1263157894737" y="351.7157894736842"/>
      <point x="452.98947368421057" y="350.35789473684207" type="curve"/>
      <point x="465.00000000000006" y="406.33684210526314" type="line"/>
      <point x="403.95789473684215" y="404.978947368421"/>
      <point x="335.16842105263163" y="403.62105263157895"/>
      <point x="296.0526315789474" y="403.2631578947368" type="curve"/>
      <point x="263.5473684210527" y="403.2631578947368" type="line"/>
      <point x="224.78947368421055" y="403.62105263157895"/>
      <point x="156.35789473684213" y="404.978947368421"/>
      <point x="95.3157894736842" y="406.33684210526314" type="curve"/>
    </contour>
  </outline>
</glyph>
<glyph name="currency" format="2">
  <advance width="615.0315789473684"/>
  <unicode hex="00A4"/>
  <outline>
    <contour>
      <point x="307.62105263157895" y="120.15789473684211" type="curve" smooth="yes"/>
      <point x="418.9578947368421" y="120.15789473684211"/>
      <point x="494.2526315789474" y="176.23157894736843"/>
      <point x="517.8631578947368" y="294.95789473684215" type="curve" smooth="yes"/>
      <point x="542.2947368421053" y="416.5052631578947"/>
      <point x="459.0" y="520.3052631578947"/>
      <point x="336.5157894736842" y="520.3052631578947" type="curve" smooth="yes"/>
      <point x="230.92631578947368" y="520.3052631578947"/>
      <point x="148.42105263157896" y="465.05263157894734"/>
      <point x="124.81052631578947" y="346.3263157894737" type="curve" smooth="yes"/>
      <point x="100.37894736842105" y="223.95789473684212"/>
      <point x="181.85263157894735" y="120.15789473684211"/>
    </contour>
    <contour>
      <point x="90.49473684210525" y="58.78947368421053" type="line"/>
      <point x="134.46315789473687" y="101.11578947368422"/>
      <point x="183.3578947368421" y="148.54736842105262"/>
      <point x="211.22105263157894" y="175.58947368421053" type="curve"/>
      <point x="170.82105263157897" y="219.06315789473686" type="line"/>
      <point x="141.77894736842106" y="193.55789473684212"/>
      <point x="90.34736842105264" y="147.8421052631579"/>
      <point x="45.84210526315789" y="107.05263157894737" type="curve"/>
    </contour>
    <contour>
      <point x="311.7684210526316" y="178.2842105263158" type="curve"/>
      <point x="224.61052631578949" y="181.0"/>
      <point x="167.23157894736843" y="251.76842105263154"/>
      <point x="184.26315789473685" y="338.38947368421054" type="curve" smooth="yes"/>
      <point x="200.1157894736842" y="420.9368421052632"/>
      <point x="259.6" y="460.17894736842106"/>
      <point x="333.0842105263158" y="462.7157894736842" type="curve"/>
      <point x="418.13684210526316" y="459.82105263157894"/>
      <point x="475.8" y="388.69473684210527"/>
      <point x="458.94736842105266" y="303.61052631578946" type="curve" smooth="yes"/>
      <point x="442.0947368421053" y="218.9894736842105"/>
      <point x="390.0" y="180.2842105263158"/>
    </contour>
    <contour>
      <point x="196.56842105263158" y="414.18947368421055" type="curve"/>
      <point x="238.68421052631578" y="453.69473684210527" type="line"/>
      <point x="213.0" y="482.7368421052632"/>
      <point x="167.28421052631577" y="534.1684210526316"/>
      <point x="126.49473684210527" y="578.8526315789474" type="curve"/>
      <point x="79.7684210526316" y="534.7368421052631" type="line"/>
      <point x="121.27368421052633" y="491.58947368421053"/>
      <point x="168.8842105263158" y="441.87368421052633"/>
    </contour>
    <contour>
      <point x="520.178947368421" y="62.78947368421053" type="curve"/>
      <point x="566.9052631578948" y="106.90526315789474" type="line"/>
      <point x="525.4" y="150.05263157894737"/>
      <point x="477.7894736842105" y="199.7684210526316"/>
      <point x="450.10526315789474" y="227.45263157894735" type="curve"/>
      <point x="407.98947368421057" y="187.94736842105263" type="line"/>
      <point x="433.6736842105263" y="158.90526315789475"/>
      <point x="479.3894736842105" y="107.47368421052633"/>
    </contour>
    <contour>
      <point x="475.8526315789474" y="422.57894736842104" type="line"/>
      <point x="504.8947368421052" y="448.08421052631576"/>
      <point x="556.3263157894737" y="493.79999999999995"/>
      <point x="600.8315789473685" y="534.5894736842105" type="curve"/>
      <point x="556.178947368421" y="582.8526315789474" type="line"/>
      <point x="512.2105263157894" y="540.5263157894736"/>
      <point x="463.3157894736842" y="493.0947368421053"/>
      <point x="435.4526315789474" y="466.0526315789474" type="curve"/>
    </contour>
  </outline>
</glyph>
<glyph name="yen" format="2">
  <advance width="617.3157894736843"/>
  <unicode hex="00A5"/>
  <outline>
    <contour>
      <point x="284.44210526315794" y="275.8315789473684" type="line"/>
      <point x="344.93684210526317" y="275.8315789473684" type="line"/>
      <point x="546.7894736842105" y="522.8842105263158" type="line"/>
      <point x="595.1473684210526" y="579.6736842105263"/>
      <point x="641.5052631578947" y="635.1052631578947"/>
      <point x="684.0421052631579" y="685.0736842105263" type="curve"/>
      <point x="590.978947368421" y="685.0736842105263" type="line"/>
      <point x="518.4315789473685" y="591.5157894736842"/>
      <point x="485.44210526315794" y="548.1999999999999"/>
      <point x="427.5684210526316" y="473.38947368421054" type="curve"/>
      <point x="329.1684210526316" y="349.9789473684211" type="line"/>
      <point x="321.7368421052632" y="349.9789473684211" type="line"/>
      <point x="276.5052631578948" y="469.0315789473684" type="line"/>
      <point x="249.9473684210526" y="544.3052631578947"/>
      <point x="233.8842105263158" y="589.8736842105263"/>
      <point x="200.1157894736842" y="685.0736842105263" type="curve"/>
      <point x="117.27368421052631" y="685.0736842105263" type="line"/>
      <point x="153.09473684210528" y="602.2105263157895"/>
      <point x="166.27368421052634" y="570.778947368421"/>
      <point x="187.09473684210525" y="522.3473684210526" type="curve"/>
    </contour>
    <contour>
      <point x="217.57894736842107" y="0.0" type="curve"/>
      <point x="295.4526315789474" y="0.0" type="line"/>
      <point x="310.19999999999993" y="77.56842105263158"/>
      <point x="322.3052631578948" y="141.67368421052632"/>
      <point x="338.23157894736846" y="226.03157894736842" type="curve"/>
      <point x="360.34736842105264" y="330.53684210526313" type="line"/>
      <point x="293.021052631579" y="330.53684210526313" type="line"/>
      <point x="270.9052631578948" y="226.21052631578948" type="line"/>
      <point x="250.83157894736843" y="141.85263157894738"/>
      <point x="236.11578947368426" y="78.38947368421051"/>
    </contour>
    <contour>
      <point x="61.021052631578954" y="144.01052631578946" type="line"/>
      <point x="122.06315789473683" y="145.36842105263156"/>
      <point x="190.85263157894735" y="146.7263157894737"/>
      <point x="229.78947368421052" y="147.0842105263158" type="curve"/>
      <point x="345.87368421052633" y="147.0842105263158" type="line"/>
      <point x="384.81052631578956" y="146.7263157894737"/>
      <point x="453.24210526315795" y="145.36842105263156"/>
      <point x="514.2842105263157" y="144.01052631578946" type="curve"/>
      <point x="524.578947368421" y="195.5157894736842" type="line"/>
      <point x="463.3578947368421" y="194.5157894736842"/>
      <point x="394.74736842105267" y="193.5157894736842"/>
      <point x="355.81052631578945" y="193.33684210526314" type="curve"/>
      <point x="239.7263157894737" y="193.33684210526314" type="line"/>
      <point x="200.78947368421052" y="193.5157894736842"/>
      <point x="132.17894736842103" y="194.5157894736842"/>
      <point x="71.3157894736842" y="195.5157894736842" type="curve"/>
    </contour>
    <contour>
      <point x="90.16842105263157" y="283.6736842105263" type="line"/>
      <point x="152.03157894736842" y="284.6736842105263"/>
      <point x="220.6421052631579" y="285.6736842105263"/>
      <point x="259.5789473684211" y="285.85263157894735" type="curve"/>
      <point x="375.66315789473686" y="285.85263157894735" type="line"/>
      <point x="414.6000000000001" y="285.6736842105263"/>
      <point x="483.21052631578954" y="284.6736842105263"/>
      <point x="543.4315789473684" y="283.6736842105263" type="curve"/>
      <point x="554.5473684210526" y="335.17894736842106" type="line"/>
      <point x="493.32631578947377" y="333.82105263157894"/>
      <point x="424.53684210526325" y="332.46315789473687"/>
      <point x="385.6" y="332.10526315789474" type="curve"/>
      <point x="269.51578947368426" y="332.10526315789474" type="line"/>
      <point x="230.57894736842104" y="332.46315789473687"/>
      <point x="162.14736842105262" y="333.82105263157894"/>
      <point x="101.28421052631577" y="335.17894736842106" type="curve"/>
    </contour>
  </outline>
</glyph>
<glyph name="section" format="2">
  <advance width="537.1954022988506"/>
  <unicode hex="00A7"/>
  <outline>
    <contour>
      <point x="187.2528735632184" y="-124.34482758620689" type="curve" smooth="yes"/>
      <point x="313.67816091954023" y="-124.34482758620689"/>
      <point x="383.0229885057471" y="-73.2183908045977"/>
      <point x="401.41379310344826" y="12.735632183908043" type="curve" smooth="yes"/>
      <point x="423.41379310344826" y="115.90804597701151"/>
      <point x="353.88505747126436" y="167.6896551724138"/>
      <point x="248.58620689655174" y="214.4712643678161" type="curve" smooth="yes"/>
      <point x="140.57471264367817" y="262.39080459770116"/>
      <point x="124.74712643678161" y="294.264367816092"/>
      <point x="137.183908045977" y="351.66666666666663" type="curve" smooth="yes"/>
      <point x="151.22988505747128" y="417.7241379310345"/>
      <point x="218.632183908046" y="435.45977011494256"/>
      <point x="260.67816091954023" y="439.45977011494256" type="curve"/>
      <point x="221.98850574712642" y="487.04597701149424" type="line"/>
      <point x="152.86206896551724" y="475.60919540229884"/>
      <point x="86.74712643678161" y="430.6551724137931"/>
      <point x="71.18390804597702" y="358.0114942528736" type="curve" smooth="yes"/>
      <point x="51.96551724137931" y="267.52873563218395"/>
      <point x="98.14942528735632" y="220.44827586206898"/>
      <point x="201.6206896551724" y="171.88505747126436" type="curve" smooth="yes"/>
      <point x="312.97701149425285" y="119.79310344827587"/>
      <point x="350.2413793103449" y="90.26436781609195"/>
      <point x="335.1954022988506" y="19.42528735632184" type="curve" smooth="yes"/>
      <point x="320.14942528735634" y="-51.632183908045974"/>
      <point x="254.1379310344828" y="-65.11494252873564"/>
      <point x="185.17241379310343" y="-67.11494252873564" type="curve"/>
      <point x="145.47126436781608" y="-67.11494252873564"/>
      <point x="76.17241379310346" y="-37.33333333333333"/>
      <point x="0.3908045977011482" y="-1.9425287356321836" type="curve"/>
      <point x="-17.86206896551724" y="-63.298850574712645" type="line"/>
      <point x="56.43678160919541" y="-93.51724137931035"/>
      <point x="141.90804597701148" y="-124.34482758620689"/>
    </contour>
    <contour>
      <point x="356.81609195402297" y="116.99999999999999" type="line"/>
      <point x="437.0689655172414" y="131.82758620689657"/>
      <point x="487.71264367816093" y="177.39080459770116"/>
      <point x="502.4942528735632" y="248.2528735632184" type="curve" smooth="yes"/>
      <point x="523.3218390804598" y="346.9080459770115"/>
      <point x="454.9655172413793" y="398.08045977011494"/>
      <point x="350.0574712643678" y="444.86206896551727" type="curve" smooth="yes"/>
      <point x="242.82758620689657" y="492.7816091954023"/>
      <point x="225.82758620689657" y="526.0919540229885"/>
      <point x="238.26436781609198" y="583.0574712643678" type="curve" smooth="yes"/>
      <point x="253.9195402298851" y="654.9425287356322"/>
      <point x="329.1494252873563" y="666.1609195402299"/>
      <point x="368.2413793103448" y="668.551724137931" type="curve"/>
      <point x="388.06896551724134" y="668.551724137931"/>
      <point x="465.45977011494256" y="643.3793103448276"/>
      <point x="535.6781609195402" y="616.2068965517242" type="curve"/>
      <point x="553.1034482758621" y="677.3908045977012" type="line"/>
      <point x="501.41379310344826" y="694.1724137931036"/>
      <point x="401.89655172413785" y="725.7816091954023"/>
      <point x="362.7701149425287" y="725.7816091954023" type="curve" smooth="yes"/>
      <point x="267.2183908045977" y="725.7816091954023"/>
      <point x="190.4367816091954" y="677.4367816091954"/>
      <point x="172.26436781609195" y="591.7471264367816" type="curve" smooth="yes"/>
      <point x="152.26436781609195" y="497.9655172413793"/>
      <point x="203.13793103448273" y="449.2758620689655"/>
      <point x="303.48275862068965" y="402.66666666666663" type="curve" smooth="yes"/>
      <point x="414.8390804597701" y="350.9655172413793"/>
      <point x="451.9310344827586" y="321.48275862068965"/>
      <point x="437.2758620689655" y="250.64367816091956" type="curve" smooth="yes"/>
      <point x="425.6206896551724" y="193.80459770114942"/>
      <point x="372.9655172413793" y="168.45977011494253"/>
      <point x="317.4367816091954" y="162.24137931034483" type="curve"/>
    </contour>
  </outline>
</glyph>
<glyph name="copyright" format="2">
  <advance width="821.4842105263158"/>
  <unicode hex="00A9"/>
  <outline>
    <contour>
      <point x="434.2421052631579" y="-10.25263157894737" type="curve" smooth="yes"/>
      <point x="653.8947368421053" y="-10.25263157894737"/>
      <point x="787.9263157894737" y="141.10526315789474"/>
      <point x="787.9263157894737" y="344.17894736842106" type="curve" smooth="yes"/>
      <point x="787.9263157894737" y="540.7157894736843"/>
      <point x="660.0736842105263" y="697.7894736842105"/>
      <point x="431.5263157894737" y="697.7894736842105" type="curve" smooth="yes"/>
      <point x="206.8" y="697.7894736842105"/>
      <point x="73.5578947368421" y="543.3578947368421"/>
      <point x="73.5578947368421" y="344.0" type="curve" smooth="yes"/>
      <point x="73.5578947368421" y="151.89473684210526"/>
      <point x="195.69473684210527" y="-10.25263157894737"/>
    </contour>
    <contour>
      <point x="441.7789473684211" y="155.82105263157894" type="curve" smooth="yes"/>
      <point x="480.4842105263158" y="155.82105263157894"/>
      <point x="523.3157894736842" y="170.21052631578948"/>
      <point x="549.8526315789474" y="179.67368421052632" type="curve"/>
      <point x="543.8526315789474" y="231.6736842105263" type="line"/>
      <point x="510.5368421052632" y="214.82105263157897"/>
      <point x="476.3578947368421" y="204.0"/>
      <point x="449.4736842105263" y="204.0" type="curve"/>
      <point x="362.2421052631579" y="205.82105263157894"/>
      <point x="314.82105263157894" y="259.0210526315789"/>
      <point x="314.82105263157894" y="345.3578947368421" type="curve" smooth="yes"/>
      <point x="314.82105263157894" y="435.8315789473684"/>
      <point x="366.84210526315786" y="481.9263157894737"/>
      <point x="438.82105263157894" y="484.10526315789474" type="curve"/>
      <point x="455.85263157894735" y="484.10526315789474"/>
      <point x="497.5684210526316" y="474.38947368421054"/>
      <point x="543.3157894736842" y="452.99999999999994" type="curve"/>
      <point x="548.5684210526316" y="505.7157894736842" type="line"/>
      <point x="517.7052631578947" y="517.0736842105264"/>
      <point x="469.19999999999993" y="533.0"/>
      <point x="435.2421052631579" y="533.0" type="curve" smooth="yes"/>
      <point x="324.8421052631579" y="533.0"/>
      <point x="260.5578947368421" y="451.17894736842106"/>
      <point x="260.5578947368421" y="344.46315789473687" type="curve" smooth="yes"/>
      <point x="260.5578947368421" y="237.74736842105264"/>
      <point x="325.9894736842105" y="155.82105263157894"/>
    </contour>
    <contour>
      <point x="434.06315789473683" y="36.242105263157896" type="curve"/>
      <point x="238.74736842105264" y="40.95789473684211"/>
      <point x="121.48421052631579" y="154.16842105263157"/>
      <point x="121.48421052631579" y="344.0" type="curve" smooth="yes"/>
      <point x="121.48421052631579" y="531.5157894736842"/>
      <point x="242.92631578947368" y="646.578947368421"/>
      <point x="431.70526315789476" y="651.2947368421053" type="curve"/>
      <point x="621.6631578947369" y="646.578947368421"/>
      <point x="740.0" y="532.9789473684211"/>
      <point x="740.0" y="344.17894736842106" type="curve" smooth="yes"/>
      <point x="740.0" y="153.66315789473683"/>
      <point x="619.9473684210526" y="40.95789473684211"/>
    </contour>
  </outline>
</glyph>
